/* XPM */
static char *d761e10c4b724781898fc5e9a4b672065eFk65iHgQcI2OTU[] = {
/* columns rows colors chars-per-pixel */
"64 64 250 2 ",
"   c #260A04",
".  c #341803",
"X  c #3A1D03",
"o  c #362304",
"O  c #3C2302",
"+  c #3D2410",
"@  c #492A04",
"#  c #4C3305",
"$  c #533502",
"%  c #543B00",
"&  c #5C3D01",
"*  c #5A3A08",
"=  c #503114",
"-  c #623E05",
";  c #623619",
":  c #5D4302",
">  c #5E430B",
",  c #634502",
"<  c #6B4600",
"1  c #664B01",
"2  c #6B4C02",
"3  c #67470B",
"4  c #724D02",
"5  c #764D05",
"6  c #675407",
"7  c #6D5201",
"8  c #735402",
"9  c #7B5502",
"0  c #745B01",
"q  c #7B5B01",
"w  c #735509",
"e  c #79540B",
"r  c #785A0E",
"t  c #5D4A22",
"y  c #685324",
"u  c #7A6927",
"i  c #786650",
"p  c #855D06",
"a  c #826304",
"s  c #8C6503",
"d  c #886B02",
"f  c #936604",
"g  c #946B01",
"h  c #977605",
"j  c #9B7402",
"k  c #926F11",
"l  c #9A7813",
"z  c #A67B02",
"x  c #846623",
"c  c #907735",
"v  c #34A313",
"b  c #9B831F",
"n  c #A88503",
"m  c #B58C03",
"M  c #BC8E00",
"N  c #BA9704",
"B  c #B29117",
"V  c #BDA41C",
"C  c #A78F2E",
"Z  c #B69B21",
"A  c #B8A333",
"S  c #C39504",
"D  c #C49D01",
"F  c #CA9E02",
"G  c #C89B0C",
"H  c #D89C03",
"J  c #DC9D02",
"K  c #D49D18",
"L  c #CDA202",
"P  c #CAA506",
"I  c #D4A501",
"U  c #DBA503",
"Y  c #D4AB01",
"T  c #DBAB02",
"R  c #D5A40B",
"E  c #DCA80B",
"W  c #DCB302",
"Q  c #DAB608",
"!  c #CAA714",
"~  c #D2AE10",
"^  c #DBB917",
"/  c #E2AC02",
"(  c #E7AC09",
")  c #E9AE0B",
"_  c #E3B302",
"`  c #E9B502",
"'  c #E5BA01",
"]  c #ECBB02",
"[  c #E9B509",
"{  c #E4BC0C",
"}  c #ECBB09",
"|  c #F2BE02",
" . c #F6BB07",
".. c #E6BA15",
"X. c #C5A824",
"o. c #CAB429",
"O. c #D9BB28",
"+. c #C6A937",
"@. c #D2B737",
"#. c #E2BF27",
"$. c #EDC301",
"%. c #ECCA01",
"&. c #E8C708",
"*. c #ECC40C",
"=. c #F4C402",
"-. c #FBC402",
";. c #F4CA02",
":. c #FACA03",
">. c #F4C40A",
",. c #FCC40B",
"<. c #F5CB0A",
"1. c #FCCC0B",
"2. c #FCD202",
"3. c #F8D509",
"4. c #FDD20C",
"5. c #E6C613",
"6. c #EAC213",
"7. c #ECC915",
"8. c #ECC51A",
"9. c #ECCA1D",
"0. c #F4C816",
"q. c #FCCD13",
"w. c #FDCB19",
"e. c #EED114",
"r. c #F5D615",
"t. c #FDD314",
"y. c #FEDA15",
"u. c #F5D21D",
"i. c #FDD41C",
"p. c #FDDB1C",
"a. c #FEE21C",
"s. c #DAC938",
"d. c #ECCC23",
"f. c #E6C629",
"g. c #F7CA27",
"h. c #F6CD2B",
"j. c #F5D323",
"k. c #FDD523",
"l. c #FDDB23",
"z. c #FDD52B",
"x. c #F6D828",
"c. c #F5D92C",
"v. c #FEDB2B",
"b. c #E9CA37",
"n. c #F7CC35",
"m. c #ECD534",
"M. c #FDD532",
"N. c #F4DA33",
"B. c #FDDC33",
"V. c #F6D438",
"C. c #F5DC3A",
"Z. c #FEDE3B",
"A. c #FEE324",
"S. c #FEE32B",
"D. c #FAE72C",
"F. c #FEE333",
"G. c #FDEC34",
"H. c #F5E438",
"J. c #FDE33C",
"K. c #FEEA3C",
"L. c #FFF23D",
"P. c #998C6D",
"I. c #AB9871",
"U. c #AFA07F",
"Y. c #CDBA47",
"T. c #D2B74A",
"R. c #CBB76F",
"E. c #DBC84B",
"W. c #D3C758",
"Q. c #ECCD49",
"!. c #EAD545",
"~. c #F8D948",
"^. c #ECD95C",
"/. c #F4DB57",
"(. c #EBE74C",
"). c #FDE444",
"_. c #FDEA44",
"`. c #F5E549",
"'. c #FEE54A",
"]. c #FDEB4C",
"[. c #FFF54A",
"{. c #FDF24C",
"}. c #FEE553",
"|. c #FDEB54",
" X c #FAE459",
".X c #FEEC5B",
"XX c #FEF253",
"oX c #FEF25E",
"OX c #DCC76F",
"+X c #E7D565",
"@X c #F7DD67",
"#X c #EBD474",
"$X c #F8E566",
"%X c #FDED63",
"&X c #FCED6B",
"*X c #FEF164",
"=X c #FEF26C",
"-X c #FFF86B",
";X c #E9E678",
":X c #F7E676",
">X c #FCEB74",
",X c #FCEC7B",
"<X c #F7F677",
"1X c #FEF374",
"2X c #FDF37C",
"3X c #FEFB7C",
"4X c #8BBB84",
"5X c #BAAA81",
"6X c #C8B897",
"7X c #92C184",
"8X c #EDDD8A",
"9X c #F7DC97",
"0X c #EBE18F",
"qX c #FAE988",
"wX c #FCF482",
"eX c #FFFA84",
"rX c #F4F789",
"tX c #FFF68B",
"yX c #FFFD8A",
"uX c #F9E695",
"iX c #FEF897",
"pX c #D5CBA9",
"aX c #D7D0B8",
"sX c #E6D6B0",
"dX c #EEE1AD",
"fX c #FCE7A8",
"gX c #FDF8AA",
"hX c #F7E8B8",
"jX c #FEF6B7",
"kX c #FDF5BB",
"lX c #D7CBC5",
"zX c #E4DCC5",
"xX c #ECE5C9",
"cX c #F6E9C3",
"vX c #FAF6C8",
"bX c #FCFBCB",
"nX c #ECE6DA",
"mX c #F6EBD7",
"MX c #F7F6DA",
"NX c #FCF5DC",
"BX c #FFFCDC",
"VX c #F8F7E7",
"CX c #FDF4E5",
"ZX c #FEFBE4",
"AX c #FDFDED",
"SX c #FEF5F4",
"DX c #F5FEF5",
"FX c #FDFEF4",
"GX c #F6FEFD",
"HX c #FEFEFE",
/* pixels */
"v v v v v v v v v v v v v v v v v v v v v v v v v v v v v v v v v v v v v v v v v v v v v v v v v v v v v v v v v v v v v v v v ",
"v v v v v v v v v v v v v v v v v v v v v v v v v v v v v v v v v v v v v v v v v v v v v v v v v v v v v v v v v v v v v v v v ",
"v v v v v v v v v v v v v v v v v v v v v v v v 7X7XZXZXZXZXZXZXv v v v v v v v v v v v v v v v v v v v v v v v v v v v v v v v ",
"v v v v v v v v v v v v v v v v v v v v v kXtX1X%X%X=X&X,XqXrXuX0X8X+XQ.+X8X0XhXmXv v v v v v v v v v v v v v v v v v v v v v v ",
"v v v v v v v v v v v v v v v v v v ZXiX].G.K.].|.|.|.].XX%X%X&XwXiXjXfXn.` `  .} f.+XhXv v v v v v v v v v v v v v v v v v v v ",
"v v v v v v v v v v v v v v v v MXtXH.H.)..X|.`.{._.].].|.|..X%X_..X%XrXbXvX/. .] 0. .| g.9XZXv v v v v v v v v v v v v v v v v ",
"v v v v v v v v v v v v v v CXfXA.F.'.'._.)._._.].].|.].].].{.{.{.oX%X|.*XgXNXkXn.>.$.,.>.' b.9Xv v v v v v v v v v v v v v v v ",
"v v v v v v v v v v v v v MX>Xa.~.).K.K.)._._.).).].].}.|.}.|.|.%X}.].oX.X_.2XbXZX$X%.-. .-.=.| b.kXv v 7Xv v v v v v v v v v v ",
"v v v v v v v v v v v v bXV.v.'.G.F.K.).).J.H.|.XX{.].{.XXXXXX|. X].XXXX|..X.X|.gXHXqX&.-.:.=.<.=.,.fXv v v v v v v v v v v v v ",
"v v v v v v v v v v v mXc.F.H.J.~._.B.).].).J.s.o.X.o.O.f.m.).XX{.|./.|.|.].XX.X{.qXHXfX:.=.,.;.=.<. .#Xv v 7Xv v v v v v v v v ",
"v v v v v v v v v v vXx.M.J.D.K.S.F.L.F.O.h 7 7 k B +.+.A V V B o..X|.|.XX`.|.XX|.].tXFXfX;.:.q.2.$.;.-.@Xv v v v v v v v v v v ",
"v v v v v v v v v CXV.v.S.B.J.m.G.).o.d 7 c R.;XyXiXyXyXyXiXrX+XA Z O.].].`.|.|..X*X~.rXHXqX;.1.,.=.1.-.} @Xv v v v v v v v v v ",
"v v v v v v v v v /.z.F.l.a.J.G.s.q : c #XyXeXeX<X<XeXwX2XwXeXyXiX<XY.Z !.|.].|.|._.*X}.gXGX X1.t.w.1.%.-.,.8Xv v v v v v v v v ",
"v v v v v v v v :Xx.l.p.S.v.v.X.* 6 W.eX2XyX<X<XeX2X2X2X2X2X2X2X<XyXyXqXA E.|.).`._.|..X`.vXFX~.4.q.t.q.q.;.-.cXv v v v v v v v ",
"v v v v v v v hX1.N.A.z.j.B.Z & u +XyX1X<X<X3X3XyXyXyXyXyXyXeX2XwX2XwXrXiXE.o.XX].].)..X_.|.ZXvXu.c.g.k.<.$.7.n.NXv v v v v v v ",
"v v v v v v v (.k.k.k.a.Z.Z : x %X-X&X1X3X1X>XOXE.E.E.E.@.Y.+XeXwXwXtX<X<X3XE.Y.XX XXX_._..X,XDX9Xt.z.g.w.u.<.%.;XZXv v v v v v ",
"v v v v v v uXi.l.M.v.A.! 8 d $X*XXX&X&X=X1X(.j & & 9 Z N N @.yXeXeX2X2XwXeXeXW.f.].`._.}.|.`.jXZXn.k.n.g.h.h.9.<.kXv v v v v v ",
"v v v v v v ~.l.l.j.S.^ s p s.]. X`..X%X%X*XoXK z z ! {.[.[.`.2X2X2X2XeX2X2XyX2XE.!.XX).'._.`.>XBX,XM.~.z.h.h.w.0.^.v v v v v v ",
"v v v v v hX3.l.i.y.k.B 5 X._.J.J.J.|.|.].].<Xf.} Q 9.L.H.K.!.<X2X1X2XeXwX2X2XeXqXE.`.].].K.}._.gXvX~.~.n.h.g.g.g.$.cXv v v v v ",
"v v v v v (.2.j.k.A.Q f l G.x.F.F.F.J.`.J.).2X8./ T 9.[.(.[.`.<X1X1X2X2X2XeX2X,XeX+Xf.]._.). XK.>XbX@Xn.n.g.g.g.8.] +Xv v v v v ",
"v v v v NXr.i.i.z.u.m s f.A.v.v.v.S.Z.J.K.K.,X5._ U d._._._.C.*X&X1X1X1X1X2X2X2X<X2XQ.).).].}._.'.gXuXh.Q.h.d.g.8.*.5.CXv v v v ",
"v v v v 0X1.l.j.i.^ j B A.r.v.l.v.A.J.F.J.K.,X5._ I d._.`.K.C.=X=X1X=X1X1X1X1X2X<XeX>Xs._.`._.).).wXjX~.Q.n.f.g.8.8.' 0Xv v v v ",
"v v v v ~.i.i.l.l.! g ~ y.l.k.l.x.l.B.S.J.F.>X{ _ Y d.L.K.K.C.&X%X*X%X1X1X1X1X1X3X1X,XQ.C.).).K.)..XgX@Xg.g.f.8...*.[ b.7Xv v v ",
"v v v MXV.p.j.l.8.G z l.p.l.k.l.v.y.v.l.Z.J.&X{ W L 9.G.L.D.H.*X*X*X&X*X=X&X1X=X>XoX<X$Xm.).'.).K._.uXqX......_ { W _ E vXv v v ",
"v v v hXr.v.p.B.0.m D a.k.l.p.p.v.l.l.v.v.F.>X{ / T 8.K.K.K.H.XX.XoXoX%X*X*X*X*X=X=X1X=X!.K.F.).K.~.>XwX5...Q W T W T R 9Xv v v ",
"v v v uXi.v.l.v.} M ^ a.k.k.i.l.k.l.i.v.l.F.>X{ _ I 9.K.G.G.C.].|.|..X.XoX%X*X*X*X*X=X=X!.C.J.).K.Z.$XwXO.E Q T Y Y I F OXv v v ",
"v v v :Xi.B.z.l.] G j.A.k.S.k.p.v.l.k.S.k.F.$X{ T T 9.G.G.G.N.].'.'.|.|..XoX%X.X%X*X&X*X~.C.J.).J.Z.|.wXf.I Y I L P F S +.v v v ",
"v v v /.z.v.M.r.| R p.x.k.v.z.l.S.A.v.v.l.Z.%XW T T 9.G.D.F.c.).'.].'.|.|.|..X.X.X*X.X%X Xm.K.).K.J.`.,Xb.D P F P D D S V 7Xv v ",
"v v 7XC.z.M.M.p.=.^ y.v.l.l.B.l.v.v.B.v.B.J..X_ W I 7.G.D.S.c.).).).'.'.'.|.|.}..X|..X.X}.m.K.J.Z.J.H.%Xh.N P D D S N N N VXv v ",
"v v ZXc.z.z.z.A.>...y.k.k.p.k.l.v.v.B.v.B.).}.W T T 9.G.D.F.N.).).).).'.'.].}.|.}.|.}..X}.m.J.J.Z.).F.).d.N N N N M m m n xXv v ",
"v v NXx.z.l.k.J.j.0.t.i.p.i.l.l.l.l.B.A.B.).}.T T I 7.D.G.D.v.).).).).'.'.'.].'.}.'.'.|.|.V.J.B.B.).B.z...n n n n z z n h sXv v ",
"v v mXx.k.p.i.).B.e.i.2.i.t.i.i.p.p.z.l.v.Z.`.T T I 8.G.D.D.c._.'.'.).'.'.'.'.'.}.].`.}.}.C.J.J.J.J.J.t.W j j j g z g h f sXv v ",
"v v vXn.p.t.1.%X`.1.r.2.2.4.t.1.4.i.i.p.i.B.J.Y Y L 8.F.D.D.N.'.'.'.'.}.'.'.'.).).).'.'.).C.J.K.~.'.Z.0.I s a p a 0 s p 8 aXv v ",
"v v NXh.t.w.1..X.Xt.t.;.:.:.,.3.1.1.t.t.u.B.B.Y I L 8.G.S.S.N.).).'.'.'.'.'.'.).'.).'.'.).N.Z.J.F.K.K.6.S < 1 3 1 , < < : aXv v ",
"v v 7X0.4.t.1.}.2Xp.<.=.-.=.=.<.1.1.:.4.t.k.M.L L L 5.S.A.D.c.).).).).).'.).)._.).'.'.'.).V.J.).J.J.).^ m - : > : : & - % lXv v ",
"v v v 0.1.q.1.~.iXF.;.=.-.;.=.=.-.=.:.1.4.p.M.L L F 5.S.A.S.c.Z.Z.J.J.).).).).).).'.'.].).C.).J.).).).Q h & 1 , 3 & , , : zXv v ",
"v v v m.:.1.:.Z.iX X<.=.-.=.=.=.;.=.:.:.;.t.k.L F F 5.D.A.S.j.v.B.B.Z.Z.~.).).).).'.).).J.Z.J.J.).~.~.P f $ : & & & : * > mXv v ",
"v v v ^.=.<.-.u.iX,X0.| ] =.$.=.=.=.=.=.=.1.k.F F F 5.S.A.A.u.l.k.v.B.B.B.J.Z.Z.Z.).~.).Z.Z.Z.J.Z.K.V.m w @ # @ $ $ # = t v v v ",
"v v v 0X=.;.,.<.uXiXB.| [ } ]  .] =.=.=.=.;.w.I L F 5.D.S.v.u.t.i.p.k.k.v.M.B.B.Z.).Z.J.N.B.J.J.J.K.b.j * o + @ X @ O . i v v v ",
"v v v fX=.2.-.:.,XgXZ.| _ } ' } ] ] |  .] ;.u.L F L 5.S.S.l.e.4.1.4.t.i.k.v.z.v.B.Z.Z.Z.N.F.J.J.J.).O.s @ . o X o . +   P.v v v ",
"v v v MXd.%.,.%.!.bX&X7._  .' ` ] ] } ] | | 1.I F D 6.S.l.S.*.1.1.4.4.t.t.t.i.u.k.k.B.B.u.F.B.J.v.).Z 7 X o X . X . +   lXv v v ",
"v v v v b.1.=.<.<.kXgXu._ ( / _ _ _ _ ] } } q.G F F 6.A.a.S.*.;.,.1.1.1.4.4.q.i.i.p.l.i.F.v.c.B.K.Z.k 7 $ > % % # * @ t VXv v v ",
"v v v v 0X,.-.<.=.$XBX`.{ T ) T / / _ _ _ ' ;.L F F 6.a.p.S.&.;.=.:.:.<.1.,.4.t.4.i.t.y.B.z.v.B.F.O.5 7 1 3 1 1 6 , % P.v v v v ",
"v v v v VX} :.=.:.h.vXgXu./ ( / ( / T _ _ _ :.F F P ..l.l.S.e.-.;.=.;.-.1.:.1.1.q.t.4.t.k.k.S.k.l.B , 7 1 3 , , , , : pXv v v v ",
"v v v v v ^.| =.-.=.:XFX|.[ E / / T T / / ( 0.G F F ..A.l.v.*.=.=.=.=.=.=.:.:.1.q.1.t.t.i.l.j.t.x.e , , : : , - , , y VXv v v v ",
"v v v v v cX] =.=.;.0.vXbXx.W E / T U / / / =.H N D &.a.a.S.>.] ] =.=.=.-.=.=.1.<.4.t.i.y.y.u.S.V $ 1 : : , 1 , 2 # 5Xv v v v v ",
"v v v v v v Q.=.=.>.=.!.SXtX7.E U T U U T I e.9.^ ^ 9.A.A.G.u.' ] ] =.=.=.=.=.;.;.t.i.i.4.t.k.z.w $ 2 3 1 1 1 2 < y 4Xv v v v v ",
"v v v v v v 9X] ;.-.;.$.qXAX&X .H U U I E ! /.gX*X.X`.K.D.K.d.W ] ] ] | =.=.=.;.2.4.i.i.q.t.l.P @ 1 2 3 2 7 7 w < 5Xv v v v v v ",
"v v v v v v v s.=.>.=.,.*.uXBX(.} R I U U I O.#X/.@X/.$X.X~.g.W ] ' ] } =.] =.4.4.4.t.t.i.t.j.- @ r 6 < 5 5 0 8 u v v v v v v v ",
"v v v v v v v dXQ %.:.,.] %.qXZX`.5.H J U U H H H J U T T T [ _ W _ } ] ` $.3.4.w.1.t.q.:.y.l . 2 4 8 < q w e 4 pXv v v v v v v ",
"v v v v v v v v #X&.=.$.,.>.<.uXBX.X<.E R R R E I U E T E E / / [ [ _ ' $.t.y.;.<.t.1.w.4.~ X * 8 5 9 0 1 q < I.v v v v v v v v ",
"v v v v v v v v v b.| } =.] ;.=.'.bXgXc./ U H J I I U U / / / / T T ' t.y.<.<.4.1.4.1.q.j.= O q 9 e 2 r q < c v v v v v v v v v ",
"v v v v v v v 7Xv nXO.,.=.;.=.| %.h.uXjXeXV.` T K J J J U U U I _ 0.l.4.;.1.q.,.1.-.1.3.3 . 8 8 e 0 w 9 5 x 4Xv v v v v v v v v ",
"v v v v v v v v v v cX`  .:.$.=.,.=.$.d.$XrXwX&XV.g...^ ^ #.b.V.k.p.3.<.;.1.,.1.2.w.y.0   3 5 e 8 8 9 < r nXv 7Xv v v v v v v v ",
"v v v v v v v v v v v hXW >.{ ;. .$.=.=.=.w.~./.%X%X.X.X}.).l.r.$.;.;.>.:.;.-.<.>.l.a   6 e e 8 0 e 5 x nXv v v v v v v v v v v ",
"v v v v v v v v v v v v cX'  .>.$.=.>.=.$.=.=.| | =.| =.=.=.-.=.;.;.=.1.-.;.<.3.<.8   1 5 w 8 9 8 4 c CXv v v v v v v v v v v v ",
"v v v v v v v v v v v v v xXT.] =.] =.=.=.=.>.=.=.;.-.=.:.=.=.=.,.=.1.>.$.2.4.E # . 3 r 8 p e 5 6 5Xv v v v v v v v v v v v v v ",
"v v v v v v v v v v v v v v CXOX/ 0.1.] $.=.] =.$.=.=.=.=.=.;.=.;.=.| -.2.*.l X # r s p s p 8 C sXZXv v v v v v v v v v v v v v ",
"v v v v v v v v v v v v v v v v sXo.Y =.w. .,.=.$.=.=.;.=.=.*.>.:.1.4.%.B ; @ 6 j g g g d C pXv v v v v v v v v v v v v v v v v ",
"v v v v v v v v v v v v v v v v v v pX+.F / | =.:.1.2.:.2.2.4.4.$.W h & # 0 d n h n C U.xXv v v v v v v v v v v v v v v v v v v ",
"v v v v v v v v v v v v v v v v v v v v zXR.A m G S M M m m z k r q a b A +.T.6XsXhXv v v v v 7Xv v v v v v v v v v v v v v v v ",
"v v v v v v v v v v v v v v v v v v v v v v v 4XsX6XU.I.I.5X5X6XzXxXZXv v v v 7Xv v v v v v v v v v v v v v v v v v v v v v v v ",
"v v v v v v v v v v v v v v v v v v v v v v v v v v v v v v v v v v v v v v v v v v v v v v v v v v v v v v v v v v v v v v v v ",
"v v v v v v v v v v v v v v v v v v v v v v v 7Xv v v v v v v v 7Xv v v v v v v v v v v v v v v v v v v v v v v v v v v v v v v "
};