/* XPM */
static char *_a2f1d98ebe74090aa23dd189ae85c326pvw9S2sFzerRuV8[] = {
/* columns rows colors chars-per-pixel */
"64 64 249 2 ",
"   c #020202",
".  c #0A0101",
"X  c #040902",
"o  c #02020B",
"O  c #0B030B",
"+  c #070A08",
"@  c #110302",
"#  c #180B07",
"$  c #1A120C",
"%  c #060413",
"&  c #160F12",
"*  c #260B08",
"=  c #350D0A",
"-  c #281309",
";  c #371A0A",
":  c #291614",
">  c #371C14",
",  c #33220E",
"<  c #3A2618",
"1  c #3B2F30",
"2  c #4A1808",
"3  c #591B05",
"4  c #451C17",
"5  c #571C13",
"6  c #611C06",
"7  c #48230C",
"8  c #56270A",
"9  c #5C220E",
"0  c #492719",
"q  c #552515",
"w  c #5C2514",
"e  c #532A13",
"r  c #5C2B14",
"t  c #54241C",
"y  c #5B261C",
"u  c #542B1B",
"i  c #5C2B1B",
"p  c #533313",
"a  c #59321B",
"s  c #672708",
"d  c #6B2C0D",
"f  c #782A0C",
"g  c #69330D",
"h  c #78340D",
"j  c #642413",
"k  c #642B14",
"l  c #6C2B14",
"z  c #662518",
"x  c #642C1B",
"c  c #6C2C1B",
"v  c #742C13",
"b  c #7A2D15",
"n  c #722C1C",
"m  c #792C1A",
"M  c #663715",
"N  c #6C3215",
"B  c #63331C",
"V  c #6B331C",
"C  c #6B391D",
"Z  c #743315",
"A  c #7B3314",
"S  c #743916",
"D  c #7C3B13",
"F  c #72331C",
"G  c #7B351C",
"H  c #743A1C",
"J  c #7C3B1B",
"K  c #4C1E24",
"L  c #4B2725",
"P  c #542C24",
"I  c #5B2B24",
"U  c #582827",
"Y  c #493124",
"T  c #5C3322",
"R  c #5A3528",
"E  c #543335",
"W  c #573735",
"Q  c #652D23",
"!  c #6C2D22",
"~  c #682926",
"^  c #642B2B",
"/  c #732D22",
"(  c #762D26",
")  c #643423",
"_  c #6B3323",
"`  c #6C3A23",
"'  c #643429",
"]  c #68352B",
"[  c #6B3A2A",
"{  c #733423",
"}  c #7C3523",
"|  c #743A24",
" . c #7C3B23",
".. c #74352B",
"X. c #7C3429",
"o. c #743B2A",
"O. c #7B3C2A",
"+. c #632A31",
"@. c #683432",
"#. c #783C32",
"$. c #70400F",
"%. c #7B421A",
"&. c #56473B",
"*. c #6C472C",
"=. c #7B4223",
"-. c #784428",
";. c #6B4736",
":. c #7A4836",
">. c #5B5150",
",. c #7D594A",
"<. c #775954",
"1. c #7A655B",
"2. c #7B6666",
"3. c #757271",
"4. c #8A2D0C",
"5. c #83350C",
"6. c #953A08",
"7. c #833414",
"8. c #8A3513",
"9. c #843C15",
"0. c #8B3C14",
"q. c #83351B",
"w. c #8A341B",
"e. c #833C1C",
"r. c #8B3C1B",
"t. c #933C14",
"y. c #9A3B17",
"u. c #933C1B",
"i. c #A93C0C",
"p. c #B83D04",
"a. c #833625",
"s. c #843C23",
"d. c #8A3C23",
"f. c #843C2A",
"g. c #893929",
"h. c #953D23",
"j. c #8B3D32",
"k. c #A03E21",
"l. c #DA3D08",
"z. c #85431D",
"x. c #8B4618",
"c. c #8D431C",
"v. c #974610",
"b. c #954314",
"n. c #94431C",
"m. c #9B441C",
"M. c #994919",
"N. c #A8490B",
"B. c #B64706",
"V. c #A34313",
"C. c #A4441B",
"Z. c #A34A1B",
"A. c #A84818",
"S. c #B54918",
"D. c #A65219",
"F. c #BA541A",
"G. c #844223",
"H. c #8C4323",
"J. c #84432B",
"K. c #8B442A",
"L. c #8B4B28",
"P. c #934424",
"I. c #9A4423",
"U. c #944A23",
"Y. c #9A4B24",
"T. c #93452B",
"R. c #9B442A",
"E. c #944A2B",
"W. c #9A4C2A",
"Q. c #9A5327",
"!. c #884735",
"~. c #974935",
"^. c #87523B",
"/. c #995639",
"(. c #A34C23",
"). c #A54828",
"_. c #B64927",
"`. c #A55226",
"'. c #B95A27",
"]. c #AD4A33",
"[. c #A55A38",
"{. c #B25B36",
"}. c #B2632A",
"|. c #AE6538",
" X c #BC6A39",
".X c #C9490A",
"XX c #D2550E",
"oX c #CA5917",
"OX c #D75615",
"+X c #E35513",
"@X c #C8592B",
"#X c #CD6630",
"$X c #D66A39",
"%X c #C4743A",
"&X c #DA7338",
"*X c #E06F31",
"=X c #804E43",
"-X c #885745",
";X c #935844",
":X c #875B54",
">X c #A65D43",
",X c #9A6448",
"<X c #85665B",
"1X c #9C6850",
"2X c #A76547",
"3X c #B66948",
"4X c #B5714F",
"5X c #A46A57",
"6X c #BC7956",
"7X c #856863",
"8X c #96756B",
"9X c #C36A44",
"0X c #C7794F",
"qX c #D67846",
"wX c #C77959",
"eX c #E27947",
"rX c #34A313",
"tX c #70B261",
"yX c #70B167",
"uX c #AD8A71",
"iX c #B58D75",
"pX c #AB9B73",
"aX c #AE957C",
"sX c #B7947A",
"dX c #D5884F",
"fX c #CF9572",
"gX c #E89770",
"hX c #D5A77A",
"jX c #A07F88",
"kX c #908F8E",
"lX c #AD998B",
"zX c #91BC82",
"xX c #B0ACA9",
"cX c #D09784",
"vX c #D5A791",
"bX c #F0BD97",
"nX c #E9BEA5",
"mX c #ABCB9E",
"MX c #B8CAB4",
"NX c #CFD0AD",
"BX c #EECFB7",
"VX c #AEABC0",
"CX c #E9D6C8",
"ZX c #F7EDD0",
"AX c #FAE8DB",
"SX c #EEDEE3",
"DX c #E9E7E4",
"FX c #F8E8E5",
"GX c #F7F7EF",
/* pixels */
"rXrXrXrXrXrXrXrXrXrXrXrXrXrXrXrXrXrXrXrXrXrXrXrXrXrXrXrXrXrXrXrXrXrXtXrXrXNXrXrXrXrXrXrXrXrXrXrXrXrXrXrXrXrXrXrXrXrXrXrXrXrXrXrX",
"rXrXrXrXrXrXrXrXrXrXrXrXrXrXrXrXrXrXrXrXrXrXrXrXrXrXSXmXCXAXGXSXDXAXrXDXrXDXZXDXFXFXAXtXrXrXrXrXrXrXrXrXrXrXrXrXrXrXrXrXrXrXrXrX",
"rXrXrXrXrXrXrXrXrXrXrXrXrXrXrXrXrXrXrXrXrXrXrXBXBXsXCXcXbXuX'.,XW.wXvX0X{.qXwXvXfX[.3X5XrXrXrXrXrXrXrXrXrXrXrXrXrXrXrXrXrXrXrXrX",
"rXrXrXrXrXrXrXrXrXrXrXrXrXrXrXrXrXrXrXrXrXrXtXfXBXwXAX@Xl.|.h.9XP.XX.X*XB.&X$X).2XG.}.-XrXrXrXrXrXrXrXrXrXrXrXrXrXrXrXrXrXrXrXrX",
"rXrXrXrXrXrXrXrXrXrXrXrXrXrXrXrXrXrXrXrXrXrXyXwXBX4XfX'.i.3XO.6X6X_.k.4X/.uXgX4.-X| U.:.rXrXrXrXrXrXrXrXrXrXrXrXrXrXrXrXrXrXrXrX",
"rXrXrXrXrXrXrXrXrXrXrXrXrXrXrXrXrXrXrXrXrXrXrX2X XL.oXm.L {.F./.%XJ 5 @X{./.#Xv m V s -XrXrXrXrXrXrXrXrXrXrXrXrXrXrXrXrXrXrXrXrX",
"rXrXrXrXrXrXrXrXrXrXrXrXrXrXrXrXrXrXrXrXrXrXrX;Xs h S r.e.c G Z g f.e.5.b A m P 0 R 2 7XrXrXrXrXrXrXrXrXrXrXrXrXrXrXrXrXrXrXrXrX",
"rXrXrXrXrXrXrXrXrXrXrXrXrXrXrXrXrXrXrXrXrXrXrX-Xd (.y 8 U.n J I...A z.Y  .t._ x S F A <.rXrXrXrXrXrXrXrXrXrXrXrXrXrXrXrXrXrXrXrX",
"rXrXrXrXrXrXrXrXrXrXrXrXrXrXrXrXrXrXrXrXrXrXrX>Xm.= o X > W.e.u ).D O o   ' Z.! g x x :XrXrXrXrXrXrXrXrXrXrXrXrXrXrXrXrXrXrXrXrX",
"rXrXrXrXrXrXrXrXrXrXrXrXrXrXrXrXrXrXrXrXrXrXrX^.x 8     0 X.q.u.~ =.; . . B F k 4 E 5 1.rXrXrXrXrXrXrXrXrXrXrXrXrXrXrXrXrXrXrXrX",
"rXrXrXrXrXrXrXrXrXrXrXrXrXrXrXrXrXrXrXrXrXrXrX,.r.e . o < O.w.n.F  .: o   R h [ %.S A ,.rXrXrXrXrXrXrXrXrXrXrXrXrXrXrXrXrXrXrXrX",
"rXrXrXrXrXrXrXrXrXrXrXrXrXrXrXrXrXrXrXrXrXrXrX1Xd.= o o 7 E.s.8 Z.G.O % . ` M.k j 3 w <.rXrXyXrXrXrXrXrXrXrXrXrXrXrXrXrXrXrXrXrX",
"rXrXrXrXrXrXrXrXrXrXrXrXrXrXrXrXrXrXrXmXrXrXrX:.M a o   ; z J ~.x -.=   . i B r Y [ ] ;.VXMXxXxXxXrXrXrXrXrXrXrXrXrXrXrXrXrXrXrX",
"rXrXrXrXrXrXrXrXrXrXrXrXrXrXrXrXrXZXCXfXNXcXFX2X=.i p R ,.;X9.A :./.J.&.4 F ^.^.2.2.,X:.=XkX5X8X:XrXrXrXrXrXrXrXrXrXrXrXrXrXrXrX",
"rXrXrXrXrXrXrXrXrXrXrXrXrXrXrXrXrX XbX XhXp.oX$X>X2 3XdX'.&X/.2 6X$XOXdXF l dX#XoXw.N.g.#X8X4XiX;XrXrXrXrXrXrXrXrXrXrXrXrXrXrXrX",
"rXrXrXrXrXrXrXrXrXrXrXrXrXrXrXrXrX|.lX;.8X{.p.@X9XV. X@Xp.#X{.). XF.B.3X[._.%XS.B.5 Y :X4X,.;X-XT.rXrXrXrXrXrXrXrXrXrXrXrXrXrXrX",
"rXrXrXrXrXrXrXrXrXrXrXrXrXrXrXrXrX!. X/.4X'.y U.%X|.eXm.x _.&X5XeXg.y #X9X4X$Xk F  X[.3X2Xx S } ) rXrXrXrXrXrXrXrXrXrXrXrXrXrXrX",
"rXrXrXrXrXrXrXrXrXrXrXrXrXrXrXrXrXj.D b v J F G S m G O.{ z.4.d 7.A } J D s 0. .7.z.M f } K ] 0 u rXrXrXrXrXrXrXrXrXrXrXrXrXrXrX",
"rXrXrXrXrXrXrXrXrXrXrXrXrXrXrXrXrXJ.x ).J x ].F ' B.F ^ N.g :.W.R u.T.y 0.Y.I h.K.y R.b.P ' S I a rXrXrXrXrXrXrXrXrXrXrXrXrXrXrX",
"rXrXrXrXrXrXrXrXrXrXrXrXrXrXrXrXrXE.c.! -.t.z G.U.e m.h.I o.# @ $ v _ ~.q.k ).m ..v.c } e.x  .C T rXrXrXrXrXrXrXrXrXrXrXrXrXrXrX",
"rXrXrXrXrXrXrXrXrXrXrXrXrXrXrXrXrX~.F 0.D { 9.e.s.D q.d.{ $ o o + # *.b f.=.h S q.s.| 7.o.0 ^ 7 u rXrXrXrXrXrXrXrXrXrXrXrXrXrXrX",
"rXrXrXrXrXrXrXrXrXrXrXrXrXrXrXrXrX=.I y.D ' C.Z v k.N  .F     @ o X C ! h.y.p x.r.I I.6.P ' e.@.u rXrXrXrXrXrXrXrXrXrXrXrXrXrXrX",
"rXrXrXrXrXrXrXrXrXrXrXrXrXrXrXrXrXL.m.I =.C.3 K.U.L H.L.+ . o o O . P W.h v W.Z ..v.j H P.z A r R rXrXrXrXrXrXrXrXrXrXrXrXrXrXrX",
"rXrXrXrXrXrXrXrXrXrXrXrXrXrXrXrXrX^.l L.A ( -.w.J u.Z G.7   o   X o x B -.e./ J.z.{ G.J ^ 0 T y p rXrXrXrXrXrXrXrXrXrXrXrXrXrXrX",
"rXrXrXrXrXrXrXrXrXrXrXrXrXrXrXrXrX!.G r.d.n n.X.{ x.b G.<   .   o X i } D c._ e. .F c.5.[ V e.{ k rXrXrXrXrXrXrXrXrXrXrXrXrXrXrX",
"rXrXrXrXrXrXrXrXrXrXrXrXrXrXrXrXrXE.U.0  .Y.q I.m.L T.h.# X o X     P _.N Q S.N G V.y a.0.L ! r 1 rXrXrXrXrXrXrXrXrXrXrXrXrXrXrX",
"rXrXrXrXrXrXrXrXrXrXrXrXrXrXrXrXpX=.) v.8.^ v.A n U.n f.p   o o .   I ! e.I.Q r.G.L E.c.+.P B y Y rXrXrXrXrXrXrXrXrXrXrXrXrXrXrX",
"rXrXrXrXrXrXrXrXrXrXrXrXrXrXrXrXMX!.A 7.a.f.7. .S D q.J.> .   .   X I O.J q.O.q.O.s.7.s...c G.| c rXrXrXrXrXrXrXrXrXrXrXrXrXrXrX",
"rXrXrXrXrXrXrXrXrXrXrXrXrXrXrXrXrX^.V.] O.n.s z.x.R 0.n.*   % X +   R Y.v { n.Z F v.F f.e.9 d ; 0 rXrXrXrXrXyXrXyXrXrXrXrXrXrXrX",
"rXrXrXrXrXrXrXAXrXSXrXrXAXAXFXrXGX*.~ M.S P U.n m R.z #.e   o .     I Q 9.P.q J.0.u W.r.L L ;.,.&.3.3.3.1 E 1.aXkXxXkXkXkXuXkXDX",
"rXrXrXrXrXCXZXiXgXhXNXgXoXoX'.hXnX2X^.N %.,X2X1XU.d ~.5X^.;XT 7 ^.:X;X2XA A ,X2X[.2Xj =.1X:X<X/.>X;.:X5X-X[.`.^.2.<X:XY.[.k.8XGX",
"rXrXrXrXrXiXgXwXhXdX.X.Xp..XS.*XB.*X%X3 E.eX.X&X/.5 >X&XXXeXW.I 9X$XOX&XG x 0XXX@X0Xl e.qX+XoX!._.-X&X+XM.n.i.v F.XX{.i.q.i.lXGX",
"rXrXrXrXrXuXuX^.<.6XS.k.b { !. Xi.S.wX@X$X3X6.@XwXF.qX`.6.9X0XF.0X`.6.qX@X#X$Xm.i.wX{.#X3Xv.S.;.T :X[.N.M > F L a.N.w U J t ;.xX",
"rXrXrXrXrXiXC.[.~.%Xg Z '.y.W.'.9 #.$X~.3XA.t h.$X-X%XC.5 D.}./.$Xh B '.|.;XoXF { @X|.|.'.r O.'.I d.).t J.0.P H.r.w I.V D r M 1.",
"rXrXrXrXrXsX9 S J ~ J J n S h n G.=.B 7.v { u.G f 7.N { h.{ _ h m O.S M n w.F J r.g d Z f t.a.N =.h ..X.7.{ r.9.h z.S P t x , 2.",
"rXrXrXrXrXiX9 K.k.^ d.x.v h.u.R t.J a P.J ..k.S ] u.) h A.r w.W.N =.b.) ;.q.a x.%.' Y.f.x m.J ! x.| l n.G G n.! s.H.V Y s.{ [ 7X",
"rXrXrXrXrXlX6.z.c D.g F I.k O.N.d } W.z  .x.x ` # o X U P L.z.U (./ ( x .   : U c W.s X.c.k #.Z.s r.E.x 9.b.x L.r.9 [.^ S i q <X",
"rXrXrXrXrXsX3 S r.P f.u._ J.4.' !.w.d P.r.d !.-   +     a 9.A I.f K.a o .     : n.~ G.U.{  .D l d.q.F z.F F W.c G b.V U y a L 2.",
"rXrXrXrXrXiXc f.d.X.8.r.m h.a.C u.s.V 9.7.f.l . X . O   0 { a.0.^ G.> o   % . X  .F u.Z { K.q. .y.` S n.{ o.d.} O.h.H Y 6._ / <X",
"rXrXrXrXrXiX5.A k (.M ) R.l _ ).x S R.p | W.,   X o % . ; ).e.i m.J .       o . V ).Q | M.k O.h.I r.P.j P.d.k c.9.j c.' ^ s Y 7X",
"rXrXrXrXrXiXs d.U.y G.I.w G.u.k Y.5.V K.h ` ` o   . O o 4 { -.n.a J.: X   . X   ..! r.9.c H.A c Q.m g (.m V Q.z | W.j E u u u 7X",
"rXrXrXrXrXiXA G X.e.h.f =...H f. .-.q.X.z.5.I .   X   X > P.A [ 5.J.&     o o O ..D d...J Z s.J / S s.{ O.w.A  .9.%.J.x t.F #.:X",
"rXrXrXrXrXsXZ f.k Y.N | R.Z n T.f } U.l m Z.>   %   o o 0 !. .g R.r.# . X   O . ..I.c H c.F { T.s U.r.k u.G.p I.e.s U.T q r < <X",
"rXrXrXrXrXsX6 G.).t L.n.w U.t.x ]. .e (.8.! #.X   X +   0 ! } (.9 d.: + o     . ] Q Z.e.j (.e.Q Z.Z S D.m ! U.x  .V.I W x _ i <X",
"rXrXrXrXrXiXA q./ m.q.V c.m o.r.k =.U.j H.U.4   . X   . 4 I.4.@.x.d.@ X .   X . { H.F a.L.l q.G._ X.s.c J.e.f s.0.{ H.y c.B [ 7X",
"rXrXrXrXrXiXD G.V s. .G d.J m K.F 7.r.V  .d.7   o o .   4 K.J c 0.r.#   X o   O O.d.o.D D o.r.d.g j.G.l a.z.} d.D c z.R 3 T ; 7X",
"rXrXrXrXrXfX3 e.(.y T.H.w W.G.8 R.9.u _.e.@.s.  . o O   < ] A _.z L.: .   . . o C I i.r.^ C.5.R Z.` d N.{ ] D.u | N.R L | z ! <X",
"rXrXrXrXrXsXJ e.Q Z.n ` Y.d [ M.r { k.x o.b.y -.z.r d.=.u G.c.I U.N ) ~.M M T.M _ Z.V | U.k f.m.i q.T.u d.u.w R.9.k b.B D V a <X",
"rXrXrXrXrXuXZ J J J J 9.s.F r.G e.5. .f.q.{ D D A q.F O.} G f.S | D f.m D e.G d.w.O.%.S H J.w.S e.G u.q. .e.J Z J  .s.R q i > 7X",
"rXrXrXrXrXfX5 r.(.y r.H.9 U.e.r I. .k m.q.k W.A C (.n { `.l Z U.l d.R.B r.t.T h.u.k h.u.l 0.%.+.m.F _ M.Z | Y...D C.p Y 0.~ } 1.",
"rXrXrXyXrXaX8. .u Y.F N Q.j } ).j #.V.i O.V.U d.b.u U.0.w R.8.j ~.r.9 Y.b x (.x C A.~ H y.{  .Z.y r.I.w K.c.9 n.9.k E./ V B 0 7X",
"rXrXrXrXrXsXj e.u._ q.c._ G.r.B K.9.n I.7.l m.F } K.v J L.v =.R.n  .K.m e.H.l z.9.) h.d.) q.A V n.` F n.{ F I.! } t.F P 7 B < 2.",
"rXrXrXrXrXsXj r.u.` q.r.V e.c.B c.z.i M r ' r.e.X.e.d.G e.` Y l 0 { J F e.J { r.e.' p y ' %.f.C 0.[ l r. .{ n.{ q.n.M R r._ o.1.",
"rXrXrXyXrXaXe. .i Y.Z k R.c X.`.c _ : o   > I g.U.8 n.r.~ ' .   @ R ` I.} T A.n _ ;     : U 5.n.I d.I.w K.U.9 m.J r L.~ n r 0 7X",
"rXrXrXrXrXsX8 c.I.y H.U.k U.9.w R.: X @ X o 0 r.I (.l s.s.  + .   o s.v O.0.x E.7   . .   ; -.^ Z.V _ (.d F )._ } )._ Y 8 c 0 7X",
"rXrXrXrXrXaXZ J s.G G 9.G } 8.s._ . o   . o : s.w.` S G.>   o % o . I e. .} %.C # o o %   * #.7.G  .w.A O.e.9.J 7.S z.i K.V { <X",
"rXrXrXrXrXuXH.A [ t.G F R.V B Y.e   o o     - f.r.x c.r.-   .   . X 0 R.J V m.C o   o X   # d.u.l s.c.i r.n.R u.=.l R.I 0 u < <X",
"rXrXrXrXrXfX2 G.b.^ g.E.9 C.t.w !.#         : F ! D.8 !.)   X       ! ^ z.v.u g.- . .   o + [ ] Q._ x D.x ` N.@.[ D.B E b B x <X",
"rXrXrXrXrXaX .s.V U.7.v T.N S m.r           : J.r.l n.f.-   o X O X R H.F  .x._     o     # g.P.l g.e.g T.s.M d.8.! P.I u.~ X.7X",
"rXrXrXrXrXaXm d.{ 9.| v r.| S H.a           - f.e.Z e.J.;   o   o   q H. .m z. .O     X   # s.q.| w. .S d.s.Z s. .d z.a t k < 7X",
"rXrXrXrXrXfX3 G.b.P d.M.u n.i.I !.#     o X $ { c Z.k  .I         . ' x r.b.9 T.# .     . $ | F W./ n `.x N A.! ..V.k z / y E <.",
"rXrXrXrXrXiX| e.~ A.G ^ C.f @.Z.r .         : J.H.z c.K.*   X o +   P W.b N Y./   o o X . # d.H.f -.I.j L.n.x H.9.k ^.- s > 2 >.",
"rXrXrXrXrXaXs  .a.D o.r.7.O.s.H )           : j.H f.S =.4   o   o   i %.s. .S  .O     X   & | S f.S b =.G } -.D A J. .1 ;.-.&.jX",
"rXrXrXrXrXsX3 | d.q G.D e G.7.p o.@     X   $ F x n.s ] t X   . X   P r } r.p #.*       o # _ r G.c c n.x B b.i Z r.e E CXrXzXrX"
};