/* XPM */
static char *_79f9c32169240cbb7a7a531e3e73656DxH9oEiHSD8ROtUe[] = {
/* columns rows colors chars-per-pixel */
"64 64 238 2 ",
"   c #007E00",
".  c #157F03",
"X  c #286D02",
"o  c #217100",
"O  c #2B7B04",
"+  c #2E7A0E",
"@  c #357A04",
"#  c #487A1A",
"$  c #048300",
"%  c #0B8600",
"&  c #058A00",
"*  c #0C8B01",
"=  c #138402",
"-  c #1A8600",
";  c #148B02",
":  c #1B8C02",
">  c #13870D",
",  c #138C0B",
"<  c #1D8C0B",
"1  c #039100",
"2  c #0C9503",
"3  c #0B9A02",
"4  c #0D9B0B",
"5  c #049A00",
"6  c #149302",
"7  c #1C9403",
"8  c #159C03",
"9  c #1C9B04",
"0  c #14930A",
"q  c #1C940C",
"w  c #139B0A",
"e  c #1C9B0B",
"r  c #0A8E14",
"t  c #198E19",
"y  c #159213",
"u  c #1D9613",
"i  c #1E9C13",
"p  c #169B15",
"a  c #228501",
"s  c #238C03",
"d  c #2B8D05",
"f  c #238C0A",
"g  c #2A8E0A",
"h  c #2A8208",
"j  c #328F02",
"k  c #32850B",
"l  c #338E0A",
"z  c #398C0B",
"x  c #3B8206",
"c  c #239403",
"v  c #2B9404",
"b  c #249B03",
"n  c #2C9B05",
"m  c #24940B",
"M  c #2B950A",
"N  c #249B0B",
"B  c #2C9C0C",
"V  c #339504",
"C  c #3A9605",
"Z  c #339C03",
"A  c #3B9C05",
"S  c #34950B",
"D  c #3A940C",
"F  c #339C0B",
"G  c #3A9C0C",
"H  c #228F10",
"J  c #2C8E13",
"K  c #208B19",
"L  c #3E8E13",
"P  c #348313",
"I  c #249413",
"U  c #2C9412",
"Y  c #249B12",
"T  c #2B9C12",
"R  c #2F9A18",
"E  c #339712",
"W  c #3B9613",
"Q  c #349C13",
"!  c #3B9D13",
"~  c #349B1B",
"^  c #3C9C1B",
"/  c #379519",
"(  c #15A104",
")  c #1DA304",
"_  c #1BA904",
"`  c #1CA30B",
"'  c #18A40E",
"]  c #1DA312",
"[  c #1FAC11",
"{  c #18A518",
"}  c #15A614",
"|  c #24A304",
" . c #2CA204",
".. c #2CAA05",
"X. c #24A30B",
"o. c #2CA30C",
"O. c #24AB0C",
"+. c #2CAA0C",
"@. c #33A305",
"#. c #3BA405",
"$. c #32AB05",
"%. c #3BAD06",
"&. c #34A30C",
"*. c #3BA30C",
"=. c #34AB0D",
"-. c #3BAB0C",
";. c #27B008",
":. c #2DB30B",
">. c #3AB102",
",. c #33B20B",
"<. c #3CB30C",
"1. c #32B60B",
"2. c #24A312",
"3. c #2DA313",
"4. c #25AA13",
"5. c #2DAB13",
"6. c #22A519",
"7. c #2DA41A",
"8. c #2FAA18",
"9. c #34A313",
"0. c #3CA413",
"q. c #35AB13",
"w. c #3CAB14",
"e. c #34A31A",
"r. c #3CA41A",
"t. c #35AB1A",
"y. c #3DAC1A",
"u. c #2DB214",
"i. c #2BB018",
"p. c #27B115",
"a. c #34B313",
"s. c #3CB314",
"d. c #3DB913",
"f. c #34B21A",
"g. c #3CB21B",
"h. c #3ABE1A",
"j. c #37B815",
"k. c #2FA923",
"l. c #30A520",
"z. c #34AE22",
"x. c #3DAB22",
"c. c #3FA420",
"v. c #3CBB20",
"b. c #37B224",
"n. c #40870F",
"m. c #428A0B",
"M. c #439B05",
"N. c #44960E",
"B. c #429E0C",
"V. c #429404",
"C. c #4E881A",
"Z. c #578E19",
"A. c #449513",
"S. c #429C12",
"D. c #4A9E14",
"F. c #409D18",
"G. c #4D9717",
"H. c #509B1B",
"J. c #519A13",
"K. c #42A305",
"L. c #4AA106",
"P. c #42AD02",
"I. c #48AC06",
"U. c #43A40D",
"Y. c #4AA30C",
"T. c #42AB0C",
"R. c #4BAB0D",
"E. c #52A708",
"W. c #42B30D",
"Q. c #4BB20E",
"!. c #43BA0E",
"~. c #49B509",
"^. c #52B30D",
"/. c #53B90F",
"(. c #43A513",
"). c #4AA514",
"_. c #43AB14",
"`. c #4BAC14",
"'. c #43A51A",
"]. c #4BA51B",
"[. c #43AB1B",
"{. c #4BAC1B",
"}. c #52A413",
"|. c #53AC14",
" X c #59AD15",
".X c #52A61B",
"XX c #59A61A",
"oX c #53AC1C",
"OX c #5AAD1B",
"+X c #59A016",
"@X c #44B214",
"#X c #4BB314",
"$X c #45BC13",
"%X c #4BBB13",
"&X c #43B21B",
"*X c #4CB41B",
"=X c #45BB1C",
"-X c #4DBB1B",
";X c #53B314",
":X c #59B315",
">X c #52BA13",
",X c #5ABC17",
"<X c #52B41B",
"1X c #5BB31C",
"2X c #53BB1B",
"3X c #5BBB1C",
"4X c #62B21C",
"5X c #62BF16",
"6X c #509C20",
"7X c #45AB23",
"8X c #4CAC21",
"9X c #49A924",
"0X c #53AD22",
"qX c #54AE28",
"wX c #44B322",
"eX c #4BB422",
"rX c #44BA22",
"tX c #4CBB22",
"yX c #49B52B",
"uX c #52B322",
"iX c #5BB420",
"pX c #53BA21",
"aX c #5BBA21",
"sX c #5AB929",
"dX c #60BE28",
"fX c #67BF23",
"gX c #3FC40B",
"hX c #4BC31E",
"jX c #41C41C",
"kX c #58C41B",
"lX c #55C219",
"zX c #53C222",
"xX c #5DC223",
"cX c #5ACD27",
"vX c #5FC32D",
"bX c #61C223",
"nX c #69C628",
"mX c #66D123",
/* pixels */
"iX*Xc Z @X~ X }.9.5.(.9 1 e.#.#X(.Z [.5.-.b 8.{.Z 0.m q.#.F e.}.(.;Xi -._ } >X`.#Xn Y X.q M E 3X_.=.&.k J w O.F q c 9.! 4.- B T ",
"P.&Xt.9 Y s D [.n 6 F T 7 F -.T T | B q._. .9 Z &.B B b `.F 9.S 0.R.v 1X0.5.Q.5.Z 3.3.c B y.V Q.B.&.[.m.x m X.F S c ; r.X.N q 0 ",
">X .p.0 < _.@X0.F % N '.F U. .e e ( c E ).F 6 B 9 y.[.B G 0.9.m M G B.(./ G #.e Y 0 Y M r.T 9.*.B.a F *X{.G 0._.(.0.* B 6 M : 0 ",
"{.n q.; v R.| S.F i t.`.{.n y.6 X.2 s s ].9.e 5.5.#.S R M {.n 7 w.T 0.b =.V 3.d.Y & 0 E r.% g.(.B o.N =X<X9.0.T.y.9 9 t.6 ~ '.n ",
"t.`.0XB y.V v  XV < w./.-.m e.-.Q 6 '.b Q c b 9.w.v V f : &.*.N '.N q.7 %X;Xt.>Xc a.| #.s.9 q.oX6 v.F V Q.o.B ;XrXb e.m 6 N w.G ",
"..Q ).@.N N =.:X<XQ  .mX@.7 ! Z ].6 [.N B X.&.&.G : 0._.w.=Xy.; g | &.v `.nX{.E.*.hX<.o.5.9 9 8Xt._.(.! =.c a  Xb ; [.Q 6 O.=Xn ",
"| N B *.: p.-.|.].G w.Q.F _.0Xm U.9 9.=.q o.@X*Xr.b _.bX#X$.B 7.B 0.A F (.`.q.).w.`.&XM m ; c E '. .[.C.J.0.Y `.n +.8X&.b X.-.| ",
"e g.c 0.$Xd.! 9.! *.-.r.! M.}.y _.O.c &X7 o.P.*._.b ! 4X;Xn 7 9 :.9X_.<.Q B -.d @.;X|.D.B q.-.+.S.%.@.+ G.0.T @Xs.+.#.s._.| F o.",
"l q.=.,.cX|.U.0.V y.&X0._.(.(.+.F N @.T.J f #.{.Q ( G T.@XS 9 n _ @XwX&.q b A s.#Xq 9.).1X;X(.%X3XL.F N w.U.v *.r.c 5 *XU.6 {.9.",
"8XX.b b B `.F _.N 1XU.7 g.n ,.q.F 9.&.#.*.#Xn '.f ; r._.`.S 6._.v /.0.! @.9.B.#XzXb b *. X{.N =._.#.Q S G w.2.q T.0.7 v .X_.=XM.",
"q.b - b M 0.B F Q b -.A _.n -.y.f f ! (.T.-Xv N 9.b w.(.`.F T *X).Y.F.(.s.w.1XA -.b 9.A Z F t.9 &.*.B U *.c & p -.-Xq.F ).w.O.-.",
"&.&.0X'.9.0.n (.E ;.1.*.<X-X_.G < v (.7Xw.9Xf 9 y.$.o.G &. .a &.].0._.P.jXq.;X< 9.O.T `.#.~ N 0 S B.s 7 3.q $ ; _.OX#XOX`.=.: m ",
"y.F XX`.A (.y.G * &X-.&X#.@.-.D.q.#XU.#.#._.T ,.N V e m B X.< m c B q.P.w.+.-.> 0 m 0 9.`.m ; f ~ ! n 7.9.B q +.(.`.*.R.M.w.N q ",
"n w.).`.Z A 0.! E ! V *.9.9 b &.s.@.G *XQ.-.M u q _.5.= e.+.g 2.=.&.R S G E 9.; - 6 l.B y.m e.V F #.&.t.A s 6 @X-.w.F 7 G ! [ B ",
"0.w.{.0.F &Xc 9.N.U c.Z o.6.: q.g.= T [.*.$.B I @.lX-.= a.$.V 5.@X;Xe = ].m e c 0.m N &.b o./ S #X,Xw.n G t.N -.U.F F B 0XJ.X.n ",
"@.b B N q w.b =.3.o L q.; I U -.@.9 y.G W w.<.*.{.K.v I e.$.w.b *.).% e F 6 4 < ;X8Xc  .@.h.m oXnXE.Z ` 9 e.N @.0.b a.@X;X X*.t.",
"`.=.0 %.M H.=.@XT.m.Y XXc s '.[.M a l.X.=.kX;X+.*.&.v 6 '.#.`.q N V.d ).+.N ~ v 0.=.+.3.$ 4 5.^.=.).{.B 7 s w.0.d 7 (.*XT.-.9 Q ",
"w.[./ U.M (.=. ..X(.X.A.E Y Y U (.w.e F F  .@X=._.b F B M *X1X< e _.T.).G c Q (.`.#XA ].T $ ) @X<.7 &X(.q.5.t.G 5.'.N B .X&.* ! ",
"c *.0XOXT w...N z A V r.I u 2 & %.T.2 F.U @.n  ._.e.*Xe.s *._.m q OXM.B 0.#XU.=.-X-XG G '.M 0.V #Xq.w.C n 9.v (...uX9.7 0.[.7 0.",
"C Z T._.: n b f e. .V q.m c -.s.<.`.* S.Y {.- +.(.0.V 7 m @.&.Y f ;X|.0 [.3XT.+.| c 0.(._.w.*.M 0.(.&.5.G D.G F c b _.....<Xc e.",
"eXB T.+.9 s.<.S q.+.-.=.oXN #X%Xo.7X% M.9.0.q c  .! -.B m 9.y.U c 1.=Xy ].@.| B v S '.M @.-X-XF N q.X.2 ~ *.=XN Q c W X.9 '.; = ",
"& z.sXn =.d.>.bX*.G (. .F 0 ~ +.- ~ w L.*Xc y c X.9.w.o.7 uXR.a o.$.&.7 M w.` 7 C F.! w.T.-.U.<Xm 6 =.S 7 | g.= y.].M 9 M q.9 f ",
"9 > `.c n =.-.Q.=.&.].` * r.v B N 2.] R.<X` u *.9 B q.@.= G U.D B `.G N | 2X2.` 0.w.7 F (.U.`.OX3.; S oXF b c 0.#.T.7 q.w.=.+.<X",
":X, Z 9 q.7XM *.].=.G 0 e nX9 &.$.5.9 >X_.X.< &.&.V *.eX7.n =XB B G ].w.$XR.b n G q.b *XG +.+.*.) f / @X@XQ e 5.! X.o.=X .#.=.S.",
"0.N f S zX$._.*.).&.5.c (.8Xl B S.e F -.b ! n +.G 9.m.! ` M ! q.b w.&.$.&.B m M  .b w.fXK.8 B {.O.M OX{.n #.9.5.| ; m 8XS.D r.T ",
"#.<X*.-.#XR.dX-.4X#X%.oXXX=.u.7 q 8 F F N ~ F.G q.+.*.n 8 7.q.,.7 -.<X#.f.e b oXQ e.M  XB.N ! `.3.o.@.(._.-.7 N i.% I y.*.&.7 9 ",
"A R.<.&XA B.0.).U.R.c ! A.: 3.m ; a.@X&.; 7.9.A q.B *X$.6 q 6 +.B b &Xy.wXb [.*.R ; e G F 2.9.@.[.5.( q.*.F 7 N m 3.c n q.@.=.O.",
"E [.#.{.E ; T D./.=Xv _.y.N &.pXV T.%XB ; &.cXkXS S U._.N I 0 6 B e.n : B Z w.@.c $ 2.F &.7 r.$.M +.4 X.Z ^ B q ~ v *X&.(.2X@Xo.",
"T r.G n * , r.n  X&.c ].N ( 6 2X/ _.s.w.pXI.Q.T.M 9 *._.o.I Y 7 e N r.v 7 q.w.=XU.0.a.F n B G Q.M &.- ; n 7Xc q Q #.kX*X`.U.U.E ",
"^ 7 &XF 9 B eX$.t.q.: I ~ 8.9 T P ^ 7 #.,XQ._.3.tX( #.`.-X[.).`.; : 0.0.M B 9.B #X#.=X_.q.rX].hXq.[.^ F c y.M N N s.-.#.`._.c T ",
"F n @._.w.7 q.*.) #X#.c M V n X.z a T ).T.@.qX* T.& M G _.A G 0X*.*Xs.$.U.! b ; &.0.n w...8 [.c q.*.<XsXA w.q.O.7 N @X#X`.w.M 7 ",
"..oX|.(.w.M : S :X(.(.-.q.U ~ 2 q.5.c oX(.E G.Z F % > I B &.6 B -X#.R.<X_.*.c e.E '.s w.O.e Q w.Q.&.#.OXB.<.5.( U m {.^.3XF Q | ",
"*.0.`.0.0.M 3 ` {.E <.5X-.m ^ & | &.Q B ! S.0. .Z F B D Q [.: e j.q. .=.-.U.B.(.f.G 6 F  .o.c *.U n @.c w.(.c $ S 9.y.A }.I.n K ",
"G 5.U.*.b @.$ ' +.G &.&X-.0 t.#XN 9.o.9 s.=.q.X.f.q 9.D 5.O.8 q B F M B 8.q.'.(.#.@.W qX`.B I f T F U.pX#XG - I 6 q.=.B 0.@X-.S ",
"E T &X@.9.w.% m q.U.E N {.U.7 <X@.eXc 6 t.[.Z -X .e.n (.( 3 v.G : / S M 6 b &.W.o.` O ].&X6 ; o.B Q `.|.T.&.Q ].jXW. .b N [.B.C ",
"&.f 9.7 ! -.q b ].(.8X-.!.|.M 3.T 3.&.+.=.G C 0.G n c 5.9 -.eXU.n (.)._.w.b -.!.a.3 m Q Z 9.m R b e w.R.R.b N {.!. .g.c V (.S.F ",
"@X7 b s m o.G <.@Xb A =._ =.g.% b B &X,.n &.N ` y.M +.[ o.*X].+.9 w.A 3XoXOX*.=.f c 2 U K.;X-X*Xe.N N T.3X{.v V e % z.Q -.=.$.=.",
"$XB b e.m w.(.%X<.-._.5.0 v _.E b s.[.B m 8Xn q.e e.A o.V ).! 9 e B s (.U.OXS < G oX' q -.U.c g.B w.*X&.&X).! +.i ; 0.|.*.6 X.w.",
"=.! X.q.F &.&.-._.E.=XN m D C Q c m wXc F B..XV - F _.w.x G F M.w.F Q n !.P.T.9.m Q 2.0 a.R.s._ q F (.c eX*.F B 7 G |.`.v = Y _.",
"M Q q.v 0. .E e ~ L.`.X.9 B F.+.9.B 3.; N M *X@X8X7 1.q.].s.0.1XT.G / q.1.jXW.pXt.6 j % y.|.(.w N y.n : 9.u.9 B s.M E +.X.B F w.",
"F X.* I ] N 0.v U s D E ; b.w.B a.3.(.U.D.6 -.#X$XX.B =.-.(.B -.q.M.R.B 0.{.S !.$X8 d c 0.].b M s.r.'.B 8 {   9.>X_ f I n @X9 E ",
"h.X.% 3.m = 5.s.w E b 7 : B `.&.&.S w.tX{.X. .].&.r.g M =.F T E ~ -.R.[.7 v /  .M $.q.d.-.E y.A [.v _.b u % B T.@X;.rXI @.(.o.*X",
"*X8X7 i.o.e i.9 +.0.G g.@.v X.n D.v ].=.6.` G m U.m < s _.Y.E i < w._.b F @.N n M 3Xv.1 @Xy.=.C ).B.w.M T T '.(.m $.:XB +.0.&.:X",
"}.m.d  .q.wX6 +.`.7 7.).y.` 5.| ).A.! &.3 q.D 3._.9.s =XT.fX_.B : 0 @.8XF +.f g./ W.N w +.$.a.W |.E m B _.(.0.q.N &XM.Q 7 E n K.",
"-.r.! (.M ! a t._.; N S.*.7.T n B x G a.b 0.Z 9.~ n q.&.G <X(.Z 3.0 v {.@.&.F q.F $.N q.q B $.I M N q.%XU.S.M | _.y.N X.A H./ @X",
"9.w.0.N ; [.M ` G 7XU b s {.X.c 4.L 0.&X'.).T.n U y.) o.S ! )._.o.m <XZ c #.[.9.B *X5.c U 7.V Y 9.q.a. .`.<XB % -.6 p 6 #.W P S.",
"@.<X-.e * c M e 0.A.- 0 &.@.F g.N r.n G N (.(.: 2.G n c 6.X.U.oXT.; oXU.2 w..X9 M {.6 o.9.u ! 0.#Xo.N : %X#.@.7. .* y 7 $XQ ^ }.",
"X.>XT.0 r.).*.T B ` 9 e 5.#XR.D.6 Q 5.F 3.v w.I -.-.o.N X.1.K.`. .9.(.B 6.@.! = B C 0 8 2Xc 9.j ^.F 9.rX_.E F R.F.m $ o.@X+.t.#.",
"E $._.S =.w.D.' q { ..2XN 7XM ( 6.B =.c e.; ].F F U.$.-.`.U.].o.`.T.#X-.d.@.3.M Q &.&.s _.[.c e c e.v }.1Xy.; Q (.(.c G E yXV ` ",
"U.#.q.*Xs.| m.9 O.7 n {._.Q.n 9 e p.5.#.A [.B |.T M w.V uXG #.h._.7 t.0 2.B c [.oX*.Q 9.-.A G {.0.q e w.#XA n n F ! W T 0.:Xn 5.",
"3X(.X.#Xq.Y H.c ) a (.].}.kX9 a.c & 3.B _..Xw.#X; 3.f.= r.q.=.| ` w < I : 9.b 9.*.0.M -.T.*X*X*.[.: 9.@X-.c y.0Xy.v G 9._.,X<.0.",
"#Xw.F `.B ! oX&.; (.).0.U.&X; [.F.M T ` X.G F M _. .p.m m e c M ` ` c Q S.).9.b s r.B #._.*XQ.A -.&.0.-.=.o.B F w.9 s.;X#.+.! (.",
"_.B v <Xs (.U.0.n vX(.&.#. .< F ].aXq.N N @.(.U 0.s.8 m q 0 7Xv t.7 c &.F S t.c 0.~ +.a.8.n Z .X*.E g (.pX(.7 ) &.2.f.R.&.w s *.",
"].V &.[.Q =.K.S.T.@X!. .| $.'.R.$.~.~.=.0.#.`.3.M 9.7 b T N [.$.*.N 0 p 2 m B M M 9.y.q ; =.@X0.G D z (.{.G c a.+.Y f X.%.{.=.U.",
"n F tX[.@X+.B G F 7 $.| N &XoX`.jXQ.Q.zX_.n 0.o.7 y.o.o.5.; @.&.(.7 b.2 e y.b 9.N b S g n &.w.y.:.y.E c 7 N Y 8 B M f 0 b |.zXq.",
"o.+.B.).A @.e w.b t , q Q ;X<Xv XX[.*.;X0.$ p U.9.(.o.8 X.X.F.[.].; o.-.v 2Xq.b (.! a b s.5.f #.9 m q 6 9 r.9.+.S @X=.f f T.:X .",
"*.*XY.(._.K.B.i <XS k c @.^ u C Z. .9.r.b B 5.G X.G v u y N Z s.9.7 t.).v <XM 7 m (.q Z  Xq.2 Y < 6 d F.7 < T *.Y.G # # N O.).F ",
"w.#._.].U.#X@X- _.3X(.d y.m N -XV < D F ; w.Z T (.! C E c B 7 e.(.+.e.`.B @XF B < pX&XZ (.B w. .n f g d q q c Q._.T.L A.@X$.*.{.",
"M S (.F -.xX_.7 A -.3.< Y e '.6 w.N ! s o.-.M B G F OXU.F ! Q S {.&.B -.X.#.e.o.m  .=.Y.(.E nX .*X8XB 7XF i s.%XZ R.F @.;X_.w.@.",
"X.V w.N n {._.c 0.F 2 m N b ! q -.8.q U 0.-.m b a.b 0X*.G @ / ).G _.y.2X .T.9.c _.` e F.`.<.R.{.n _.N y.0.9 g.Z 0.;X0.o.U.s e.F ",
"q.{.o.b F c B F 2XQ ; 5.T.R.F ^ G 3.$ B 9.m _.R X.2.W +.0.@ M &Xw.A w.R.tX@XN 7 2X2.q f *.!.Z [.@.&.9.b _.c 2.S *.dX(.Q 9.I N &X",
"$.pXw.; B r.v '.#.U T a.n ;X9.O N.o.& b c ; o.9.< t.v c =X/ N T @XZ c v tX(.6 e F - m N 9._.q.F q.o.w.-._.G 7 g U.P.q.c *Xr.@.:.",
"<.A *Xb 6 7X! @XF R F 9 q y.F h S d.b 0XF ] s R.0.y.b ; y.F b B W.3XB -.: (.; m v M T.5.y.G T `.w.B n uXU.-.e.+.oX#.* X.Z 0.7 b ",
"`.B [.@Xo.m V W.d s.%X: r e %.*X_ 0.^.Y.z.7 S.>X=.T.=.T m (.R.q.,X`.3.9.= n Y Q ].5.<.M M v : R.G B M N.U.+.-.:.y &X< q  .e 0 f "
};
