/* XPM */
static char *pompe_a_carburant[] = {
/* columns rows colors chars-per-pixel */
"64 64 143 2 ",
"   c #2F3B57",
".  c #223B59",
"X  c #243B59",
"o  c #283B58",
"O  c #2A3A58",
"+  c #2D3B58",
"@  c #353A58",
"#  c #3B3B58",
"$  c #4E3B57",
"%  c #443B58",
"&  c #453D59",
"*  c #513F59",
"=  c #6B3A55",
"-  c #6D3A55",
";  c #7B3955",
":  c #783A55",
">  c #7F3C56",
",  c #65485D",
"<  c #6E4E62",
"1  c #745466",
"2  c #7B5968",
"3  c #7B6670",
"4  c #7D6D74",
"5  c #7F6D74",
"6  c #7E7275",
"7  c #7E7E7E",
"8  c #873954",
"9  c #923954",
"0  c #9B3953",
"q  c #9E3953",
"w  c #A43953",
"e  c #AE3952",
"r  c #B53951",
"t  c #BD3951",
"y  c #C33851",
"u  c #CA3851",
"i  c #D43850",
"p  c #DA3850",
"a  c #DE3D52",
"s  c #DC3E53",
"d  c #DA3F54",
"f  c #E2384F",
"g  c #E5384F",
"h  c #E23A50",
"j  c #E43950",
"k  c #E03C52",
"l  c #89465C",
"z  c #AB5F69",
"x  c #AC5F69",
"c  c #B75663",
"v  c #BF5260",
"b  c #BB5561",
"n  c #B95663",
"m  c #B35B66",
"M  c #B55965",
"N  c #9E696F",
"B  c #956E73",
"V  c #936F74",
"C  c #946F74",
"Z  c #9B6B71",
"A  c #986C72",
"S  c #8D7377",
"D  c #8C7477",
"F  c #88777A",
"G  c #80787A",
"H  c #86787A",
"J  c #847A7B",
"K  c #837B7C",
"L  c #817D7D",
"P  c #917176",
"I  c #A7626B",
"U  c #A4646D",
"Y  c #A4656D",
"T  c #CF475A",
"R  c #C34F5F",
"E  c #C54D5E",
"W  c #CE485A",
"Q  c #C84B5C",
"!  c #D54356",
"~  c #D24557",
"^  c #D44457",
"/  c #D84155",
"(  c #D04658",
")  c #C2505F",
"_  c #C05160",
"`  c #F6BA07",
"'  c #FBBD02",
"]  c #FDBE00",
"[  c #F8BB05",
"{  c #F2B80B",
"}  c #EDB610",
"|  c #D7AA27",
" . c #D9AC24",
".. c #D0A72C",
"X. c #D2A82A",
"o. c #C7A336",
"O. c #C4A139",
"+. c #B79B46",
"@. c #BC9D40",
"#. c #A69256",
"$. c #8E866F",
"%. c #968A66",
"&. c #998B64",
"*. c #91876B",
"=. c #93896A",
"-. c #958A68",
";. c #868276",
":. c #8C8570",
">. c #82807A",
",. c #7E7F80",
"<. c #7F8082",
"1. c #808182",
"2. c #808285",
"3. c #818488",
"4. c #82868C",
"5. c #83888E",
"6. c #96808C",
"7. c #848A91",
"8. c #848C95",
"9. c #868F99",
"0. c #86909B",
"q. c #8893A0",
"w. c #8894A2",
"e. c #8996A4",
"r. c #8A98A8",
"t. c #8C9CAE",
"y. c #AD87A1",
"u. c #AA8DA7",
"i. c #A591A9",
"p. c #AA91AC",
"a. c #8FA2B7",
"s. c #8FA4BC",
"d. c #91A7C0",
"f. c #91A8C1",
"g. c #92AAC4",
"h. c #94ACC6",
"j. c #95B0CE",
"k. c #97B4D4",
"l. c #98B7D8",
"z. c #9ABBDF",
"x. c #9BBCE1",
"c. c #9BBEE4",
"v. c #9CBFE6",
/* pixels */
"7 7 7 7 7 7 7 7 7 7 7 7 7 7 7 7 7 7 7 7 7 7 7 7 7 7 7 7 7 7 7 7 7 7 7 7 7 7 7 7 7 7 7 7 7 7 7 7 7 7 7 7 7 7 7 7 7 7 7 7 7 7 7 7 ",
"7 7 7 7 7 7 7 7 7 7 7 7 7 7 7 7 7 7 7 7 7 7 7 7 7 7 7 7 7 7 7 7 7 7 7 7 7 7 7 7 7 7 7 7 7 7 7 7 7 7 7 7 7 7 7 7 7 7 7 7 7 7 7 7 ",
"7 7 7 7 7 7 7 7 7 7 7 7 7 7 7 7 7 7 7 7 7 7 7 7 7 7 7 7 7 7 7 7 7 7 7 7 7 7 7 7 7 7 7 7 7 7 7 7 7 7 7 7 7 7 7 7 7 7 7 7 7 7 7 7 ",
"7 7 7 7 7 7 7 7 7 7 7 7 7 7 7 7 7 7 7 7 7 7 7 7 7 7 7 7 7 7 7 7 7 7 7 7 7 7 7 7 7 7 7 7 7 7 7 7 7 7 7 7 7 7 7 7 7 7 7 7 7 7 7 7 ",
"7 7 7 7 7 7 7 7 7 7 7 7 7 7 7 7 7 7 7 7 7 7 7 7 7 7 7 7 7 7 7 7 7 7 7 7 7 7 7 7 7 7 7 7 7 7 7 7 7 7 7 7 7 7 7 7 7 7 7 7 7 7 7 7 ",
"7 7 7 7 7 7 7 7 7 7 7 7 7 7 7 7 7 7 7 7 7 7 7 7 7 7 7 7 7 7 7 7 7 7 7 7 7 7 7 7 7 7 7 7 7 7 7 7 7 7 7 7 7 7 7 7 7 7 7 7 7 7 7 7 ",
"7 7 7 7 7 7 7 7 7 7 7 7 7 7 7 7 7 7 7 7 7 7 7 7 7 7 7 7 7 7 7 7 7 7 7 7 7 7 7 7 7 7 7 7 7 7 7 7 7 7 7 7 7 7 7 7 7 7 7 7 7 7 7 7 ",
"7 7 7 7 7 7 7 7 7 7 7 7 7 7 7 7 7 7 7 7 7 7 7 7 7 7 7 7 7 7 7 7 7 7 7 7 7 7 7 7 7 7 7 7 7 7 7 7 7 7 7 7 7 7 7 7 7 7 7 7 7 7 7 7 ",
"7 7 7 7 7 7 7 7 7 7 7 7 7 7 7 7 7 7 7 7 7 7 7 7 7 7 7 7 7 7 7 7 7 7 7 7 7 7 7 7 7 7 7 7 7 7 7 7 7 7 7 7 7 7 7 7 7 7 7 7 7 7 7 7 ",
"7 7 7 7 7 7 7 7 7 7 7 7 7 7 7 7 7 7 7 7 7 7 7 7 7 7 7 7 7 7 7 7 7 7 7 7 7 7 7 7 7 7 7 7 7 7 7 7 7 7 7 7 7 7 7 7 7 7 7 7 7 7 7 7 ",
"7 7 7 7 7 7 7 7 7 7 7 1.k.x.g.e.2.7 7 7 7 7 7 7 7 7 7 7 7 7 7 7 7 7 7 7 7 7 7 7 7 7 7 7 7 7 7 7 7 7 7 7 7 7 7 7 7 7 7 7 7 7 7 7 ",
"7 7 7 7 7 7 7 7 7 7 7 q.v.v.v.v.v.j.t.5.7 7 7 7 7 7 7 7 7 7 7 7 7 7 7 7 7 7 7 7 7 7 7 7 7 7 7 7 7 7 7 7 7 7 7 7 7 7 7 7 7 7 7 7 ",
"7 7 7 7 7 7 7 7 7 7 7 f.v.v.v.v.v.v.v.v.l.a.8.7 7 7 7 7 7 7 7 7 7 7 7 7 7 7 7 7 7 7 7 7 7 7 7 7 7 7 7 7 7 7 7 7 7 7 7 7 7 7 7 7 ",
"7 7 7 7 7 7 7 7 7 7 ,.x.v.v.v.v.v.v.v.v.v.v.v.z.s.0.,.7 7 7 7 7 7 7 7 7 7 7 7 7 7 7 7 7 7 7 7 7 7 7 7 7 7 7 7 7 7 7 7 7 7 7 7 7 ",
"7 7 7 7 7 7 7 7 7 7 3.v.v.v.v.v.v.v.v.v.v.v.v.v.v.v.x.w.,.7 7 7 7 7 7 7 7 7 7 7 7 7 7 7 7 7 7 7 7 7 7 7 7 7 7 7 7 7 7 7 7 7 7 7 ",
"7 7 7 7 7 7 7 7 7 7 7 w.j.v.v.v.v.v.v.v.v.v.v.v.v.v.v.v.s.<.7 7 7 7 7 7 7 7 7 7 7 7 7 7 7 7 7 7 7 7 7 7 7 7 7 7 7 7 7 7 7 7 7 7 ",
"7 7 7 7 7 7 7 7 7 7 7 7 7 2.w.d.z.v.v.v.v.v.v.v.v.v.v.v.v.k.7.7 7 7 7 7 7 7 K 7 7 7 7 7 7 7 7 7 7 7 7 7 7 7 7 7 7 7 7 7 7 7 7 7 ",
"7 7 7 7 7 7 7 7 7 7 7 7 7 7 7 7 ,.9.a.k.v.v.v.v.v.v.v.v.v.v.c.6.7 7 7 7 7 S s I 7 7 7 7 7 7 7 7 7 7 7 7 7 7 7 7 7 7 7 7 7 7 7 7 ",
"7 7 7 7 7 7 7 7 7 7 7 7 7 7 7 7 7 7 7 7 4.r.h.c.v.v.v.v.v.v.y.j T S 7 7 7 Q g g ( B 7 7 7 7 7 7 7 7 7 7 7 7 7 7 7 7 7 7 7 7 7 7 ",
"7 7 7 7 7 7 7 7 7 7 7 7 7 7 7 7 7 7 7 7 7 7 7 2.d.v.v.v.v.u.h j g g M K N g g g g g _ J 7 7 7 7 7 7 7 7 7 7 7 7 7 7 7 7 7 7 7 7 ",
"7 7 7 7 7 7 7 7 7 7 7 7 7 7 7 7 7 7 7 7 7 7 7 7 7 r.c.c.p.h g g g g g ! d j g g g g g a I 7 7 7 7 7 7 7 7 7 7 7 7 7 7 7 7 7 7 7 ",
"7 7 7 7 7 7 7 7 7 7 7 7 7 7 7 7 7 7 7 7 7 7 7 7 7 7 8.i.h g g g g g g g g g g g g g g g g T P 7 7 7 7 7 7 7 7 7 7 7 7 7 7 7 7 7 ",
"7 7 7 7 7 7 7 7 7 7 7 7 >.7 7 7 7 7 7 7 7 7 7 7 7 7 7 Y j g g g g g g g g g g g g g g g g g h c L 7 7 7 7 7 7 7 7 7 7 7 7 7 7 7 ",
"7 7 7 7 7 7 7 7 7 7 7 &. .7 7 7 7 7 7 7 7 7 7 7 7 7 7 K h g g g g g g g g g g g g g g g g g g ~ 7 7 7 7 7 7 7 7 7 7 7 7 7 7 7 7 ",
"7 7 7 7 7 7 7 7 7 7 ;.} ] +.7 7 7 7 7 7 7 7 7 7 7 7 7 7 _ j g g g g g g g g g g g g g g g g h Z 7 7 7 7 7 7 7 7 7 7 7 7 7 7 7 7 ",
"7 7 7 7 7 7 7 7 7 7 O.] ] [ $.7 7 7 7 7 7 7 7 7 7 7 7 7 A g g g g g g g g g g g g g g g g g T 7 7 7 7 7 7 7 7 7 7 7 7 7 7 7 7 7 ",
"7 7 7 7 7 7 7 7 7 *.' ] ] ] ..7 7 7 7 7 7 7 7 7 7 7 7 7 7 / g g g g g g g g g g g g g g g g C 7 7 7 7 7 7 7 7 7 7 7 7 7 7 7 7 7 ",
"7 7 7 7 7 7 7 7 7 o.] ] ] ] ' :.7 7 7 7 7 7 7 7 7 7 7 7 7 m g g g g g g g g g g g g g g g g I 7 7 7 7 7 7 7 7 7 7 7 7 7 7 7 7 7 ",
"7 7 7 7 7 7 7 7 >.` ] ] ] ] ] @.7 7 7 7 7 7 7 7 7 7 7 7 7 D g g g g g g g g g g g g g g g g h S 7 7 7 7 7 7 7 7 7 7 7 7 7 7 7 7 ",
"7 7 7 7 7 7 7 7 -.] ] ] ] ] ] | 7 7 7 7 7 7 7 7 7 7 7 7 7 7 W g g g g g g g g g g g g g g g g ( L 7 7 7 7 7 7 7 7 7 7 7 7 7 7 7 ",
"7 7 7 7 7 7 7 7 ;.] ] ] ] ] ] o.7 7 7 7 7 7 7 7 7 7 7 7 7 7 I g g g g g g g y 9 0 i g g g g g g m 7 7 7 7 7 7 7 7 7 7 7 7 7 7 7 ",
"7 7 7 7 7 7 7 7 7 X.] ] ] ] ' %.7 7 7 7 7 7 7 7 7 7 7 7 7 7 J k g g g g g : . . . + e g g g g g h V 7 7 7 7 7 7 7 7 7 7 7 7 7 7 ",
"7 7 7 7 7 7 7 7 7 ;.X.] ] { #.7 7 7 7 7 7 7 7 7 7 7 7 7 7 7 7 ) g g g g w . . . . . + u g g g g g ! J 7 7 7 7 7 7 7 7 7 7 7 7 7 ",
"7 7 7 7 7 7 7 7 7 7 7 ;.*.7 7 7 7 7 7 7 7 7 7 7 7 7 7 7 7 7 7 Z g g g g l o . . . . . $ f g g g g g n 7 7 7 7 7 7 7 7 7 7 7 7 7 ",
"7 7 7 7 7 7 7 7 7 7 7 7 7 7 7 7 7 7 7 7 7 7 7 7 7 7 7 7 7 7 7 L d g g g N 5 * . . . . . 8 g g g g g g Z 7 7 7 7 7 7 7 7 7 7 7 7 ",
"7 7 7 7 7 7 7 7 7 7 7 7 7 7 7 7 7 7 7 7 7 7 7 7 7 7 7 7 7 7 7 7 M g g g m 7 7 2 @ . . . X t g g g g g d J 7 7 7 7 7 7 7 7 7 7 7 ",
"7 7 7 7 7 7 7 7 7 7 7 7 7 7 7 7 7 7 7 7 7 7 7 7 7 7 7 7 7 7 7 7 S g g g ! 7 7 7 6 + . . . % a g g g g g E 7 7 7 7 7 7 7 7 7 7 7 ",
"7 7 7 7 7 7 7 7 7 7 7 7 7 7 7 7 7 7 7 7 7 7 7 7 7 7 7 7 7 7 7 7 7 T g g g B 7 7 7 1 . . . X : g g g g g g U 7 7 7 7 7 7 7 7 7 7 ",
"7 7 7 7 7 7 7 7 7 7 7 7 7 7 7 7 7 7 7 7 7 7 7 7 7 7 7 7 7 7 7 7 7 z g g g b 7 7 7 7 * X . . X r g g g g g h H ,.7 7 7 7 7 7 7 7 ",
"7 7 7 7 7 7 7 7 7 7 7 7 7 7 7 7 7 7 7 7 7 7 7 7 7 7 7 7 7 7 7 7 7 J h g g a K 7 7 7 5 o . . . # p g g g g g W L 7 7 7 7 7 7 7 7 ",
"7 7 7 7 7 7 7 7 7 7 7 7 7 7 7 7 7 7 7 7 7 7 7 7 7 7 7 7 7 7 7 7 7 7 E g g g Y 7 7 7 7 < . . . . - g g g g g g z 7 7 7 7 7 7 7 7 ",
"7 7 7 7 7 7 7 7 7 7 7 7 7 7 7 7 7 7 7 7 7 7 7 7 7 7 7 7 7 7 7 7 7 7 N g g g E 7 7 7 7 7 & . . . . w g g g g g h P 7 7 7 7 7 7 7 ",
"7 7 7 7 7 7 7 7 7 7 7 7 7 7 7 7 7 7 7 7 7 7 7 7 7 7 7 7 7 7 7 7 7 7 L d g g g F 7 7 7 7 3 X . . . = g g g g g g ( L 7 7 7 7 7 7 ",
"7 7 7 7 7 7 7 7 7 7 7 7 7 7 7 7 7 7 7 7 7 7 7 7 7 7 7 7 7 7 7 7 7 7 7 c g g g x 7 7 7 7 7 , . @ q g g g g g g g g M 7 7 7 7 7 7 ",
"7 7 7 7 7 7 7 7 7 7 7 7 7 7 7 7 7 7 7 7 7 7 7 7 7 7 7 7 7 7 7 7 7 7 7 P g g g ~ 7 7 7 7 7 G > p g g g g g g g g g ! K 7 7 7 7 7 ",
"7 7 7 7 7 7 7 7 7 7 7 7 7 7 7 7 7 7 7 7 7 7 7 7 7 7 7 7 7 7 7 7 7 7 7 7 ~ g g g P 7 7 7 V ( g g g g g / g g g g ) K 7 7 7 7 7 7 ",
"7 7 7 7 7 7 7 7 7 7 7 7 7 7 7 7 7 7 7 7 7 7 7 7 7 7 7 7 7 7 7 7 7 7 7 7 z g g g b 7 J n g g g g g a I 7 ~ g h I 7 7 7 7 7 7 7 7 ",
"7 7 7 7 7 7 7 7 7 7 7 7 7 7 7 7 7 7 7 7 7 7 7 7 7 7 7 7 7 7 7 7 7 7 7 7 F j g g h v / g g g g g E F 7 7 P ^ P 7 7 7 7 7 7 7 7 7 ",
"7 7 7 7 7 7 7 7 7 7 7 7 7 7 7 7 7 7 7 7 7 7 7 7 7 7 7 7 7 7 7 7 7 7 7 7 7 E g g g g g g g g s Y 7 7 7 7 7 7 7 7 7 7 7 7 7 7 7 7 ",
"7 7 7 7 7 7 7 7 7 7 7 7 7 7 7 7 7 7 7 7 7 7 7 7 7 7 7 7 7 7 7 7 7 7 7 7 7 Y g g g g g g g ) H 7 7 7 7 7 7 7 7 7 7 7 7 7 7 7 7 7 ",
"7 7 7 7 7 7 7 7 7 7 7 7 7 7 7 7 7 7 7 7 7 7 7 7 7 7 7 7 7 7 7 7 7 7 7 7 7 7 / j g g g d Z L 7 7 7 7 7 7 7 7 7 7 7 7 7 7 7 7 7 7 ",
"7 7 7 7 7 7 7 7 7 7 7 7 7 7 7 7 7 7 7 7 7 7 7 7 7 7 7 7 7 7 7 7 7 7 7 7 7 7 P ( g j b J 7 7 7 7 7 7 7 7 7 7 7 7 7 7 7 7 7 7 7 7 ",
"7 7 7 7 7 7 7 7 7 7 7 7 7 7 7 7 7 7 7 7 7 7 7 7 7 7 7 7 7 7 7 7 7 7 7 7 7 7 7 7 K K 7 7 7 7 7 7 7 7 7 7 7 7 7 7 7 7 7 7 7 7 7 7 ",
"7 7 7 7 7 7 7 7 7 7 7 7 7 7 7 7 7 7 7 7 7 7 7 7 7 7 7 7 7 7 7 7 7 7 7 7 7 7 7 7 7 7 7 7 7 7 7 7 7 7 7 7 7 7 7 7 7 7 7 7 7 7 7 7 ",
"7 7 7 7 7 7 7 7 7 7 7 7 7 7 7 7 7 7 7 7 7 7 7 7 7 7 7 7 7 7 7 7 7 7 7 7 7 7 7 7 7 7 7 7 7 7 7 7 7 7 7 7 7 7 7 7 7 7 7 7 7 7 7 7 ",
"7 7 7 7 7 7 7 7 7 7 7 7 7 7 7 7 7 7 7 7 7 7 7 7 7 7 7 7 7 7 7 7 7 7 7 7 7 7 7 7 7 7 7 7 7 7 7 7 7 7 7 7 7 7 7 7 7 7 7 7 7 7 7 7 ",
"7 7 7 7 7 7 7 7 7 7 7 7 7 7 7 7 7 7 7 7 7 7 7 7 7 7 7 7 7 7 7 7 7 7 7 7 7 7 7 7 7 7 7 7 7 7 7 7 7 7 7 7 7 7 7 7 7 7 7 7 7 7 7 7 ",
"7 7 7 7 7 7 7 7 7 7 7 7 7 7 7 7 7 7 7 7 7 7 7 7 7 7 7 7 7 7 7 7 7 7 7 7 7 7 7 7 7 7 7 7 7 7 7 7 7 7 7 7 7 7 7 7 7 7 7 7 7 7 7 7 ",
"7 7 7 7 7 7 7 7 7 7 7 7 7 7 7 7 7 7 7 7 7 7 7 7 7 7 7 7 7 7 7 7 7 7 7 7 7 7 7 7 7 7 7 7 7 7 7 7 7 7 7 7 7 7 7 7 7 7 7 7 7 7 7 7 ",
"7 7 7 7 7 7 7 7 7 7 7 7 7 7 7 7 7 7 7 7 7 7 7 7 7 7 7 7 7 7 7 7 7 7 7 7 7 7 7 7 7 7 7 7 7 7 7 7 7 7 7 7 7 7 7 7 7 7 7 7 7 7 7 7 ",
"7 7 7 7 7 7 7 7 7 7 7 7 7 7 7 7 7 7 7 7 7 7 7 7 7 7 7 7 7 7 7 7 7 7 7 7 7 7 7 7 7 7 7 7 7 7 7 7 7 7 7 7 7 7 7 7 7 7 7 7 7 7 7 7 ",
"7 7 7 7 7 7 7 7 7 7 7 7 7 7 7 7 7 7 7 7 7 7 7 7 7 7 7 7 7 7 7 7 7 7 7 7 7 7 7 7 7 7 7 7 7 7 7 7 7 7 7 7 7 7 7 7 7 7 7 7 7 7 7 7 ",
"7 7 7 7 7 7 7 7 7 7 7 7 7 7 7 7 7 7 7 7 7 7 7 7 7 7 7 7 7 7 7 7 7 7 7 7 7 7 7 7 7 7 7 7 7 7 7 7 7 7 7 7 7 7 7 7 7 7 7 7 7 7 7 7 ",
"7 7 7 7 7 7 7 7 7 7 7 7 7 7 7 7 7 7 7 7 7 7 7 7 7 7 7 7 7 7 7 7 7 7 7 7 7 7 7 7 7 7 7 7 7 7 7 7 7 7 7 7 7 7 7 7 7 7 7 7 7 7 7 7 "
};
