/* XPM */
static char *d7e5cc33a6d24eb496b784957c26fc11psrsakTWhmF8In8I[] = {
/* columns rows colors chars-per-pixel */
"64 64 211 2 ",
"   c #010101",
".  c #090708",
"X  c #110C0E",
"o  c #30100D",
"O  c #261918",
"+  c #28241A",
"@  c #3A251B",
"#  c #111827",
"$  c #301529",
"%  c #132736",
"&  c #342D2A",
"*  c #3A393A",
"=  c #520F10",
"-  c #471916",
";  c #720E0F",
":  c #6B1615",
">  c #771518",
",  c #472819",
"<  c #592A1B",
"1  c #583A1C",
"2  c #6A3619",
"3  c #501726",
"4  c #741726",
"5  c #50322B",
"6  c #4F2835",
"7  c #643A27",
"8  c #783A2C",
"9  c #6E2C31",
"0  c #696C19",
"q  c #4F4332",
"w  c #564739",
"e  c #6B4529",
"r  c #774429",
"t  c #684639",
"y  c #794936",
"u  c #755534",
"i  c #031E49",
"p  c #062A48",
"a  c #0F2F49",
"s  c #0F3151",
"d  c #08365A",
"f  c #163557",
"g  c #2D344C",
"h  c #033967",
"j  c #033C73",
"k  c #1B4955",
"l  c #314951",
"z  c #074776",
"x  c #2F496A",
"c  c #584A47",
"v  c #585148",
"b  c #4D5253",
"n  c #525352",
"m  c #685848",
"M  c #765A48",
"N  c #685B56",
"B  c #58655D",
"V  c #76634B",
"C  c #696559",
"Z  c #796756",
"A  c #525A64",
"S  c #665C66",
"D  c #5E666C",
"F  c #676867",
"G  c #756766",
"H  c #6D716D",
"J  c #6E7676",
"K  c #767675",
"L  c #7C7D7D",
"P  c #8F0F0F",
"I  c #8F161A",
"U  c #AB1015",
"Y  c #B61719",
"T  c #9B211B",
"R  c #911827",
"E  c #A71A23",
"W  c #BA1428",
"Q  c #8A3230",
"!  c #B92326",
"~  c #C80F18",
"^  c #D7171A",
"/  c #E8191C",
"(  c #F31A1B",
")  c #D6221A",
"_  c #EF221B",
"`  c #C81927",
"'  c #D61928",
"]  c #E81C24",
"[  c #EA1928",
"{  c #F9132F",
"}  c #F61A2A",
"|  c #EC1C35",
" . c #D42426",
".. c #E42223",
"X. c #E82426",
"o. c #EB222B",
"O. c #F52428",
"+. c #EF2532",
"@. c #96441E",
"#. c #864729",
"$. c #8A4B2C",
"%. c #92482A",
"&. c #864B33",
"*. c #8B4C33",
"=. c #8A5438",
"-. c #86623C",
";. c #A83343",
":. c #90564B",
">. c #906E4E",
",. c #AA794C",
"<. c #8B786C",
"1. c #EE4353",
"2. c #F06471",
"3. c #34A313",
"4. c #768279",
"5. c #69B060",
"6. c #5EFD61",
"7. c #64FE61",
"8. c #9B9514",
"9. c #C0B400",
"0. c #E5DB05",
"q. c #B48A57",
"w. c #86827B",
"e. c #978772",
"r. c #AD8F78",
"t. c #C88F54",
"y. c #CA976B",
"u. c #E1A966",
"i. c #044884",
"p. c #05518E",
"a. c #055899",
"s. c #04659D",
"d. c #307E8A",
"f. c #065BA7",
"g. c #035DB7",
"h. c #0264AD",
"j. c #0864A8",
"k. c #026AAC",
"l. c #0264B4",
"z. c #0965B3",
"x. c #036AB4",
"c. c #0365BA",
"v. c #026BBB",
"b. c #0A69B8",
"n. c #116FBB",
"m. c #0373BA",
"M. c #757982",
"N. c #036AC4",
"B. c #0573C5",
"V. c #096CD4",
"C. c #817F80",
"Z. c #3C8598",
"A. c #6D8C95",
"S. c gray53",
"D. c #988B8A",
"F. c #90918C",
"G. c #8D9496",
"H. c #969596",
"J. c #9C9C9B",
"K. c #AF988E",
"L. c #9DA19D",
"P. c #A5A49C",
"I. c #B8A690",
"U. c #999CA3",
"Y. c #A39EA3",
"T. c #9DA5A5",
"R. c #A7A7A7",
"E. c #B3ADAB",
"W. c #A7B5B4",
"Q. c #B4B2B4",
"!. c #B9B9B9",
"~. c #C69C87",
"^. c #CBAD92",
"/. c #CDB295",
"(. c #EFA49E",
"). c #E4BB98",
"_. c #C8B6AD",
"`. c #82FA84",
"'. c #B8C4BC",
"]. c #EDCA9D",
"[. c #CFC5AF",
"{. c #E7C7A6",
"}. c #F9CCA8",
"|. c #F7D6AB",
" X c #FCD1AC",
".X c #FACCB6",
"XX c #ECD3B3",
"oX c #FDD4B3",
"OX c #F8D8B6",
"+X c #FFE2B8",
"@X c #B2B9C3",
"#X c #B9C5C6",
"$X c #B4D0C7",
"%X c gray77",
"&X c #C7CACA",
"*X c #D2CBC8",
"=X c #CED1D0",
"-X c #D4D5D6",
";X c #D2DCD2",
":X c #DCDCDB",
">X c #ECD8CF",
",X c #D7E2D9",
"<X c #D4DCE2",
"1X c #DCE7E5",
"2X c #E6E1E0",
"3X c #E6E7E7",
"4X c #E7E7E8",
"5X c #F2F3F2",
"6X c #F5F9F6",
"7X c #FCF6FC",
"8X c #FEFEFE",
/* pixels */
"3.3.3.3.3.3.3.3.3.3.3.3.3.3.3.3.3.3.3.3.3.3.3.3.3.3.3.3.3.3.3.3.3.T.    T.3.3.P.3.3.3.3.3.3.3.3.3.3.3.3.3.3.3.3.3.3.3.3.3.3.3.3.",
"3.3.3.3.3.3.3.3.3.3.3.3.3.3.3.3.3.3.3.3.3.3.3.3.3.3.3.3.T.T.#X!.!.1X  P.3.3.3.3.3.3.3.3.3.3.3.3.3.3.3.3.3.3.3.3.3.3.3.3.3.3.3.3.",
"3.3.3.3.3.3.3.3.3.3.3.3.3.3.3.3.3.3.3.3.3.3.3.3.3.3.4XW.D & - < : 6 * J.J.3.3.3.3.3.3.3.3.3.3.3.3.3.3.3.3.3.3.3.3.3.3.3.3.3.3.3.",
"3.3.3.3.3.3.3.3.3.3.3.3.3.3.3.3.3.3.3.3.3.3.3.3.3.W.v - I U ` ~ W 6 G b J :X3.3.3.3.3.3.3.3.3.3.3.3.3.3.3.3.3.3.3.3.3.3.3.3.3.3.",
"3.3.3.3.3.3.3.3.3.3.3.3.3.3.3.3.3.3.3.3.3.3.3.1XM.< ; ` ^ / O.' 8 !.:XE.v S.,X3.3.3.3.3.3.3.3.3.3.3.3.3.3.3.3.3.3.3.3.3.3.3.3.3.",
"3.3.3.3.3.3.3.3.3.3.3.3.3.3.3.3.3.3.3.3.3.3.#XH - I ' [ X.O.| U G 4X}.2.;., E.3.3.3.=XR.G.K w.R.J.3.3.3.3.3.3.3.3.3.3.3.3.3.3.3.",
"3.3.3.3.3.3.3.3.3.3.3.3.3.3.3.3.3.3.3.3.3.$XH - W o.X...] ( | U D.4X(.' 2.9 Z #XR.H y Q 4 R 9 & !.L.3.3.3.3.3.3.3.3.3.3.3.3.3.3.",
"3.3.3.3.3.3.3.3.3.3.3.3.3.3.3.3.3.3.3.3.3XH o ` [ { ..[ } X./ Y >.5X2.| .XJ.l 6 8 > U ^ ^ } Y o R.3.3.3.3.3.3.3.3.3.3.3.3.3.3.3.",
"3.3.3.3.3.3.3.3.3.3.3.3.3.3.3.3.3.3.3.3.A.- U } [ ] ] / ..X.X.^ 4 @X2.1.~.M.3 P ` { | ' ^ O.I * -X3.3.3.3.3.3.3.3.3.3.3.3.3.3.3.",
"3.3.3.3.3.3.3.3.3.3.3.3.3.3.3.3.3.3.3.!.6 ; ' [ X.] ] ( } ] ] } W C ~.:.5 > ~ +.} ~ I T X.Y = H.3.3.3.3.3.3.3.3.3.3.3.3.3.3.3.3.",
"3.3.3.3.3.3.3.3.3.3.3.3.3.3.3.3.3.3.4Xb = ^ +.] / ..} / / o.) [ { U c 6 P [ [ / T I T  .W = F L.3.3.3.3.3.3.3.3.3.3.3.3.3.3.3.3.",
"3.3.3.3.3.3.3.3.3.3.3.3.3.3.3.3.3.3.R.O ` } } ] / ( ] X.} X.X.} ` ; = 4 I E ` R = U [ E 6 S 4X3.3.3.3.3.3.3.3.3.3.3.3.3.3.3.3.3.",
"3.3.3.3.3.3.3.3.3.3.3.3.3.3.3.3.3.4Xb 4 ' ( ^ _ [ ( _ [ O./ O.` ; ; R o   . o & 6 T R < 4.L.3.3.3.3.3.3.3.3.3.3.3.3.3.3.3.3.3.3.",
"3.3.3.3.3.3.3.3.3.3.3.3.3.3.3.3.3.#X@ ` X.X.X./ | / ( X.] X.Y = ; | = o = O 5 <.<.& l W.  R.3.3.3.3.3.3.3.3.3.3.3.3.3.3.3.3.3.3.",
"3.3.3.3.3.3.3.3.3.3.3.3.3.3.3.3.3.S.> ^ O...} ] ( X.^ ..} ` o ; ' ' I > 5 Z e.~.y.<.C.      3X:X*X-X:X3.3.3.3.3.3.3.3.3.3.3.3.3.",
"3.3.3.3.3.3.3.3.3.3.3.3.3.3.3.3.3.A E / / ] / X./ ' +._ Y - 6 9 4 9 7 <.e.R.#XA.e.K.C -XQ.U.H n B c n H.:X3.3.3.3.3.3.3.3.3.3.3.",
"3.3.3.3.3.3.3.3.3.3.3.3.3.3.3.P.W.6 ) ] X.X.{ } [ O./ W 5 e.{.^.~.).{.|.D.$X<XZ.b <.<.n F M K.).].{.^.w K ,X3.3.3.3.3.3.3.3.3.3.",
"3.3.3.3.3.3.3.3.3.3.3.3.3.3.-XA - : ' } X.) ' / _ } E o q .XOXoXOX X X|.w.<X$Xd.x <.~.N I.OX}. X}. XOX^.q P.3.3.3.3.3.3.3.3.3.3.",
"3.3.3.3.3.3.3.3.3.3.3.3.3.#X5 4 ! ! ..] / ( } _ ( E - , q u K././.>X}..XK.!.@XA.l M ).XX X|.XXXX.X}.{.OXC w.4X3.3.3.3.3.3.3.3.3.",
"3.3.3.3.3.3.3.3.3.3.3.3.<Xv ; ' ] / } X./ o.{ ' P o 6 *.r e t t w r..X].].K.@XA.k v XX.X].}.oX}..XoX}.OXt K :X3.3.3.3.3.3.3.3.3.",
"3.3.3.3.3.3.3.3.3.3.3.3.#X@ ` } / ( } X.X.` I 8 V 5 5 r *.&.8 u , V {. X^.K.I.H.4.I.OX+X X X X|..X}.OX{.v J.3.3.3.3.3.3.3.3.3.3.",
"3.3.3.3.3.3.3.3.3.3.3.3.'.o Y { [ X.[ } ] : V ^._.I.K.r < &.=.@., e.|.{.n 5 C r./.+X X^.).XXOXOX+X+X{.m N &X3.3.3.3.3.3.3.3.3.3.",
"3.3.3.3.3.3.3.3.3.3.3.3.:Xb ; +.} X.^ O.~ 7 I.XX/.I.^.I.V < 8 #.< M XXK.+   O 5 m Z V q m K.^./.r.e.N N Q.3.3.3.3.3.3.3.3.3.3.3.",
"3.3.3.3.3.3.3.3.3.3.3.3.3.Q.+ P ( _ [ +.U t /.OXy.e.V ^./.<.t 1 @ <.>X).q     .   X .   . $ 5 q G <.F.%X3.3.3.3.3.3.3.3.3.3.3.3.",
"3.3.3.3.3.3.3.3.3.3.3.3.3.Q.J.b I ~ / ' ; , I.oX.X/.V <.>X}.y.r.D.].}.OXK.>.q O     .           J.-X3.3.3.3.3.3.3.3.3.3.3.3.3.3.",
"3.3.3.3.3.3.3.3.3.3.3.3.3.3.3.Q.H &.Q > o @ Z [. X X).~..XoXOX>XOX X}.OX.X X).m X . X O X   . l J.3.3.3.3.3.3.3.3.3.3.3.3.3.3.3.",
"3.3.3.3.3.3.3.3.3.3.3.3.3.3.3.3.3.#XH.N & < 5 <./.XX|.}.}.oX.X}. X}.}.|.}.|.oX^.>.c >.<.Z + * !.3.3.3.3.3.3.3.3.3.3.3.3.3.3.3.3.",
"3.3.3.3.3.3.3.3.3.3.3.3.3.3.3.3.3.3.3.Y.& 2 e < c >.r.e.e.~.{.|.|..X X X.X.XXX|.oX XOX>X_.C w.3.3.3.3.3.3.3.3.3.3.3.3.3.3.3.3.3.",
"3.3.3.3.3.3X:X-X=X:X3X:X*X!._.-X4X4X*Xn & 7 7 < + o o o O & D.^.}..XoX].}..XOXXX}.oX|./.M C *X3.3.3.3.3.3.3.3.3.3.3.3.3.3.3.3.3.",
"3.3.3.-XE.S.K L <.H S.M.b n S.B H N t , = : ; P I R R > : = 3 m r./.{.{.].OXOX.XXXOXI.N N !.3.3.3.3.3.3.3.3.3.3.3.3.3.3.3.3.3.3.",
"3.3.Y.F 4.E.J.Q.<X8X4X%XJ.Q.6X=X* = ~ [ ( } } } [ / _ _ / O.' U o + c <.r.D.K.r.K.V m S.    Q.Q.P.3.3.3.3.3.3.3.3.3.3.3.3.3.3.3.",
"3.4.F =X7X5XJ.F.-X7X8X8X7X6X6X7X=X6 ` [ ( ( ] ' / X.o.| { / _ X.E a i.i.p o > = & J.3X,XW.J.G.S.J.&XL.3.3.3.3.3.3.3.3.3.3.3.3.3.",
"R.l %X6X6X8X3XE.J.-X8X8X8X8X6X8X5XH 4 ' _ / } X.X.o.[ o. ./ .._ | ; j b.h.a R ~ 4 K F.F J 4.R.P.J.n F.4X3.3.3.3.3.3.3.3.3.3.3.3.",
"H q -X7X8X8X:XL H.4X8X8X6X7X8X8X8XW.3 ' / ' +./ ] ( ( X.) ( O.^ / Y g s.N.s.a Y Y = B Q.L.Q.6X8X6X:Xc &X3.3.3.3.3.3.3.3.3.3.3.3.",
"b R.4X7X7X8X6X4XQ.K !.8X8X8X7X7X6X<X< ' } O.[ O.[ O.O.} } ( ( +.} ..3 i.V.v.z 3 ~ R 6 S.K M.4X6X5XM.l K 3X3.3.3.3.3.3.3.3.3.3.3.",
"& Y.Q.5X8X6X8X5XJ.S.3X8X7X7X7X-X=X,X3 P P P P ; : P ; > > P ~ +./ } P x f.l 0 0 2 $ $ <.-XG.<.F.F S.&X<.&X3.3.3.3.3.3.3.3.3.3.3.",
"5 5 &X8X8X7X8X8X3X3X8X6X8X8X6XE.L.R.c C <.H.R.J + = E ` R I ` } ] ` ; s h u 0.0.8.d h b 7X<XG K &X:X%X* H.Q.3.3.3.3.3.3.3.3.3.3.",
"A.g 3X3X5X8X8X6X7X8X8X8X7X8X6XF b H R.-X1X5.3.G.% % 4 ^ X.X.[ U > * f p a 8.0.0.9.l j l @X6XJ.b R.H.M.K K -X3.3.3.3.3.3.3.3.3.3.",
"'.c S.J.-X7X6X7X3X%X!.:X8X5X%Xc J.'.3.3.3.3.1XA h p.x 6 U U 4 * j p.g.d p 0 9.0.9.l j a K !.H N !.R.%XH.S.-X3.3.3.3.3.3.3.3.3.3.",
"3.R.B * &X8X8X3XF.F L.4X6X&XF P.3.3.3.3.3.3.H.* p.B.g.i.g g z f.z.N.N.a.p f 0 8.0 f p.a c @XJ G %X%XQ.F w.3X3.3.3.3.3.3.3.3.3.3.",
"3.3.!.H J !.-X&XD & M.%XR.J A.3.3.3.3.3.3.;XS d x.v.v.x.h.f.x.m.b.g.b.a.h p k k % j f.f H 4X%Xn R.E.P.F S.1X3.3.3.3.3.3.3.3.3.3.",
"3.3.3.-XS.L H.J.F.J K M.K H.3.3.3.3.3.3.3.Q.l i.z.x.h.l.c.l.l.c.j.l.b.b.a.i.z h j l.f.k K 8X:Xt F.R.Q.L #X3.3.3.3.3.3.3.3.3.3.3.",
"3.3.3.3.3.#XY.R._.2XQ.w.R.*X!.!.[.5.3.3.3.Y.k f.v.k.h.c.c.x.c.c.z.v.v.c.z.j.f.f.k.B.f.a N -XW.n S.W.G.@XL.3.3.3.3.3.3.3.3.3.3.3.",
"3.3.3.3.3.3.3.3.3.1XS.u M & 1 5 c H.-X5.3.C.p p.m.l.c.z.l.c.c.z.k.k.k.l.z.b.h.x.z.c.a.s H e.G.R.=X3X3.3.3.3.3.3.L.J.L.3.3.3.3.3.",
"3.3.3.3.3.3.3.3.3.G.v t.>., $.%.7 o C Y.:XJ.g p.v.c.c.z.x.v.l.z.c.c.l.l.x.k.s.p.z i.d l <X3.3.3.3.3.3.3.3.T.*XE.J.D.P.&X4X3.3.3.",
"3.3.3.3.3.3.3.3.%XV q.t.1 u #.*.&.# p i F D.l i.B.l.l.c.v.k.h.l.x.h.x.z.c.v.b.z.p.z p * H.&X4XP.3.3.3.3.J.H.c , - , , , 4.L.3.3.",
"3.3.3.3.3.3.3.3.H.=.u.-.< *.$.e O j B.j.d & # h l.z.h.l.c.x.h.c.l.c.b.c.c.l.l.h.b.x.m.p.d a F E.3XJ.&X-XG 5 2 u $.=.:.7 @ K 3.3.",
"3.3.3.3.3.3.3.3.H.t -.e 8 #.$.< d f.l.f.f.p.f % a.z.l.j.z.z.z.v.x.x.l.h.v.x.l.h.k.k.j.x.N.x.i.f b b k # O u $.$.$.@.Q =.t 5 =XL.",
"3.3.3.3.3.3.3.1X<.u V 7 %.&.#.O p.b.l.z.v.N.j.d % a.N.c.l.z.l.v.b.l.l.j.j.h.x.l.v.N.v.l.l.h.z.b.z z j.z + 8 *.#.#.&.&.%.e & 5 <.",
"3.3.3.3.3.3.3.w.M ,.e 8 *.*.7 % a.b.x.v.c.c.b.a.d d z z.B.v.h.h.x.z.b.h.x.b.g.z.l.z.v.c.l.z.c.g.N.l.V.f.% 7 u &.*.r #.#.1 ,.e.O ",
"3.3.3.3.3.3.J.e ,.,.2 $.$.$.5 d j.x.l.z.z.f.k.x.h.z p p j a.b.N.l.b.c.l.x.x.l.h.h.l.l.x.x.z.v.v.x.h.c.f.+ 1 &.%.#.=.$.8 u u.>.* ",
"3.3.3.3.3.,Xw ,.r.e 2 %.=.&., d v.x.l.l.b.b.c.v.k.l.a.i.f a d i.f.x.B.m.z.v.g.N.c.c.c.h.j.j.j.k.x.j.z.p.% e *.&.y %.y w q.u.5 W.",
"3.3.3.3.3.4.m y.>.1 *.r =.&.@ h k.k.h.g.c.c.g.z.l.l.x.h.a.i.h a p d j i.f.B.B.v.l.l.x.c.z.z.v.b.c.l.m.z & r *.y $.#.8 -.u.u G 3X",
"3.3.3.3.:Xv ,.t.r r =.Q y #.3 d N.c.b.h.x.v.h.j.z.l.l.x.j.x.z.h.a # A A p s i.f.x.v.v.v.v.l.z.N.g.v.l.p , Q %.#.@.e y t.,.q &X3.",
"3.3.3.3.J.M q.q.2 #.&.*.#.r 7 % g.c.c.f.j.m.x.v.c.c.b.g.c.n.j.z % M.%X_.P.L x f h z f.z.m.x.x.x.c.N.a.p 5 $.$.$.#.1 >.,.w W.3.3.",
"3.3.3.3.S u t.-.w %.*.$.%.&.r @ % z z d h i.f.g.l.z.z.N.l.i.f g D.3X3.3.3.`._.H.F l d j a.z.x.l.j.b.i.+ r =.$.&.u =.,.M H.6.3.3.",
"3.3.3.3.w.m t 5 r *.*.Q &.#.&.r X B F.F.F x x h z z z z f l L Q.3.3.3.3.3.3.3.3.:XE.H l s h a.n.z.b.p , r =.&.r q M V D.3.3.3.3.",
"3.3.3.3.2XE.w 5 #.%.*.$.*.=.r < v *X3.6.2X_.H.S.F H H J H.[.`.3.3.3.3.3.3.3.3.3.3.3.3.!.G g h j.N.i.+ r *.$.$.1 -.-.m 3X3.3.3.3.",
"3.3.3.3.3.3.!.b < e =.%.r y 7 5 !.3.3.3.3.3.3.3.3.3.3.3.3.3.3.3.3.3.3.3.3.3.3.3.6.3.3.3.3.P.% d z # 7 &.$.$.2 t t.>.F 3.3.3.7.3.",
"3.3.3.3.3.3.3.R.w 5 5 7 7 5 F $X3.3.3.3.3.3.3.3.3.3.3.3.3.3.3.3.3.3.3.3.3.3.3.3.3.3.3.3.3.7.P.v O , r &.#.e e t.t.>.W.3.3.3.3.3.",
"3.3.3.3.3.3.3.3.-XH.K J M.Q.`.3.3.3.3.3.3.3.3.3.3.3.3.3.3.3.3.3.3.3.3.3.3.3.3.3.3.3.3.3.3.3.3.3.J., w r y 5 >.t.:.S.3.3.3.3.3.3.",
"3.3.3.3.3.3.3.3.3.3.3.3.3.3.3.3.3.3.3.3.3.3.3.3.3.3.3.3.3.3.3.3.3.3.3.3.3.3.3.3.3.3.3.3.3.3.3.3.3.!.N c q 5 t u w.3X3.3.3.3.3.3.",
"3.3.3.3.3.3.3.3.3.3.3.3.3.3.3.3.3.3.3.3.3.3.3.3.3.3.3.3.3.3.3.3.3.3.3.3.3.3.3.3.3.3.3.3.3.3.3.3.3.3.3.3X1X1X@X&X;X3.3.3.3.3.3.3.",
"3.3.3.3.3.3.3.3.3.3.3.3.3.3.3.3.3.3.3.3.3.3.3.3.3.3.3.3.3.3.3.3.3.3.3.3.3.3.3.3.3.3.3.3.3.3.3.3.3.3.3.3.3.3.3.3.3.7.3.3.3.3.3.3."
};