/* XPM */
static char *roue[] = {
/* columns rows colors chars-per-pixel */
"64 64 106 2 ",
"   c #000000",
".  c #020202",
"X  c #030203",
"o  c #030303",
"O  c #040304",
"+  c #060606",
"@  c #070707",
"#  c #080708",
"$  c #080808",
"%  c #0B0A0B",
"&  c #0D0B0D",
"*  c #0C0C0C",
"=  c #0F0E0F",
"-  c #100F10",
";  c #110F11",
":  c #131113",
">  c #141214",
",  c #161416",
"<  c #171517",
"1  c #171717",
"2  c #171518",
"3  c #181518",
"4  c #191919",
"5  c #1C191C",
"6  c #1F1C1F",
"7  c #221F22",
"8  c #231F23",
"9  c #232023",
"0  c #232024",
"q  c #252125",
"w  c #272327",
"e  c #282428",
"r  c #292529",
"t  c #2C272C",
"y  c #292929",
"u  c #2C282C",
"i  c #2E2A2E",
"p  c #302B30",
"a  c #312D31",
"s  c #332E33",
"d  c #342F34",
"f  c #333333",
"g  c #363136",
"h  c #373137",
"j  c #353535",
"k  c #393339",
"l  c #3A353A",
"z  c #3D373D",
"x  c #3B3B3B",
"c  c #3E383E",
"v  c #3C3C3C",
"b  c #61292D",
"n  c #742326",
"m  c #632D31",
"M  c #642F34",
"N  c #653036",
"B  c #403A40",
"V  c #413B41",
"C  c #433D43",
"Z  c #463F47",
"A  c #6B3C42",
"S  c #414141",
"D  c #434343",
"F  c #474047",
"G  c #444444",
"H  c #474747",
"J  c #484148",
"K  c #4B434B",
"L  c #4B444B",
"P  c #4D464D",
"I  c #4D474E",
"U  c #4A4A4A",
"Y  c #4E4E4E",
"T  c #504850",
"R  c #514951",
"E  c #5D4850",
"W  c #535353",
"Q  c #565656",
"!  c #585858",
"~  c #5B5B5B",
"^  c #5C5C5C",
"/  c #5F5F5F",
"(  c #71454C",
")  c #636363",
"_  c #666666",
"`  c DimGray",
"'  c #6B6B6B",
"]  c #6F6F6F",
"[  c #707070",
"{  c #737373",
"}  c #757575",
"|  c #777777",
" . c #7A7A7A",
".. c #7B7B7B",
"X. c #7E7E7E",
"o. c #B81E1E",
"O. c #872A2D",
"+. c #882D30",
"@. c #993439",
"#. c #9A373C",
"$. c #9A383C",
"%. c #AF282B",
"&. c #A53134",
"*. c #8E3C42",
"=. c #8E3D43",
"-. c #814147",
/* pixels */
"X.X.X.X.X.X.X.X.X.X.X.X.X.X.X.X.X.X.X.X.X.X.X.X.X.X.X.X.X.X.X.X.X.X.X.X.X.X.X.X.X.X.X.X.X.X.X.X.X.X.X.X.X.X.X.X.X.X.X.X.X.X.X.X.",
"X.X.X.X.X.X.X.X.X.X.X.X.X.X.X.X.X.X.X.X.X.X.X.X.X.X.X.X.X.X.X.X.X.X.X.X.X.X.X.X.X.X.X.X.X.X.X.X.X.X.X.X.X.X.X.X.X.X.X.X.X.X.X.X.",
"X.X.X.X.X.X.X.X.X.X.X.X.X.X.X.X.X.X.X.X.X.X.X.X.X.X.X.X.X.X.X.X.X.X.X.X.X.X.X.X.X.X.X.X.X.X.X.X.X.X.X.X.X.X.X.X.X.X.X.X.X.X.X.X.",
"X.X.X.X.X.X.X.X.X.X.X.X.X.X.X.X.X.X.X.X.X.X.X.X.X.X.X.X.X.X.X.X.X.X.X.X.X.X.X.X.X.X.X.X.X.X.X.X.X.X.X.X.X.X.X.X.X.X.X.X.X.X.X.X.",
"X.X.X.X.X.X.X.X.X.X.X.X.X.X.X.X.X.X.X.X.X.X.X.X.X.X.X.X.X.X.X.X.X.X.X.X.X.X.X.X.X.X.X.X.X.X.X.X.X.X.X.X.X.X.X.X.X.X.X.X.X.X.X.X.",
"X.X.X.X.X.X.X.X.X.X.X.X.X.X.X.X.X.X.X.X.X.X.X.X.X.X.X.X.X.X.X.X.X.X.X.X.X.X.X.X.X.X.X.X.X.X.X.X.X.X.X.X.X.X.X.X.X.X.X.X.X.X.X.X.",
"X.X.X.X.X.X.X.X.X.X.X.X.X.X.X.X.X.X.X.X.X.X.X.X.X.X.X.X.X.X.X.X.X.X.X.X.X.X.X.X.X.X.X.X.X.X.X.X.X.X.X.X.X.X.X.X.X.X.X.X.X.X.X.X.",
"X.X.X.X.X.X.X.X.X.X.X.X.X.X.X.X.X.X.X.X.X.X.X.X.X.X.X.X.X.X.X.X.X.X.X.X.X.X.X.X.X.X.X.X.X.X.X.X.X.X.X.X.X.X.X.X.X.X.X.X.X.X.X.X.",
"X.| Y v x x x x x x x x x x x x v x x x x x x x x x x v x x x c x G { X.X.X.X.X.X.X.X.X.X.X.X.X.X.X.X.X.X.X.X.X.X.X.X.X.X.X.X.X.",
"] :                                                                 + Q X.X.X.X.X.X.X.X.X.X.X.X.X.X.X.X.X.X.X.X.X.X.X.X.X.X.X.X.",
"y   9 o.=   b o.o.5   q o.o.r   , o.o.o.  $ o.o.o.    o.o.o.$   u u   $  .X.X.X.X.X.X.X.X.X.X.X.X.X.X.X.X.X.X.X.X.X.X.X.X.X.X.X.",
"$ + o.o.  & o.o.o.+   o.o.o.:   L o.o.r   l o.o.o.  q o.o.o.  : o.o.5   _ X.X.X.X.X.X.X.X.X.X.X.X.X.X.X.X.X.X.X.X.X.X.X.X.X.X.X.",
"  & o.o.  o.o.o.#.  u o.o.o.+ 3 o.o.o., $ o.o.o.e   o.o.o.o.  J o.o.9   ! X.X.X.X.X.X.X.X.X.X.X.X.X.X.X.X.X.X.X.X.X.X.X.X.X.X.X.",
"  = o.o.o.o.o.o.o.#.o.o.o.o.o.o.o.o.o.o.o.o.o.o.o.o.o.o.o.o.#.o.o.o.9   ^ X.X.X.X.X.X.X.X.X.X.X.X.X.X.X.X.X.X.X.X.X.X.X.X.X.X.X.",
"4 q o.o.o.o.o.o.o.o.o.o.o.o.o.o.o.o.o.o.o.o.o.o.o.o.o.o.o.o.o.o.o.o.q   ! X.X.X.X.X.X.X.X.X.X.X.X.X.X.X.X.X.X.X.X.X.X.X.X.X.X.X.",
"o.o.o.o.o.o.o.o.o.o.o.o.o.o.o.o.o.o.o.o.o.o.o.o.o.o.o.o.o.o.o.o.o.o.9   ^ X.X.X.X.X.X.X.X.X.X.X.X.X.X.X.X.X.X.X.X.X.X.X.X.X.X.X.",
"{ o.o.o.o.o.o.o.o.o.o.o.o.o.o.o.o.o.o.o.o.o.o.o.o.o.o.o.o.o.o.o.o.o.9   ! X.X.X.X.X.X.X.X.X.X.X.X.X.X.X.X.X.X.X.X.X.X.X.X.X.X.X.",
"= , o.o.  L o.o.o.  z o.o.o.$ q o.o.o.3 > o.o.o.r $ o.o.o.c O R o.o.9   ! X.X.X.X.X.X.X.X.X.X.X.X.X.X.X.X.X.X.X.X.X.X.X.X.X.X.X.",
"+ + o.o.  : o.o.o.  + o.o.o.&   -.o.o.8   V o.o.d   u o.o.Z   4 o.o.6   ) X.X.X.X.X. .` ) Q ^ _ { X.X.X.X.X.X.X.X.X.X.X.X.X.X.X.",
"9   a o.:   C o.o.8   a o.o.d   6 o.o.V   - o.o.E   + -.o.o.$   o.o.  + | X.X.) j 4               = y W  .X.X.X.X.X.X.X.X.X.X.X.",
"_                                                                     G X.U :       & 4     q 5 =       + v | X.X.X.X.X.X.X.X.X.",
"G   # 4 $   - 5 5 -   $ 5 5 >   + 5 5 3     5 5 5     3 5 5 #   = $   , :     $ c o.o.Z   4 o.o.o.o.=       $ Y X.X.X.X.X.X.X.X.",
">   o.o.#   o.o.o.>   J o.o.r   k o.o.l   q o.o.L   : o.o.o.  + o.o.+     3   3 o.o.o.,   L o.o.o.5   = F 6     q | X.X.X.X.X.X.",
"  = o.z   r o.o.(   3 o.o.o.  # o.o.o.:   &.o.o.8   Z o.o.g   o.o.3   $ J %.  5 o.o.o.q 8 o.o.o.o.  : o.o.o.Z $   > { X.X.X.X.X.",
"  & o.o.u o.o.o.o.u =.o.o.o.m o.o.o.o.o.o.o.o.o.L g o.o.o.%.u o.,   > o.o.#.  9 o.o.o.o.o.o.o.o.o.F o.o.o.o.o.d     > { X.X.X.X.",
"  = o.o.o.o.o.o.o.o.o.o.o.o.o.o.o.o.o.o.o.o.o.o.o.o.o.o.o.o.o.9     g o.o.o.a -.o.o.o.o.o.o.o.o.o.o.o.o.o.o.+         4  .X.X.X.",
"  $ o.o.o.o.o.o.o.o.o.o.o.o.o.o.o.o.o.o.o.o.o.o.o.o.o.o.o.o.l   -   : o.o.o.o.o.o.o.o.o.o.o.o.o.o.o.o.o.o.o.$ q A o.,   j X.X.X.",
"  = o.o.o.o.o.o.o.o.o.o.o.o.o.o.o.o.o.o.o.o.o.o.o.o.o.o.o.o.+   =.:   -.o.o.o.o.o.o.o.o.o.o.o.o.o.o.o.o.o.o.o.o.o.o.I $   ^ X.X.",
"  = o.&.q o.o.o.o.r o.o.o.o.u Z o.o.o.o.o.o.o.o.Z t o.o.o.8   o.o.c   o.o.o.o.o.o.o.o.Z g r y V o.o.o.o.o.o.o.o.o.o.o.N   4 X.X.",
"  & o.c   r o.o.-.  > o.o.o.  # o.o.o.:   o.o.o.q   V o.#.  & o.o.o.o.o.o.o.o.o.o.u               8 o.o.o.o.o.o.o.V o.o.+   Q X.",
",   $.o.$   o.o.o.>   J o.o.r   o.o.o.z   8 o.o.R   - o.r   , o.o.o.o.o.o.o.o.-.$   @ g W ! W x =   + F o.o.o.o.o.>         8 X.",
"G   $ 3 $   - 5 5 -   & 5 5 >   + 5 5 3     4 4 5     , +     8 o.o.o.o.o.o.o.#   f | X.X.X.X.X. .D     L o.o.o.o.o.L D l $   ] ",
"_                                                         3 =   p o.o.o.o.o.>   x X.X.X.X.X.X.X.X.X.Y   $ o.o.o.o.o.o.o.=.o.  Y ",
"6   O.o.-   V o.o.8   a o.o.a   q o.o.V   - o.o.R   + r   N o.& 6 o.o.o.o.V   8 X.X.X.X.X.X.X.X.X.X.X.f   f o.o.o.o.o.o.$.+.  f ",
"+ + o.o.  , o.o.o.  # o.o.o.&   #.o.o.5   Z o.o.p   a q   o.o.o.o.o.o.o.o.4   ^ X.X.X.X.X.X.X.X.X.X.X.]   = o.o.o.o.o.o.o.o.  4 ",
"  = o.o.+ L o.o.o.+ z o.o.o.$ r o.o.o.4 > o.o.o.u $ o.3   o.o.o.o.o.o.o.o.  = X.X.X.X.X.X.X.X.X.X.X.X.X.r   o.o.o.o.#.    6   = ",
"  - o.o.o.o.o.o.o.o.o.o.o.o.o.o.o.o.o.o.o.o.o.o.o.o.o.>   L o.o.o.o.o.o.o.  8 X.X.X.X.X.X.X.X.X.X.X.X.X. .#.o.o.o.o.o.g #     + ",
"5 q o.o.o.o.o.o.o.o.o.o.o.o.o.o.o.o.o.o.o.o.o.o.o.o.o.:     3 J o.o.o.o.o.  9 X.X.X.X.X.X.X.X.X.X.X.X.X.X.o.o.o.o.o.o.o.o.a O   ",
"o.o.o.o.o.o.o.o.o.o.o.o.o.o.o.o.o.o.o.o.o.o.o.o.o.o.o.,   -     L o.o.o.o.  : X.X.X.X.X.X.X.X.X.X.X.X.X.x : o.o.o.o.o.o.o.=.  $ ",
"{ o.o.o.R o.o.o.o.R o.o.o.o.$.o.o.o.o.o.o.o.o.o.o.#.o.8   o.o.u o.o.o.o.o.>   ` X.X.X.X.X.X.X.X.X.X.X.|   + o.o.o.o.o.o.o.o.  : ",
"$ , o.c   c o.o.-.  r o.o.o.O > o.o.o.- # o.o.o.q   #.p   o.o.o.o.o.o.o.o.g   f X.X.X.X.X.X.X.X.X.X.X.D   r o.o.o.o.C 6 #.o.  q ",
"$ + o.$.  $ o.o.o.#   o.o.o.3   J o.o.b   g o.o.o.  q o.  q o.o.o.o.o.o.o.o.$   Q X.X.X.X.X.X.X.X.X._ +   o.o.o.o.o.u   : q   D ",
"u   6 c =   n o.o.4   8 o.o.q   > o.o.o.  # o.o.o.    o.  $ o.o.o.o.o.o.o.o.L     Y X.X.X.X.X.X.X.! $   c o.o.o.o.o.o.3       ) ",
"| >                                                               , o.o.o.o.o.c     6 W { ..{ ! y     a o.o.o.o.o.o.o.o.:   > X.",
"X. .Q v x x x x x x x x x x x x x x x x x x x x x x x x f     - : 4 o.o.o.o.o.o.R ,               & D o.o.o.o.o.o.o.o.o.6   G X.",
"X.X.X.X.X.X.X.X.X.X.X.X.X.X.X.X.X.X.X.X.X.X.X.X.X.X.X.X.X.5   D o.o.o.o.o.o.o.o.o.o.L r , : , q Z o.o.o.o.o.o.o.= V o.C   $ | X.",
"X.X.X.X.X.X.X.X.X.X.X.X.X.X.X.X.X.X.X.X.X.X.X.X.X.X.X.X.X.^   $ o.o.o.o.o.o.o.o.o.o.o.o.o.o.o.o.o.o.o.o.o.o.o.o.  = ( >   U X.X.",
"X.X.X.X.X.X.X.X.X.X.X.X.X.X.X.X.X.X.X.X.X.X.X.X.X.X.X.X.X.X.f   8 o.o.Z 8 J o.o.o.o.o.o.o.o.o.o.o.o.o.o.o.o.o.o.>   3   5 X.X.X.",
"X.X.X.X.X.X.X.X.X.X.X.X.X.X.X.X.X.X.X.X.X.X.X.X.X.X.X.X.X.X. .:   3 +     g o.o.o.o.o.o.o.o.o.o.o.o.o.o.L o.o.o.a     + { X.X.X.",
"X.X.X.X.X.X.X.X.X.X.X.X.X.X.X.X.X.X.X.X.X.X.X.X.X.X.X.X.X.X.X.] =     q J o.o.o.o.o.o.o.o.o.o.o.o.o.o.k   o.o.o.r   + ) X.X.X.X.",
"X.X.X.X.X.X.X.X.X.X.X.X.X.X.X.X.X.X.X.X.X.X.X.X.X.X.X.X.X.X.X.X.` =   , o.o.o.o.a   z o.o.o.Z a o.o.o.t   o.o.5   + ) X.X.X.X.X.",
"X.X.X.X.X.X.X.X.X.X.X.X.X.X.X.X.X.X.X.X.X.X.X.X.X.X.X.X.X.X.X.X.X.] 6   + k o.t   + ( o.o.o.+ O o.o.o.r   0 +   : ` X.X.X.X.X.X.",
"X.X.X.X.X.X.X.X.X.X.X.X.X.X.X.X.X.X.X.X.X.X.X.X.X.X.X.X.X.X.X.X.X.X. .v     +   $ =.o.o.o.g   t o.o.o.,       f | X.X.X.X.X.X.X.",
"X.X.X.X.X.X.X.X.X.X.X.X.X.X.X.X.X.X.X.X.X.X.X.X.X.X.X.X.X.X.X.X.X.X.X.X.] y       - r a V $   t q -       q _ X.X.X.X.X.X.X.X.X.",
"X.X.X.X.X.X.X.X.X.X.X.X.X.X.X.X.X.X.X.X.X.X.X.X.X.X.X.X.X.X.X.X.X.X.X.X.X.X.{ D 4                   : x ` X.X.X.X.X.X.X.X.X.X.X.",
"X.X.X.X.X.X.X.X.X.X.X.X.X.X.X.X.X.X.X.X.X.X.X.X.X.X.X.X.X.X.X.X.X.X.X.X.X.X.X.X.X.| ^ Y D x D D ! { X.X.X.X.X.X.X.X.X.X.X.X.X.X.",
"X.X.X.X.X.X.X.X.X.X.X.X.X.X.X.X.X.X.X.X.X.X.X.X.X.X.X.X.X.X.X.X.X.X.X.X.X.X.X.X.X.X.X.X.X.X.X.X.X.X.X.X.X.X.X.X.X.X.X.X.X.X.X.X.",
"X.X.X.X.X.X.X.X.X.X.X.X.X.X.X.X.X.X.X.X.X.X.X.X.X.X.X.X.X.X.X.X.X.X.X.X.X.X.X.X.X.X.X.X.X.X.X.X.X.X.X.X.X.X.X.X.X.X.X.X.X.X.X.X.",
"X.X.X.X.X.X.X.X.X.X.X.X.X.X.X.X.X.X.X.X.X.X.X.X.X.X.X.X.X.X.X.X.X.X.X.X.X.X.X.X.X.X.X.X.X.X.X.X.X.X.X.X.X.X.X.X.X.X.X.X.X.X.X.X.",
"X.X.X.X.X.X.X.X.X.X.X.X.X.X.X.X.X.X.X.X.X.X.X.X.X.X.X.X.X.X.X.X.X.X.X.X.X.X.X.X.X.X.X.X.X.X.X.X.X.X.X.X.X.X.X.X.X.X.X.X.X.X.X.X.",
"X.X.X.X.X.X.X.X.X.X.X.X.X.X.X.X.X.X.X.X.X.X.X.X.X.X.X.X.X.X.X.X.X.X.X.X.X.X.X.X.X.X.X.X.X.X.X.X.X.X.X.X.X.X.X.X.X.X.X.X.X.X.X.X.",
"X.X.X.X.X.X.X.X.X.X.X.X.X.X.X.X.X.X.X.X.X.X.X.X.X.X.X.X.X.X.X.X.X.X.X.X.X.X.X.X.X.X.X.X.X.X.X.X.X.X.X.X.X.X.X.X.X.X.X.X.X.X.X.X.",
"X.X.X.X.X.X.X.X.X.X.X.X.X.X.X.X.X.X.X.X.X.X.X.X.X.X.X.X.X.X.X.X.X.X.X.X.X.X.X.X.X.X.X.X.X.X.X.X.X.X.X.X.X.X.X.X.X.X.X.X.X.X.X.X.",
"X.X.X.X.X.X.X.X.X.X.X.X.X.X.X.X.X.X.X.X.X.X.X.X.X.X.X.X.X.X.X.X.X.X.X.X.X.X.X.X.X.X.X.X.X.X.X.X.X.X.X.X.X.X.X.X.X.X.X.X.X.X.X.X."
};
