/* XPM */
static char *_0cd7a5d893145b9b14cfec6b78e9bda1IZfWFs7rVQWeyEt[] = {
/* columns rows colors chars-per-pixel */
"64 64 161 2 ",
"   c #020102",
".  c #0A0101",
"X  c #020803",
"o  c #0B0A06",
"O  c #02020A",
"+  c #0C0509",
"@  c #00090B",
"#  c #0F090B",
"$  c #130500",
"%  c #1A0401",
"&  c #140A01",
"*  c #1B0B01",
"=  c #1A070B",
"-  c #140C0A",
";  c #1A0B0B",
":  c #000312",
">  c #1A1416",
",  c #1F1D1E",
"<  c #220D01",
"1  c #340C00",
"2  c #261104",
"3  c #291205",
"4  c #2C110A",
"5  c #351100",
"6  c #381200",
"7  c #371803",
"8  c #3B1905",
"9  c #31100B",
"0  c #3B1609",
"q  c #1B1D24",
"w  c #242422",
"e  c #332721",
"r  c #382828",
"t  c #3B3537",
"y  c #3F393B",
"u  c #4C1700",
"i  c #451A05",
"p  c #4A1A02",
"a  c #40160A",
"s  c #431B0C",
"d  c #4B1C0A",
"f  c #581F02",
"g  c #561F0A",
"h  c #4E240C",
"j  c #562406",
"k  c #5C2304",
"l  c #5B2905",
"z  c #54250D",
"x  c #5B250B",
"c  c #55290B",
"v  c #5C290B",
"b  c #4F2315",
"n  c #4E2811",
"m  c #552213",
"M  c #5A2312",
"N  c #552910",
"B  c #5C2810",
"V  c #632705",
"C  c #6E2405",
"Z  c #652907",
"A  c #63260D",
"S  c #6E270B",
"D  c #642A0C",
"F  c #6B2B0B",
"G  c #742409",
"H  c #742A0C",
"J  c #7D2F0B",
"K  c #6C2D11",
"L  c #722C14",
"P  c #732F18",
"I  c #673011",
"U  c #6C3316",
"Y  c #733215",
"T  c #7B3511",
"R  c #7C3B13",
"E  c #733319",
"W  c #574F4D",
"Q  c #5C5353",
"!  c #5F5B5C",
"~  c #635959",
"^  c #625C64",
"/  c #645E68",
"(  c #6A7375",
")  c #82340E",
"_  c #88370A",
"`  c #823D0E",
"'  c #8A390C",
"]  c #9C3D05",
"[  c #9F3D0C",
"{  c #843611",
"}  c #893712",
"|  c #813A14",
" . c #8B3F1D",
".. c #9D3F14",
"X. c #973E1C",
"o. c #9A3F1C",
"O. c #A23A05",
"+. c #AB3E02",
"@. c #A53D0D",
"#. c #A93E0E",
"$. c #A43D13",
"%. c #AB3D13",
"&. c #9C430F",
"*. c #9C4B0D",
"=. c #8E401C",
"-. c #934610",
";. c #9D4313",
":. c #944816",
">. c #9B4814",
",. c #9D441B",
"<. c #95481C",
"1. c #9E4819",
"2. c #A54207",
"3. c #AA4405",
"4. c #AA4806",
"5. c #A4440D",
"6. c #AB430C",
"7. c #A3490A",
"8. c #AB490D",
"9. c #B54307",
"0. c #B3460C",
"q. c #B8450E",
"w. c #B1490E",
"e. c #B3500D",
"r. c #A54413",
"t. c #AA4413",
"y. c #A44914",
"u. c #AE4913",
"i. c #A5451A",
"p. c #AA4519",
"a. c #A54A1C",
"s. c #AC4B1A",
"d. c #B34413",
"f. c #BA4614",
"g. c #B24A14",
"h. c #BA4913",
"j. c #B14619",
"k. c #B94619",
"l. c #B34B1A",
"z. c #B8491A",
"x. c #AF5114",
"c. c #AF501A",
"v. c #B35115",
"b. c #B95311",
"n. c #B25218",
"m. c #994C22",
"M. c #A54521",
"N. c #A84420",
"B. c #A14B22",
"V. c #AB4E26",
"C. c #B14C20",
"Z. c #A35024",
"A. c #34A313",
"S. c #828E8A",
"D. c #8C8E8D",
"F. c #908C8D",
"G. c #85918D",
"H. c #8D8D95",
"J. c #908B92",
"K. c #999995",
"L. c #9A9599",
/* pixels */
"A.A.D.w   @ +                                       .   O q ( A.A.( q O   .                                     .   @   w G.A.A.",
"A./ X       . . O               O     O                 . .   t y . .           O                   O     O     X     .   O ^ A.",
"F.O   1 I Z K D F F F Z F F F F Z F F Z F F F F K F F D v i $ O X . p v D U F F Z F F F F F F F F F F F F F F Z S L F F 1   O S.",
"w   6 V.d.u.8.u.8.t.g.u.u.g.t.g.g.u.g.t.g.t.g.u.4.u.g.l.l.p.z   O z i.g.g.u.u.w.u.u.t.u.g.t.g.u.u.g.t.8.u.u.u.u.l.6.u.u.B.i   w ",
"o   D d.%.a.y.r.r.r.i.r.r.r.r.r.r.r.r.r.i.r.r.r.u.N.r.] 2.q.J . . J h.5.5.r.i.r.r.r.r.r.i.r.r.r.r.r.r.r.i.r.r.i.&.s.i.$.u.Z . o ",
"O   Z v.i.o.r.%.r.t.y.y.t.r.r.r.t.y.r.r.r.r.r.r.@.N.j.5.y.0.| X @ | 8.@.2.p.N.%.t.y.r.r.r.r.r.t.t.r.y.t.r.r.t.r.t.$.M.r.v.F     ",
"O   L 7.y.j.+.0.r.t.t.t.t.r.t.t.t.t.t.r.t.t.t.t.5.y.6.#.i.d.{ O O ) d.p.6.6.r.*.t.t.t.r.t.t.t.t.t.t.t.r.t.t.r.t.y.3.t.t.3.Y     ",
"    S u.y.@.t.<.r.r.r.r.i.r.r.r.a.r.r.r.r.r.r.r.t.i.t.y.m.t._   . ' r.m.y.@.i.r.r.a.r.r.r.r.r.r.y.r.r.r.r.r.r.r.M.5.t.&.g.D   . ",
"    F u.r.y.t.r.r.r.r.r.r.r.r.r.r.t.r.r.r.r.t.r.t.5.r.r.t.t.}     } t.y.$.r.y.r.r.r.r.r.t.r.r.5.r.r.r.r.r.r.r.r.r.r.r.r.g.F O   ",
"  O F u.i.t.r.r.r.r.r.r.r.t.r.r.r.r.r.r.r.t.r.r.r.r.r.r.r.t.}     } t.y.r.r.t.r.r.t.r.r.r.r.r.r.t.r.r.t.5.r.t.r.r.y.y.r.t.H     ",
"    F u.r.t.r.r.r.r.r.t.r.r.r.5.t.5.r.t.r.r.r.r.r.r.i.t.r.t.}     } u.r.t.i.5.r.t.r.5.t.r.r.r.r.r.5.r.r.r.t.r.r.r.r.t.i.g.F O   ",
"    F u.i.r.t.r.y.t.r.r.t.r.r.t.r.r.r.$.r.r.5.t.t.5.r.t.y.j.}     } t.r.t.r.5.r.r.r.r.r.r.r.t.$.r.r.r.r.r.r.r.t.r.t.t.r.g.F     ",
"    H u.r.r.y.r.r.r.r.r.r.r.r.r.r.r.r.r.r.r.t.r.r.r.r.t.r.p.}     } u.r.r.i.y.t.r.r.r.r.r.r.t.r.t.r.r.r.r.r.r.r.r.t.r.i.g.F O   ",
"    F u.r.t.t.r.r.r.t.r.r.r.r.t.t.r.r.r.r.r.r.r.r.5.r.r.r.t.}     } t.y.r.r.5.t.r.r.r.r.r.t.r.5.r.r.t.r.t.r.r.r.r.r.r.r.g.F     ",
"    F u.i.r.t.r.r.r.r.r.r.t.r.r.r.r.r.r.r.t.r.r.r.5.i.t.y.g.}     } u.y.r.i.r.r.r.r.r.t.r.r.r.r.t.r.r.r.r.y.r.r.r.r.t.r.u.H O   ",
"  O F g.r.t.r.r.t.5.r.t.r.5.$.r.t.5.r.r.r.r.r.r.t.r.r.r.t.t.}     } t.y.t.r.5.r.t.r.r.5.r.r.t.r.5.r.r.r.t.r.r.r.r.r.r.r.g.F     ",
"    L r.1.6.3.i.t.r.i.i.p.p.r.*.2.5.y.t.i.r.r.5.t.a.r.r.a.t.}   . | u.i.a.r.i.t.r.r.t.t.p.r.5.2.;.i.i.%.i.y.5.2.i.3.5.r.g.P     ",
"X   C 0.a.i.;.i.t.5.2.5.t.t.j.t.i.i.i...;.r.t.t.#.y.t.0.2.0.`     ` 0.@.y.t.t.6.p.%.r.r.;.i.i.i.6.6.t.t.5.2.y.p.i.$.N.a.6.G     ",
"X   v b.] ..s.@.r.&.r.5.r.r.$.$.r.t.y.6.6.t.r.r.y.-.&.$.$.z.E     Y l.%.[ >.-.;.r.r.t.t.6.y.t.r.$.$.r.5.t.r.$.,.5.t.i.2.w.D X X ",
"r O 1 ,.g.g.q.f.t.l.k.d.u.u.c.l.j.j.d.f.k.d.t.s.h.g.w.k.l.,.u     p i.z.u.g.h.f.j.t.%.f.f.d.j.j.l.n.s.u.d.k.g.8.f.0.g.k.r.1 O r ",
"K.    3 n j l z x x M m c c v x c c z B v j l l x x A B h 8 . O O   7 c z A A x l l A B v x c v x x v z M M A l z l c z 3     K.",
"A.!   O O O   O .   O X     . . .       O       O           O + + O           O     O         . .       X O     O . O O O   Q A.",
"A.w X . * & % % * & & $ % $   :       & $ & 2 = = % < ; & & $ $ $ & & * ; ; % = ; ; $ $ &     O O O $ * $ - & * & % & *   X , A.",
"~ O   U O.r.i.5.;.,.i.@.t.,.z   O . s =.r.$.r.;.;.*.r.;.y.r.o.y.r.m.$.5.>.;.2.*.5.r.5.r. .i . O   z o.%.@.;.1.;.@.i.y.@.Y   O Q ",
">   f g.p.p.5.i.t.y.t.$.t.t.t.6   * t.y.a.t.5.p.r.r.r.t.t.r.5.t.r.r.r.t.r.r.r.r.p.5.r.r.y.t.<   5 8.r.i.r.5.t.5.t.r.y.i.g.k   - ",
"- O x g.t.r.5.a.r.y.t.p.5.r.g.8   < t.t.i.r.5.r.r.r.r.r.r.r.r.r.r.r.r.r.r.r.t.r.t.5.r.y.t.t.<   0 u.r.r.t.t.i.r.r.r.r.r.g.V O o ",
".   D g.$.r.5.i.r.r.t.i.5.r.g.s   2 t.t.r.r.y.%.r.r.r.r.r.r.r.r.r.r.t.r.r.r.r.r.t.5.r.r.r.t.3   0 u.r.t.r.t.i.r.r.y.t.$.g.F     ",
"X   D g.r.s.5.i.t.r.t.i.5.y.g.s   3 t.r.r.t.5.r.r.t.r.r.r.r.t.r.r.r.r.r.r.t.5.r.t.5.r.r.r.t.3   s g.$.r.r.y.r.r.t.r.y.@.g.D   . ",
"+   D u.r.p.5.r.t.y.r.i.5.r.g.s   2 j.@.r.t.y.r.r.r.r.t.r.r.r.r.r.r.r.r.r.t.r.r.p.y.t.5.5.g.3   0 w.r.r.r.y.i.y.r.5.r.r.g.Z O . ",
"+   D g.$.r.5.p.t.r.r.i.5.r.g.s O 2 t.5.r.t.y.r.t.r.r.r.r.r.r.t.r.r.r.t.r.r.r.r.t.y.t.r.r.t.3   s g.r.r.r.5.r.t.t.r.r.r.g.V   . ",
"+   D g.r.r.5.r.%.y.r.i.5.r.g.s   3 t.r.r.r.y.i.r.r.5.r.r.t.r.r.t.r.r.r.5.r.r.r.t.r.t.r.t.t.3   a g.r.r.r.r.r.t.t.r.y.$.g.D X   ",
"+   v g.$.s.y.$.r.r.r.r.5.r.j.s   < t.t.i.r.5.r.r.r.t.r.r.r.r.5.r.r.r.r.t.r.$.t.i.5.r.r.t.d.3   s g.r.r.r.r.r.%.5.r.t.r.g.F     ",
".   D g.r.i.5.r.r.y.r.i.5.5.g.s O 4 t.r.r.r.5.i.r.r.t.r.r.t.r.r.5.t.r.t.r.r.t.r.%.y.t.r.r.t.2   a 8.r.r.r.y.r.t.t.r.r.$.g.D     ",
"#   v g.r.p.5.i.t.5.r.i.r.t.l.s   < g.r.r.t.r.r.r.r.r.r.r.r.r.r.r.r.r.r.r.5.r.r.r.5.t.r.r.g.3   s w.r.p.r.y.r.r.r.r.y.$.g.Z   . ",
"#   A g.r.r.5.i.t.r.5.i.t.r.g.s   2 t.r.r.r.y.t.r.t.r.r.r.5.t.r.r.r.t.r.r.r.r.r.p.y.r.r.r.g.3   0 0.r.r.i.5.r.t.t.5.r.r.g.Z O . ",
".   A g.$.p.5.r.t.r.t.i.5.5.g.s   2 t.r.r.t.5.i.5.r.r.r.r.t.r.r.r.r.r.r.r.r.t.r.t.y.t.5.r.t.3   0 g.r.i.r.t.r.t.t.r.y.$.g.Z     ",
". O D t.$.i.5.i.p.y.r.i.5.5.g.s   2 t.r.a.y.5.i.r.r.r.r.r.5.t.r.r.r.t.r.r.t.r.5.t.r.t.r.r.g.3   s g.r.$.r.t.i.r.t.y.r.r.g.F     ",
"o X D g.r.p.8.r.r.r.t.i.5.$.s.s   2 t.r.r.t.5.t.r.t.r.r.r.r.r.r.t.r.5.r.r.r.r.r.r.5.r.r.r.t.3   0 g.r.r.r.t.r.t.%.y.r.$.g.F X . ",
"-   x g.t.i.5.r.$.r.%.r.5.t.u.0   2 t.r.r.t.5.%.r.r.r.t.r.r.r.r.$.r.r.r.r.r.t.r.r.5.t.r.r.t.2   0 u.r.r.r.t.r.5.r.5.t.r.g.V O o ",
">   k g.t.i.5.p.t.y.t.i.y.s.t.6   < t.t.i.r.5.t.r.r.r.r.r.r.r.r.r.r.r.r.t.r.r.r.p.5.t.t.t.t.< O 6 8.t.p.r.t.i.y.t.5.y.r.g.k   - ",
"~ O   E 2.;.i.5.r.,.,.@.t.,.N . O . d =.y.5.r.;.5.2.>...t.%.,.u.y.,.$.t.;.-.2.5.;.y.5.t.=.d . O . m o.%.@.r.,.r.r...*.@.Y X   A.",
"A.,   . 2 & % & % & & & * $   O O     & $ & ; = = % ; - * * - % % - ; * - ; % = = ; $ $ &     X O X & * & o & * & % ; %     , A.",
"A.Q     O O     .   O       . . . .             O           O O O             O             . . .       X O   . X   O O o   W A.",
"L.O O 4 b x x h x g m m z z x j z h z m z z j l z k x z h 7   O O . 7 z z v f z j c x z m N z h j x z g m m M z d x v b 9 @ O L.",
"e O 1 &.g.d.9.h.6.g.k.g.4.u.x.j.g.g.q.f.h.0.6.u.q.g.8.g.l.i.u     p ;.C.u.g.w.q.u.8.d.f.q.f.j.g.l.u.x.8.d.f.g.t.q.0.g.d...1 O e ",
"X @ A g.2.,.a.t.r.r.5.5.5...r.%.$.r.r.r.t.y.;.i.y.;.y.r.t.z.Y     U j.%.5.>.>.y.r.;.5.y.5.5.r.$.$.$.y.5.5.y.5.r.t.i.$.r.v.A O X ",
"X   C 0.a.i.[ i.t.$.y.t.s.p.%.t.p.a.r.;.;.r.t.t.%.r.t.5.#.w.`     | w.2.t.t.t.%.t.r.r.r.r.r.i.p.j.p.t.t.y.@.r.p.r.&.p.a.9.G     ",
"    P j.;.3.e.,.y.r.r.i.%.r.y.*.8.5.t.p.t.r.t.y.r.p.t.,.a.8.| . . { 8.a.r.$.p.r.r.t.t.i.t.t.5.2.*.r.p.%.r.y.r.r.i.4.5.r.g.P     ",
"  O S 8.i.r.t.r.r.r.r.r.r.r.r.r.t.r.r.t.r.r.r.r.r.t.r.r.r.g.}     } t.y.t.i.r.r.r.t.r.r.r.r.t.r.r.r.r.r.r.5.t.r.r.t.r.r.t.H O   ",
"    F u.r.t.r.r.r.r.r.t.5.t.r.r.r.r.r.$.r.r.r.t.r.5.r.t.r.j.}     } t.r.r.r.5.r.r.r.r.t.r.r.r.r.r.r.r.r.r.r.r.r.r.y.r.i.g.F     ",
"  O F u.r.y.t.r.r.r.r.r.r.r.t.r.r.5.r.r.r.r.r.r.r.t.r.r.r.t.}     } p.y.t.r.5.t.r.r.r.5.r.t.r.r.t.$.t.r.r.r.r.r.r.r.t.r.g.F O   ",
"    F g.i.t.r.r.t.r.r.r.t.r.r.r.t.r.r.r.r.t.r.5.r.5.i.r.y.t.}     } t.r.r.r.5.t.r.r.r.r.r.r.5.r.r.r.r.r.r.t.r.r.r.t.t.r.g.F     ",
"    F g.r.r.r.r.r.r.5.r.r.r.5.t.r.r.r.r.t.r.r.r.r.5.i.r.r.t.}     } t.y.t.r.y.r.r.r.r.r.r.r.r.%.r.r.r.r.t.r.r.r.r.r.r.i.g.F O   ",
"    F u.r.t.t.r.r.t.r.r.r.r.r.r.r.r.r.t.r.r.r.r.r.t.r.t.r.j.}     } t.y.$.r.r.r.t.r.t.5.r.t.r.r.r.r.r.r.r.r.t.r.r.r.t.r.t.H     ",
"    F u.i.t.5.r.r.r.r.t.r.r.r.r.r.t.r.t.r.r.r.t.r.6.i.r.r.g.}     } t.r.t.i.5.r.r.t.r.r.r.r.r.t.t.5.r.r.r.t.r.r.r.r.r.r.g.F O   ",
"    F g.i.y.t.r.t.r.r.r.r.t.r.r.5.r.r.r.r.r.y.r.r.5.r.r.r.t.}     } t.y.r.t.5.r.r.r.r.r.r.r.r.r.r.r.t.r.r.r.5.r.r.t.t.r.g.F     ",
"    F v.i.%.u.:.r.r.r.i.r.r.r.r.r.r.r.r.i.r.r.r.r.i.t.y.m.r._   . ` y.M.r.5.i.r.r.r.r.r.r.r.r.r.r.y.r.y.r.r.r.r.m.t.t.;.u.D   . ",
"    K 5.y.g.+.t.t.t.t.t.r.t.t.t.t.t.r.t.t.t.r.t.7.y.#.#.p.g._ O   ' g.p.#.2.y.6.r.r.t.t.t.t.r.r.t.t.t.t.t.t.r.t.6.3.p.t.3.L   . ",
"    F j.r.X.y.%.r.r.r.r.r.r.r.t.r.r.r.t.y.r.t.y.#.i.p.5.r.8.| O O R u.5.t.p.N.%.r.r.t.r.$.r.r.r.t.t.t.y.r.t.r.t.p.5.M...v.F   X ",
"o   A j.@.r.y.r.r.r.r.r.r.r.i.r.r.r.r.r.r.r.r.i.p.i.r.] 2.q.J . . T g.6.O...;.y.r.r.r.r.r.i.r.r.r.r.,.r.i.r.r.r.;.t.i.r.g.F .   ",
"w   6 V.g.t.8.v.u.g.t.8.t.g.u.u.8.t.g.u.u.g.g.g.4.u.s.g.g.a.x   O j 1.l.s.c.c.w.u.8.u.u.u.g.u.u.t.g.u.u.g.t.g.u.n.3.g.g.Z.8 . w ",
"J.O   1 K D L D S F F F D F F F F F F F F F Z Z H K K D x i . @ @ . i A D D Z S F F F F F F F F Z F F Z F F F F F L Z Z 6   O S.",
"A./ X       . .       O       O   O     O                 . . t t     . .         O       O O                   X O   .   O ! A.",
"A.A.H.w     O                                     .     O q ( A.A.( q     .   O                                 .   @   w S.A.A."
};