/* XPM */
static char *damier[] = {
/* columns rows colors chars-per-pixel */
"64 64 142 2 ",
"   c #001E2A",
".  c #06232E",
"X  c #0C2935",
"o  c #002C3C",
"O  c #0E2C38",
"+  c #142D37",
"@  c #162F39",
"#  c #05303F",
"$  c #002F40",
"%  c #053141",
"&  c #093241",
"*  c #083748",
"=  c #003A4F",
"-  c #0F3949",
";  c #153A47",
":  c #123A49",
">  c #013D53",
",  c #233A43",
"<  c #034054",
"1  c #00465F",
"2  c #1B4858",
"3  c #2E4149",
"4  c #294553",
"5  c #2C4953",
"6  c #214E5F",
"7  c #284F5E",
"8  c #314E59",
"9  c #2A505F",
"0  c #024760",
"q  c #044962",
"w  c #0B4B63",
"e  c #134E63",
"r  c #0F5169",
"t  c #165064",
"y  c #12536B",
"u  c #1D566B",
"i  c #225465",
"p  c #295769",
"a  c #2D5A6A",
"s  c #345765",
"d  c #355D6B",
"f  c #3E626E",
"g  c #2D677C",
"h  c #2F687D",
"j  c #386273",
"k  c #3B6778",
"l  c #326A7F",
"z  c #4A565B",
"x  c #465660",
"c  c #4C5D64",
"v  c #545E63",
"b  c #516166",
"n  c #55646A",
"m  c #55686F",
"M  c #5F6A6E",
"N  c #496671",
"B  c #4F6972",
"V  c #566C77",
"C  c #576D78",
"Z  c #52727F",
"A  c #5D727C",
"S  c #616B6F",
"D  c #656E71",
"F  c #6B7274",
"G  c #667378",
"H  c #69767B",
"J  c #737576",
"K  c #74797B",
"L  c #7E7E7E",
"P  c #336B80",
"I  c #3B7185",
"U  c #4B7383",
"Y  c #44778B",
"T  c #547483",
"R  c #597786",
"E  c #597887",
"W  c #527C8E",
"Q  c #557D90",
"!  c #617C8E",
"~  c #727E81",
"^  c #7A7F81",
"/  c #558395",
"(  c #5B899A",
")  c #69828E",
"_  c #678797",
"`  c #6D91A0",
"'  c #7591A3",
"]  c #7892A4",
"[  c #828282",
"{  c #848688",
"}  c #898A8B",
"|  c #8D8F91",
" . c #8E9092",
".. c #929496",
"X. c #8098A5",
"o. c #8D99A1",
"O. c #859CAB",
"+. c #889FAE",
"@. c #89A0AE",
"#. c #8CA5B3",
"$. c #8EACBA",
"%. c #99A6B4",
"&. c #96AAB3",
"*. c #9CAAB4",
"=. c #9CABB8",
"-. c #94B2BE",
";. c #A1A6AB",
":. c #A8AAAC",
">. c #ACAFB1",
",. c #A5B1BD",
"<. c #B6BBBE",
"1. c #97ADC0",
"2. c #9AB1C3",
"3. c #9EB9C5",
"4. c #ABBECE",
"5. c #B8BEC4",
"6. c #A7BED1",
"7. c #AFC0CE",
"8. c #B6C4CE",
"9. c #AFC2D0",
"0. c #BFC7D1",
"q. c #B2C7DB",
"w. c #B3C8DA",
"e. c #B8CAD8",
"r. c #BFD1DA",
"t. c #BED2E6",
"y. c #C0C6CD",
"u. c #C2D3DC",
"i. c #C7D5E2",
"p. c #C8D6E3",
"a. c #D1DAE4",
"s. c #D8DCE0",
"d. c #D1DEEA",
"f. c #D5E1EE",
"g. c #DBE5EE",
"h. c #DFE9EF",
"j. c #D7E3F0",
"k. c #DAE5F1",
"l. c #E3ECF3",
"z. c #E8ECF1",
"x. c #EDF3F9",
"c. c #F0F5FA",
/* pixels */
"L L L L L L L L L L L L L L L L L L L L L L L L L L L L L L L L L L L L L L L L L L L L L L L L L L L L L L L L L L L L L L L L ",
"L L L L L L L L L L L L L L L L L L L L L L L L L L L L L L L L L L L L L L L L L L L L L L L L L L L L L L L L L L L L L L L L ",
"L L L L L L L L L L L L L L L L L L L L L L L L L L L L L L L L L L L L L L L L L L L L L L L L L L L L L L L L L L L L L L L L ",
"L L L L L L L L L L L L L L L L L L L L L L L L L L L L L L L L L L L L L L L L L L L L L L L L L L L L L L L L L L L L L L L L ",
"L L L L L L L L L L L L L L L L L L L L L L L L L L L L L L L L L L L L L L L L L L L L L L L L L L L L L L L L L L L L L L L L ",
"L L L L L L L L L L L L L L L L L L L L L L L L L L L L L L L L L L L L L L L L L L L L L L L L L L L L L L L L L L L L L L L L ",
"L L L L L L L L L L L L L L L L L L L L L L L L L L L L L L L L L L L L L L L L L L L L L L L L L L L L L L L L L L L L L L L L ",
"L L L L L L L L L L L L L L L L L L L L L L L L L L L L L L L L L L L L L L L L L L L L L L L L L L L L L L L L L L L L L L L L ",
"L L L L L L L L L L L L L L L L L L L L L L L L L L L L L L L L L L L L L L L L L L L L L L L L L L L L L L L L L L L L L L L L ",
"L L L L L L L L L L L L L L L L L L L L L L L L L L L L L L L L L L L L L L L L L L L L L L L L L L L L L L L L L L L L L L L L ",
"L L L L L L L L L L L L L L L L L L L L L L L L L L L L L L L L L L L L L L L L L L L L L L L L L L L L L L L L L L L L L L L L ",
"L L L L L L L L L L L L L L L L L L L L L L L L L L L L L L L L L L L L L L L L L L L L L L L L L L L L L L L L L L L L L L L L ",
"L L L L L L L L L L L L L L L L L L L L L L L L L L L L L L L L L L L L L L L L L L L L L L L L L L L L L L L L L L L L L L L L ",
"L L L L L L L L L L L L K c n L L L L L L L L L L L L L L L L L L L L L L L L L L L L L L L L L G e 1 V L L L L L L L L L L L L ",
"[ L L L L L L L L L L J ; o o 5 L L L L L L L L L L L L L L L L L L L L L L L L L L L L L L L G w 1 1 1 N L L L L L L L L L L L ",
"L L L L L L L L L L K ; o o o o 5 L L L L L L L L L L L L L L L L L L L L L L L L L L L L L F w 1 1 1 1 q N L L L L L L L L L L ",
"L L L L L L L L L K ; o o o o o o 5 L L L L L L L L L L L L L L L L L L L L L L L L L L L ~ r 1 1 1 1 1 1 0 Z L L L L L L L L L ",
"L L L L L L L L | s o o o o o o o o ! L L L L L L L L L L L L L L L L L L L L L L L L [ ..-.1 1 1 1 1 1 0 q ( >.L L L L L L L L ",
"L L L L L L L  .j.4.- o o o o o o 7 i.a.[ L L L L L L L L L L L L L L L L L L L L L L ..z.c.3.q 1 1 1 1 q ( x.c.>.L L L L L L L ",
"L L L L L L | g.k.k.4.: o o o o 7 i.k.k.a.[ L L L L L L L L L L L L L L L L L L L L ..z.c.c.c.3.w 1 1 1 ( x.c.c.c.<.L L L L L L ",
"L L L L L } s.k.j.j.j.9.- o o 9 i.j.j.j.g.a.[ ^ L L L L L L L L L L L L L L L L L ..z.c.c.c.c.c.3.q 1 ( c.c.c.c.l.j.y.L L L L L ",
"L L L L } s.c.c.k.j.j.j.4.: 9 p.k.j.j.j.g.d.a.[ L L L L L L L L L L L L L L L L ..z.c.c.c.c.c.c.c.2.( x.c.c.c.h.k.k.f.y.L L L L ",
"L L ^ ^ 8.c.c.c.x.k.j.j.k.' 9.j.j.j.j.j.j.j.k.=.L L L L L L L L L L L L L L [ H l h.c.c.c.c.c.x.c.-./ x.c.c.l.k.j.j.f.E A L L L ",
"L L K i r u.c.c.x.x.k.j.#.$ * e.j.j.j.j.j.k.O.o 7 L L L L L L L L L L L L L F w 1 g h.c.c.c.c.x.-.q 1 / x.l.k.k.j.f.R o o c L L ",
"L K t 0 1 y u.c.c.c.x.#.$ o o * e.j.j.j.k.O.o o o 5 L L L L L L L L L L L G 1 1 0 > P k.x.c.c.2.0 1 0 0 j d.j.k.j.R o o o o c L ",
"K e 0 0 1 1 w u.c.c.u.w $ o o o * e.j.j.O.$ o o o o ; L L L L L L L L L m 1 1 1 1 1 0 g k.c.-.0 0 1 0 = o t d.f.T o o o o o o c ",
"i 1 0 0 1 1 1 y u.r.y 0 < $ o o o * e.X.o o o o o o o 2 L L L L L L L F < 1 1 1 1 1 0 0 l $.0 1 1 1 = o o o 6 T o o o o o o o & ",
"q 0 1 1 1 1 1 1 Y I 0 0 1 1 % o o o j : o o o o o o o * d L L L L L D # = 1 1 1 1 0 0 0 ( u.y 1 1 = o o o o U +.o o o o o o o ; ",
"d 0 1 1 1 0 1 l l.l.l 1 1 1 < % o 6 f.4.- o o o o o o > 0 a L L L F # o # 1 1 1 0 0 0 ( x.c.u.r = o o o o U k.j.@.o o o o o # D ",
"^ a 1 1 1 1 l k.c.x.h.l 1 1 1 1 p f.j.j.4.- o o o o > 0 1 0 p L D # o o o # 2 1 0 0 / x.c.c.c.6.o o o o U j.f.j.k.#.# o o & S L ",
"L L d 1 1 h h.c.c.c.c.l.l 1 1 ( x.k.j.j.k.4.: o o c a 0 0 1 1 i # o o o O D K u 0 ( x.c.c.c.l.j.$.$ o U j.j.j.j.k.g.#.o & S L L ",
"L L L k h h.c.c.c.c.c.c.l.l ( x.x.x.k.j.k.j.4.: n L L a 1 1 1 1 > o o # S L ) K ` x.c.c.c.l.j.j.j.#.T f.j.j.j.j.f.k.k.#.~ L L L ",
"L L L D &.x.c.c.c.c.x.x.x.$.u.x.c.c.x.k.j.j.d.4.L L L L p 0 1 1 1 < # M L L L L { s.c.c.l.k.f.f.f.R 9 i.j.j.j.j.j.j.j.C , [ [ [ ",
"L L S & o *.c.c.c.c.c.x.1.0 r u.c.c.c.x.k.j.5.L L L L L F > 1 1 1 1 i L L L L L L { s.z.j.j.k.k.R o o 9 i.f.j.j.j.j.C   . , L L ",
"L D & o o $ &.c.c.c.x.1.0 0 1 e u.x.c.c.x.5.L L L L L D & o > 1 1 1 1 a L L L L L L { g.j.k.d.E o o o o 7 i.j.j.j.C         , L ",
"D & o o o o $ *.c.c.1.0 1 1 1 1 e u.c.x.:.L L L L L D & o o o > 1 1 1 1 p L L L L L L } d.k.E o o o o o o 9 i.j.V             z ",
"; o o o o o o o &.-.0 1 1 1 1 1 1 r u.;.L L L L L F % o o o # S p 1 1 1 1 a L L L L L L | _ o o o o o o o o d T                 ",
"& o o o o o o o E P 1 0 1 1 1 1 1 1 ! } L L L L L x o o o & S L L a 1 1 1 1 B L L L L L %.9.& o o o o o o o ] 1.+             , ",
"c o o o o o o T j.d.u 1 1 1 1 1 0 Q k.f...L L L L b o o O S L L L L p 1 1 1 f L L L L ,.t.t.6.& o o o o o ' i.t.1.+         + J ",
"L c o o o o T d.j.j.d.u 1 1 1 1 W j.j.j.d...L L L L v 8 F L L L L L L d 1 t K L L L ,.t.t.t.t.6.% o o o ' u.t.t.i.1.X     @ J L ",
"L L c o o Z f.g.j.j.j.f.u 1 1 Q f.j.j.j.j.d.| L L L L L L L L L L L L L L L L L L *.t.t.t.t.t.t.6.% o ] t.t.t.t.t.t.1.& + J L L ",
"L L L c T f.j.j.j.j.j.j.d.u Q j.j.j.j.f.j.j.0.L L L L L L L L L L L L L L L L L L 7.t.t.t.t.t.t.i.1.! t.t.t.t.t.t.t.i.O.J L L L ",
"L L L L o.f.j.j.j.j.f.f.f.T O.f.j.j.j.j.j.f.0.L L L L L L L L L L L L L L L L L [ *.t.t.t.t.t.t.q., X 1.t.t.t.t.t.i.q.{ L L L L ",
"L L L L L ;.f.j.j.j.f.d.T o $ +.j.j.j.j.j.d.| L L L L L L L L L L L L L L L L L L L ,.t.t.t.t.w.4     . 1.t.t.t.t.6.{ ^ L L L L ",
"L L L L L L ;.f.f.j.f.T o o o o +.f.f.f.d...L L L L L L L L L L L L L L L L L L L L L ,.t.t.w.4         X 1.i.i.4.{ L L L L L L ",
"L L L L L L L ;.f.f.T o o o o o $ +.j.d...L L L L L L L L L L L L L L L L L L L L L L L =.w.4             X 1.6.} L L L L L L L ",
"L L L L L L L L o.T o o o o o o $ $ X.| L L L L L L L L L L L L L L L L L L L L L L L L L z .               , ^ L L L L L L L L ",
"L L L L L L L L L x o o o o o o o & S L L L L L L L L L L L L L L L L L L L L L L L L L L L 3             + ~ L L L L L L L L L ",
"L L L L L L L L L L c o o o o o + D L L L L L L L L L L L L L L L L L L L L L L L L L L L L [ ,   .     + J L L L L L L L L L L ",
"L L L L L L L L L L L c o o o & F L L L L L L L L L L L L L L L L L L L L L L L L L L L L L L L , .   & ~ L L L L L L L L L L L ",
"L L L L L L L L L L L L b & ; D L L L L L L L L L L L L L L L L L L L L L L L L L L L L L L L L L v x L L L L L L L L L L L L L ",
"L L L L L L L L L L L L L L L L L L L L L L L L L L L L L L L L L L L L L L L L L L L L L L L L L L L L L L L L L L L L L L L L ",
"L L L L L L L L L L L L L L L L L L L L L L L L L L L L L L L L L L L L L L L L L L L L L L L L L L L L L L L L L L L L L L L L ",
"L L L L L L L L L L L L L L L L L L L L L L L L L L L L L L L L L L L L L L L L L L L L L L L L L L L L L L L L L L L L L L L L ",
"L L L L L L L L L L L L L L L L L L L L L L L L L L L L L L L L L L L L L L L L L L L L L L L L L L L L L L L L L L L L L L L L ",
"L L L L L L L L L L L L L L L L L L L L L L L L L L L L L L L L L L L L L L L L L L L L L L L L L L L L L L L L L L L L L L L L ",
"L L L L L L L L L L L L L L L L L L L L L L L L L L L L L L L L L L L L L L L L L L L L L L L L L L L L L L L L L L L L L L L L ",
"L L L L L L L L L L L L L L L L L L L L L L L L L L L L L L L L L L L L L L L L L L L L L L L L L L L L L L L L L L L L L L L L ",
"L L L L L L L L L L L L L L L L L L L L L L L L L L L L L L L L L L L L L L L L L L L L L L L L L L L L L L L L L L L L L L L L ",
"L L L L L L L L L L L L L L L L L L L L L L L L L L L L L L L L L L L L L L L L L L L L L L L L L L L L L L L L L L L L L L L L ",
"L L L L L L L L L L L L L L L L L L L L L L L L L L L L L L L L L L L L [ L L L L L L L L L L L L L L L L L L L L L L L L L L L ",
"L L L L L L L L L L L L L L L L L L L L L L L L L L L L L L L L L L L L L L L L L L L L L L L L L L L L L L L L L L L L L L L L ",
"L L L L L L L L L L L L L L L L L L L L L L L L L L L L L L L L L L L L L L L L L L L L L L L L L L L L L L L L L L L L L L L L ",
"L L L L L L L L L L L L L L L L L L L L L L L L L L L L L L L L L L L L L L L L L L L L L L L L L L L L L L L L L L L L L L L L "
};
