/* XPM */
static char *sport_car[] = {
/* columns rows colors chars-per-pixel */
"64 64 200 2 ",
"   c #1B2616",
".  c #1D2718",
"X  c #1E291A",
"o  c #222B1C",
"O  c #202516",
"+  c #39291B",
"@  c #382316",
"#  c #252F20",
"$  c #2A3325",
"%  c #2E362A",
"&  c #2F3A2A",
"*  c #323D2C",
"=  c #393D2D",
"-  c #383F34",
";  c #4D1E12",
":  c #741C13",
">  c #502A1C",
",  c #492B1C",
"<  c #792A1F",
"1  c #58392C",
"2  c #473C2E",
"3  c #623B2C",
"4  c #6C3C31",
"5  c #732B23",
"6  c #33402F",
"7  c #364130",
"8  c #394434",
"9  c #3D4538",
"0  c #3E493A",
"q  c #3E4837",
"w  c #424C3C",
"e  c #4A4C3E",
"r  c #4D4738",
"t  c #554738",
"y  c #47503F",
"u  c #6C493C",
"i  c #644B3E",
"p  c #7B4639",
"a  c #72483B",
"s  c #744639",
"d  c #444D41",
"f  c #4B4F41",
"g  c #534E40",
"h  c #5B4D40",
"j  c #465143",
"k  c #4A5243",
"l  c #4B5048",
"z  c #545D4D",
"x  c #575447",
"c  c #575B54",
"v  c #5F5F5A",
"b  c #755C4E",
"n  c #6B5A51",
"m  c #6E5648",
"M  c #5B6453",
"N  c #5F6959",
"B  c #5B6157",
"V  c #646C5B",
"C  c #6E705E",
"Z  c #696964",
"A  c #786D63",
"S  c #716E6B",
"D  c #6A7361",
"F  c #6D7568",
"G  c #747E6C",
"H  c #7A7C6C",
"J  c #72726E",
"K  c #737473",
"L  c #767876",
"P  c #797E74",
"I  c #7E7E7E",
"U  c #7B7473",
"Y  c #8A150D",
"T  c #B50E09",
"R  c #B80E09",
"E  c #AD160F",
"W  c #B6110C",
"Q  c #BA140E",
"!  c #A51610",
"~  c #BC1610",
"^  c #BE1812",
"/  c #B21611",
"(  c #812B1F",
")  c #9B241C",
"_  c #8D2E24",
"`  c #852D21",
"'  c #9D2B23",
"]  c #813729",
"[  c #AA2521",
"{  c #AE2924",
"}  c #B12621",
"|  c #AA362A",
" . c #B43A2F",
".. c #BC392D",
"X. c #B93428",
"o. c #A23E32",
"O. c #A53B33",
"+. c #B43D31",
"@. c #BD3B35",
"#. c #C21C15",
"$. c #C51F18",
"%. c #C72018",
"&. c #CB241C",
"*. c #CF281F",
"=. c #D0281F",
"-. c #C72E24",
";. c #D42D23",
":. c #D92F24",
">. c #C5362A",
",. c #CD362A",
"<. c #C2382C",
"1. c #C63226",
"2. c #DB3227",
"3. c #D63328",
"4. c #DB3328",
"5. c #DD3A2F",
"6. c #D73025",
"7. c #CC3B32",
"8. c #C63931",
"9. c #D23B32",
"0. c #DD3B30",
"q. c #E03A2F",
"w. c #8C4337",
"e. c #83473B",
"r. c #944135",
"t. c #B74235",
"y. c #BD463A",
"u. c #BE473A",
"i. c #A6493D",
"p. c #CA4037",
"a. c #C8443A",
"s. c #C6443B",
"d. c #DE4035",
"f. c #DE4439",
"g. c #DD483D",
"h. c #D7463C",
"j. c #E1483D",
"k. c #845649",
"l. c #9B554B",
"z. c #94584B",
"x. c #825D50",
"c. c #965D5A",
"v. c #984B49",
"b. c #BA4C45",
"n. c #B05143",
"m. c #A55A56",
"M. c #A75D58",
"N. c #AB5954",
"B. c #B05650",
"V. c #876759",
"C. c #986354",
"Z. c #AA655B",
"A. c #B56659",
"S. c #846F6F",
"D. c #8B6C6B",
"F. c #966A65",
"G. c #887767",
"H. c #9B726E",
"J. c #827776",
"K. c #8A7573",
"L. c #847877",
"P. c #827A7A",
"I. c #8B7D7B",
"U. c #8C7C73",
"Y. c #B36F69",
"T. c #A9746A",
"R. c #A3736C",
"E. c #B07165",
"W. c #D04B40",
"Q. c #D65148",
"!. c #DF574C",
"~. c #DE584D",
"^. c #C95347",
"/. c #E14D42",
"(. c #E3554A",
"). c #E35D51",
"_. c #CD665D",
"`. c #C06B5F",
"'. c #DF6055",
"]. c #D7695D",
"[. c #E26055",
"{. c #E36459",
"}. c #E3695E",
"|. c #D46D62",
" X c #DA6C62",
".X c #C97265",
"XX c #D37064",
"oX c #C66D65",
"OX c #E46C61",
"+X c #7A816E",
"@X c #7A8370",
"#X c #878C79",
"$X c #8C917D",
"%X c #E28378",
"&X c #7D8080",
"*X c #8A8584",
"=X c #9E8B88",
"-X c #969985",
";X c #A9A7A3",
":X c #E8D5CA",
/* pixels */
"I I I I I I I I I I I I I I I I I I I I I I I I I I I I I I I I I I I I I I I I I I I I I I I I I I I I I I I I I I I I I I I I ",
"I I I I I I I I I I I I I I I I I I I I I I I I I I I I I I I I I I I I I I I I I I I I I I I I I I I I I I I I I I I I I I I I ",
"I I I I I I I I I I I I I I I I I I I I I I I I I I I I I I I I I I I I I I I I I I I I I I I I I I I I I I I I I I I I I I I I ",
"I I I I I I I I I I I I I I I I I I I I I I I I I I I I I I I I I I I I I I I I I I I I I I I I I I I I I I I I I I I I I I I I ",
"I I I I I I I I I I I I I I I I I I I I I I I I I I I I I I I I I I I I I I I I I I I I I I I I I I I I I I I I I I I I I I I I ",
"I I I I I I I I I I I I I I I I I I I I I I I I I I I I I I I I I I I I I I I I I I I I I I I I I I I I I I I I I I I I I I I I ",
"I I I I I I I I I I I I I I I I I I I I I I I I I I I I I I I I I I I I I I I I I I I I I I I I I I I I I I I I I I I I I I I I ",
"I I I I I I I I I I I I I I I I I I I I I I I I I I I I I I I I I I I I I I I I I I I I I I I I I I I I I I I I I I I I.I I I I ",
"I I I I I I I I I P.I I I I I I I I I I I I I I I I I I I I I I I I I I I I I I I I I I I I I I I I I I I I I I I I I I I I I I ",
"I I I I I I I I I &XI I I I I I I I I I I I I I I I I I I I I I I I I I I I I I I I I I I I I I I I I I I I I I I I I I I I I I ",
"I I I I I I I I I I I I I I I I I I I I I I I I I I I I I I I I I I I I I I I I I I I I I I I I I I I I I I I I I I I I I I I I ",
"I I I I I I I I I I I I I I I I I I I I I I I I I I I I I I I I I I I I I I I I I I I I I I I I I I I I I I I I I I I I I I I I ",
"I I I I I I I I I I I I I I I I I I I I I I I I I I I I I I I I I I I I I I I I I I I I I I I I I I I I I I I I I I I I I I I I ",
"I I I I I I I I I I I I I I I I I I I I I I I I I I I I I I I I I I I I I I I I I I I I I I I I I I I I I I I I I I I I I I I I ",
"I I I I I I I I I I I I I I I I I I I I I I I I I I I I I I I I I I I I I I I I I I I I I I I I I I I I I I I I I I I I I I I I ",
"I I I I I I I I I I I I I I I I I I I I I I I I I I I I I I I I I I I I I I I I I I I I I I I I I I I I I I I I I I I I I I I I ",
"I I &X&XI I I I I I I I I I I I I I I I I I I I I I I I I I I I I I I I I I I I I I I I I I I I I I I I I I I I I I I I I I I I ",
"I I &XP.I I I I I I I I I I I I I I I I I I I I I I I I I I I I I I I I I I I I I I I I I I I I I I I I I I I I I I I I I I I I ",
"I I I I I I I I I I I I I I I I I I I I I I I I I I I &XI I I I I I I I I I I I I I I I I I I I I I I I I I I I I I I I I I I I ",
"I I I I I I I I I I I I I I I I I I I I I I I I I &X&X@X&XI &XI I I I I I I I I I I I I I I I I I I I I I I I I I I I I I I I I ",
"I I I I I I I I I I I I &X&X@XP.K.K.K.K.L.K.K.K.K.K.K.K.K.K.U.P.I I &XI &XI I I I I I I I I I I I I I I I I I I I I I I I I I I ",
"I I I I I I I I I I I I K.F.B.s.9.9.9.9.9.9.9.9.9.9.9.7.9.9.p.a.b.N.F.K.&X&XI I I I I I I I I I I I I I I I I I I I I I I I I I ",
"I I I I I I I I I K A l.7.0.2.2.<. .u.u.+. .| |  .s.t. . . ...,.4.q.0.s.F.@X&X&XI I I I I I I I I I I I I I I I I I I I I I I I ",
"I I &X&XP.I K Z m k.O.>.,.+.r.a h k V J V e - - M H G V k k k i m ]  .3.y.D.P P.I I I I I I I I I I I I I I I I I I I I I I I I ",
"I I L J Z n k.i.a.g./.^.z.m x g j j k N G M 6 & M +X+XD z j j j d d k u o.t.C.H P &X&XI I I I I I I I I I I I I I I I I I I I I ",
"I.R.E.Z.A.|.{.OXOXOX}.OXOX XXXY.Z.C.x.b A C 7 & k +X+X+X+XM j j f f l j l u +.n.G.@XI I I I &X&XI I I I I I I I I I I I I I I I ",
"T.).(.(././.g.f.0.0.5.5.0.f./.(.).{.}. X X.XZ.z.x.V.H H +X+XM y d j j j j d f e.t.C.H I I @X&X&XI I I I I I &XI I I I I I I I I ",
"K.m.8.h.$.2.2.4.4.4.2.4.2.2.2.2.2.4.5.0.f.g.(.(.{.'.].XX.XE.T.V.b b b b b b b b l.h.N.G.K.I.I.I.I.I.I.I.P.I &X&XI I I I I I I I ",
"P.S.@.Q.~ ;.4.4.4.4.4.4.4.4.4.4.4.4.4.2.2.2.2.2.2.4.d.d.f./.(.).'.'.'.'.'.[.'.'.'.).{.]. X X X X|. X|. X|.oXY.H.P.&X&X&XI I I I ",
"&XS.@.Q.T #.4.4.4.4.4.4.2.4.2.4.4.2.2.4.4.4.;.$.~ ^ ^ %.&.=.;.6.4.4.4.4.4.4.4.4.4.4.5.5.5.5.0.q.5.5.5.5.q.5.5.0.7.M.K.&XI I I I ",
"&XS.@.Q.T ~ 3.4.4.3.<.....3.4.4.4.4.4.4.;.#.Q T T W W W W T W Q ^ %.%.*.;.6.2.4.4.4.4.4.2.2.2.2.4.q.,.@...>.4.4.4.4.7.M.P.I I I ",
"&XS.@.Q.W &.4.3.| 1 r e g i r.,.4.2.4.4.;.Q T W ~ &.*.&.&.%.%.~ Q Q W W W Q ~ ^ #.$.;.;.2.2.2.q.>.5 1 e f g p +.4.4.4.4.b.K.I I ",
"U.C.8.h.%.2.6.] 6 & & 6 7 q j a ,.4.4.4.3.;.W W Q ;.4.4.4.4.4.2.6.;.;.*.&.&.#.#.#.Q Q ^ ;.4.4.X.1 * * * 6 8 0 k r.q.4.f.(._.=X*X",
"M.3.2.4.2.4.` o $ 6 6 y w * 8 y p 3.4.2.2.4.%.W W Q ;.6.6.2.4.4.4.4.4.3.4.4.4.2.2.:.;.;.4.4.1., X % * 0 y 6 6 0 e X.2.%X:X:X:X;X",
"M.4.4.4.4.1.+   o w V #X-XC 6 8 l  .4.4.4.2.2.#.T W W Q ~ ^ #.%.&.*.;.;.6.6.2.4.4.4.4.4.4.4.`     & c G -X#Xy 6 y a 3.j.~.(._.*X",
"M.4.4.4.4.' O   # z +X+X@X-XM & l ] 4.4.4.4.4.6.$.^ ^ ^ ~ Q W W Q W W Q Q ^ ^ #.$.$.-.;.:.4.>     7 D +X+X$X$X7 8 t <.4.2.4.N.@X",
"M.2.;.6.6.(     $ k D +XG #XH * 9 m ;.;.:.:.:.6.;.6.;.;.;.;.;.;.*.*.&.%.%.%.#.^ ^ ~ ~ ~ $.-.+   . 0 M +XG G -Xy % f | :.6.,.K.I ",
"D.} R ~ Q :     $ y z F G P V & 8 4 ~ R Q Q W Q Q Q Q / Q Q W W Q Q Q Q Q Q ~ Q Q Q W Q ~ E @   . 9 l V F +X+Xq = d ) Q ~ { L.I ",
"&Xc./ T T Y   . X 0 k z N D w * = < R R T T T T T T T T T T T T T T T T T T W T T T T R R T ;     & j l M D M 6 * 2 ! T T [ L.&X",
"&XI v.[ [ ' + . . # 8 0 0 8 % % - _ [ [ [ [ [ [ [ [ [ [ [ [ [ [ [ [ [ [ [ [ [ [ [ [ [ [ [ [ 5 o   . & 0 0 8 6 & * 1 [ [ [ O.U I ",
"I &XI L.U J.n o   . . O X   . $ c U J.J.J.J.J.J.L.L.L.L.L.L.L.L.U P.P.L.J.J.J.J.J.J.J.J.J.P.U -   . . O o     o - S P.L.L.J.I I ",
"I I I I I I &Xc #           # l I I I I I &XI &XI I I I &XI I I @X&XI I I I &XI &XI I &XI I I K - .           % Z &X&XI I I I I ",
"I I I I I I &X&XZ d % $ $ - v I I I I I I I I I I I I I I I I I I I I I I I I I I I I I I I I &XL c - % # % l K &XI I I I I I I ",
"I I I I I &X&X&XI I L K K I &X&XI I I I I I I I I I I I I I I I I I I I I I I I I I I I I I I I I I L L K L I I I I I I I I I I ",
"I I I I I I I I I I I I I I I I I I I I I I I I I I I I I I I I I I I I I I I I I I I I I I I I I I I &XI I I I I I I I I I I I ",
"I I I I I I I I I I I I I I I I I I I I I I I I I I I I I I I I I I I I I I I I I I I I I I I I I I I I I I I I I I I I I I I I ",
"I I I I I I I I I I I I I I I I I I I I I I I I I I I I I I I I I I I I I I I I I I I I I I I I I I I I I I I I I I I I I I I I ",
"I I I I I I I I I I I I I I I I I I I I I I I I I I I I I I I I I I I I I I I I I I I I I I I I I I I I I I I I I I I I I I I I ",
"I I I I I I I I I I I I I I I I I I I I I I I I I I I I I I I I I I I I I I I I I I I I I I I I I I I I I I I I I I I I I I I I ",
"I I I I I I I I I I I I I I I I I I I I I I I I I I I I I I I I I I I I I I I I I I I I I I I I I I I I I I I I I I I I I I I I ",
"I I I I I I I I I I I I I I I I I I I I I I I I I I I I I I I I I I I I I I I I I I.I I I I I I I I I I I I I I I I I I I I I I ",
"I I I I I I I I I I I I I I I I I I I I I I I I I I I I I I I I I I I I I I I I I I I I I I I I I I I I I I I I I I I I I I I I ",
"I I I I I I I I I I I I I I I I I I I I I I I I I I I I I I I I I I I I I I I I I I I I I I I I I I I I I I I I I I I I I I I I ",
"I I I I I I I I I I I I I I I I I I I I I I I I I I I I I I I I I I I I I I I I I I I I I I I I I I I I I I I I I I I I I I I I ",
"I I I I I I I I I I I I I I I I I I I I I I I I I I I I I I I I I I I I I I I I I I I I I I I I I I I I I I I I I I I I I I I I ",
"I I I I I I I I I I I I I I I I I I I I I I I I I I I I I I I I I I I I I I I I I I I I I I I I I I I I I I I I I I I I I I I I ",
"I I I I I I I I I I I I I I I I I I I I I I I I I I I I I I I I I I I I I I I I I I I I I I I I I I I I I I I I I I I I I I I I ",
"I I I I I I I I I I I I I I I I I I I I I I I I I I I I I I I I I I I I I I I I I I I I I I I I I I I I I I I I I I I I I I I I ",
"I I I I I I I I I I I I I I I I I I I I I I I I I I I I I I I I I I I I I I I I I I I I I I I I I I I I I I I I I I I I I I I I ",
"I I I I I I I I I I I I I I I I I I I I I I I I I I I I I I I I I I I I I I I I I I I I I I I I I I I I I I I I I I I I I I I I ",
"I I I I I I I I I I I I I I I I I I I I I I I I I I I I I I I I I I I I I I I I I I I I I I I I I I I I I I I I I I I I I I I I ",
"I I I I I I I I I I I I I I I I I I I I I I I I I I I I I I I I I I I I I I I I I I I I I I I I I I I I I I I I I I I I I I I I ",
"I I I I I I I I I I I I I I I I I I I I I I I I I I I I I I I I I I I I I I I I I I I I I I I I I I I I I I I I I I I I I I I I ",
"I I I I I I I I I I I I I I I I I I I I I I I I I I I I I I I I I I I I I I I I I I I I I I I I I I I I I I I I I I I I I I I I "
};
