/* XPM */
static char * p _left_xpm[] = {
"64 64 193 2",
"  	c #7E7E7E",
". 	c #8B7D7B",
"+ 	c #827A7A",
"@ 	c #7D8080",
"# 	c #7A8370",
"$ 	c #8C7C73",
"% 	c #8A7573",
"& 	c #847877",
"* 	c #966A65",
"= 	c #AB5954",
"- 	c #BA4C45",
"; 	c #C8443A",
"> 	c #CA4037",
", 	c #D23B32",
"' 	c #CC3B32",
") 	c #C6443B",
"! 	c #B05650",
"~ 	c #DD3B30",
"{ 	c #E03A2F",
"] 	c #DB3328",
"^ 	c #CD362A",
"/ 	c #BC392D",
"( 	c #B43A2F",
"_ 	c #B74235",
": 	c #AA362A",
"< 	c #B43D31",
"[ 	c #BE473A",
"} 	c #C2382C",
"| 	c #DB3227",
"1 	c #9B554B",
"2 	c #786D63",
"3 	c #737473",
"4 	c #797E74",
"5 	c #8B6C6B",
"6 	c #BD463A",
"7 	c #D63328",
"8 	c #813729",
"9 	c #6E5648",
"0 	c #644B3E",
"a 	c #4A5243",
"b 	c #646C5B",
"c 	c #747E6C",
"d 	c #7A7C6C",
"e 	c #5B6453",
"f 	c #383F34",
"g 	c #4A4C3E",
"h 	c #72726E",
"i 	c #5B4D40",
"j 	c #72483B",
"k 	c #944135",
"l 	c #C5362A",
"m 	c #A53B33",
"n 	c #845649",
"o 	c #696964",
"p 	c #986354",
"q 	c #A23E32",
"r 	c #6C493C",
"s 	c #444D41",
"t 	c #465143",
"u 	c #545D4D",
"v 	c #6A7361",
"w 	c #7A816E",
"x 	c #2F3A2A",
"y 	c #33402F",
"z 	c #5F6959",
"A 	c #534E40",
"B 	c #575447",
"C 	c #94584B",
"D 	c #C95347",
"E 	c #E14D42",
"F 	c #DD483D",
"G 	c #A6493D",
"H 	c #6B5A51",
"I 	c #767876",
"J 	c #887767",
"K 	c #B05143",
"L 	c #4B5048",
"M 	c #4B4F41",
"N 	c #364130",
"O 	c #6E705E",
"P 	c #755C4E",
"Q 	c #825D50",
"R 	c #AA655B",
"S 	c #B36F69",
"T 	c #D37064",
"U 	c #DA6C62",
"V 	c #E46C61",
"W 	c #E3695E",
"X 	c #E36459",
"Y 	c #D46D62",
"Z 	c #B56659",
"` 	c #B07165",
" .	c #A3736C",
"..	c #83473B",
"+.	c #47503F",
"@.	c #876759",
"#.	c #C97265",
"$.	c #E35D51",
"%.	c #E3554A",
"&.	c #DE4439",
"*.	c #DD3A2F",
"=.	c #A9746A",
"-.	c #D7463C",
";.	c #D7695D",
">.	c #DF6055",
",.	c #C51F18",
"'.	c #C63931",
").	c #A55A56",
"!.	c #9B726E",
"~.	c #C66D65",
"{.	c #E26055",
"].	c #DE4035",
"^.	c #D42D23",
"/.	c #BC1610",
"(.	c #D65148",
"_.	c #BD3B35",
":.	c #846F6F",
"<.	c #A75D58",
"[.	c #D73025",
"}.	c #D0281F",
"|.	c #CB241C",
"1.	c #C72018",
"2.	c #BE1812",
"3.	c #C21C15",
"4.	c #B50E09",
"5.	c #CF281F",
"6.	c #BA140E",
"7.	c #B6110C",
"8.	c #7B4639",
"9.	c #58392C",
"0.	c #732B23",
"a.	c #4D4738",
"b.	c #8A8584",
"c.	c #9E8B88",
"d.	c #CD665D",
"e.	c #3E493A",
"f.	c #394434",
"g.	c #323D2C",
"h.	c #B93428",
"i.	c #3E4837",
"j.	c #A9A7A3",
"k.	c #E8D5CA",
"l.	c #E28378",
"m.	c #2E362A",
"n.	c #1E291A",
"o.	c #492B1C",
"p.	c #C63226",
"q.	c #D92F24",
"r.	c #424C3C",
"s.	c #2A3325",
"t.	c #222B1C",
"u.	c #852D21",
"v.	c #DE584D",
"w.	c #E1483D",
"x.	c #878C79",
"y.	c #969985",
"z.	c #575B54",
"A.	c #1B2616",
"B.	c #39291B",
"C.	c #554738",
"D.	c #8C917D",
"E.	c #502A1C",
"F.	c #C72E24",
"G.	c #252F20",
"H.	c #202516",
"I.	c #9D2B23",
"J.	c #1D2718",
"K.	c #3D4538",
"L.	c #812B1F",
"M.	c #AE2924",
"N.	c #9B241C",
"O.	c #393D2D",
"P.	c #6D7568",
"Q.	c #382316",
"R.	c #AD160F",
"S.	c #B21611",
"T.	c #B80E09",
"U.	c #6C3C31",
"V.	c #741C13",
"W.	c #B12621",
"X.	c #AA2521",
"Y.	c #A51610",
"Z.	c #473C2E",
"`.	c #4D1E12",
" +	c #792A1F",
".+	c #8A150D",
"++	c #965D5A",
"@+	c #7B7473",
"#+	c #8D2E24",
"$+	c #984B49",
"%+	c #827776",
"&+	c #716E6B",
"*+	c #5F5F5A",
"                                                                                                                                ",
"                                                                                                                                ",
"                                                                                                                                ",
"                                                                                                                                ",
"                                                                                                                                ",
"                                                                                                                                ",
"                                                                                                                                ",
"        .                                                                                                                       ",
"                                                                                                            +                   ",
"                                                                                                            @                   ",
"                                                                                                                                ",
"                                                                                                                                ",
"                                                                                                                                ",
"                                                                                                                                ",
"                                                                                                                                ",
"                                                                                                                                ",
"                                                                                                                        @ @     ",
"                                                                                                                        + @     ",
"                                                                        @                                                       ",
"                                                                  @   @ # @ @                                                   ",
"                                                      @   @     + $ % % % % % % % % % & % % % % + # @ @                         ",
"                                                    @ @ % * = - ; > , , ' , , , , , , , , , , , ) ! * %                         ",
"                                                @ @ # * ) ~ { ] ^ / ( ( ( _ ) ( : : ( < [ [ ( } | | ~ ' 1 2 3                   ",
"                                                + 4 5 6 7 ( 8 9 0 a a a b c d e f f g b h b a i j k < ^ l m n 9 o 3   + @ @     ",
"                                          @ @ 4 d p _ q r a s s t t t u v w w e x y e c z a t t A B 9 C D E F ; G n H o h I     ",
"                                @ @         # J K < r L t L M M t t e w w w w a x N O 2 P Q p R S T U V V W V V V X Y Z R `  .. ",
"                  @             @ @ #     d p _ ..M s t t t t s +.e w w d d @.Q C R #.U U W X $.%.E &.~ *.*.~ ~ &.F E E %.%.$.=.",
"                @ @   + . . . . . . . % J = -.1 P P P P P P P P @.=.` #.T ;.>.X %.%.F &.~ *.] | | | | | ] | ] ] ] | | ,.-.'.).% ",
"        @ @ @ + !.S ~.Y U Y U Y U U U U ;.X $.>.>.>.{.>.>.>.>.>.$.%.E &.].].] | | | | | | ] ] ] ] ] ] ] ] ] ] ] ] ] ^./.(._.:.+ ",
"        @ % <.' ~ *.*.{ *.*.*.*.{ ~ *.*.*.*.] ] ] ] ] ] ] ] ] ] [.^.}.|.1.2.2./.,.^.] ] ] | | ] ] | ] | ] ] ] ] ] ] 3.4.(._.:.@ ",
"      + <.' ] ] ] ] l / _.^ { ] | | | | ] ] ] ] ] | [.^.5.1.1.2.6.7.4.7.7.7.7.4.4.6.3.^.] ] ] ] ] ] 7 / / } 7 ] ] 7 /.4.(._.:.@ ",
"    % - ] ] ] ] < 8.A M g 9.0.l { | | | ^.^.,.3.2./.6.7.7.7.6.6./.1.1.|.|.5.|./.7.4.6.^.] ] | ] ^ k 0 A g a.9.: 7 ] |.7.(._.:.@ ",
"b.c.d.%.&.] { k a e.f.y g.g.g.9.h.] ] ^.2.6.6.3.3.3.|.|.5.^.^.[.| ] ] ] ] ] ^.6.7.7.^.7 ] ] ] ^ j t i.N y x x y 8 [.| 1.-.'.p $ ",
"j.k.k.k.l.| h.g e.y y +.e.g.m.n.o.p.] ] ^.^.q.| | ] ] ] 7 ] ] ] ] ] | [.[.^.6.7.7.1.] | | ] 7 8.+.f.g.r.+.y y s.t.u.] | ] | 7 <.",
"b.d.%.v.w.7 j +.y +.x.y.c z.x A.A.u.] ] ] ] ] ] ] | [.[.^.^.5.|.1.3.2./.6.7.7.4.3.| | ] ] ] ( L f.y O y.x.b r.t.A.B.p.] ] ] ] <.",
"# = ] | ] } C.f.N D.D.w w v N A.A.E.] q.^.F.,.,.3.2.2.6.6.7.7.6.7.7.6./.2.2.2.,.[.] ] ] ] ] 8 L x e y.# w w u G.A.H.I.] ] ] ] <.",
"  % ^ [.q.: M m.+.y.c c w e e.J.A.B.F.,./././.2.2.3.1.1.1.|.5.5.^.^.^.^.^.^.[.^.[.q.q.q.^.^.9 K.g.d x.c w v a s.A.A.L.[.[.^.| <.",
"  & M./.6.N.s O.i.w w P.b L K.J.A.Q.R./.6.7.6.6.6./.6.6.6.6.6.6.7.7.6.6.S.6.6.6.6.7.6.6.T./.U.f.x b 4 c P.u +.s.A.A.V.6./.T.W.5 ",
"@ & X.4.4.Y.Z.g.y e v e L t x A.A.`.4.T.T.4.4.4.4.7.4.4.4.4.4.4.4.4.4.4.4.4.4.4.4.4.4.4.T.T. +O.g.r.v z u a e.n.J.A..+4.4.S.++@ ",
"  @+m X.X.X.9.g.x y f.e.e.x J.A.t.0.X.X.X.X.X.X.X.X.X.X.X.X.X.X.X.X.X.X.X.X.X.X.X.X.X.X.X.X.#+f m.m.f.e.e.f.G.J.J.B.I.X.X.$+  @ ",
"    %+& & + &+f t.A.A.t.H.J.J.A.f @++ %+%+%+%+%+%+%+%+%+& + + @+& & & & & & & & %+%+%+%+%+%+@+z.s.J.A.n.H.J.J.A.t.H %+@+&   @   ",
"          @ @ o m.A.A.A.A.A.J.f 3       @     @   @         @ #       @         @   @           L G.A.A.A.A.A.G.z.@             ",
"              @ 3 L m.G.m.f z.I @                                                                 *+f s.s.m.s o @ @             ",
"                    I 3 I I                                                                     @ @   3 3 I     @ @ @           ",
"                        @                                                                                                       ",
"                                                                                                                                ",
"                                                                                                                                ",
"                                                                                                                                ",
"                                                                                                                                ",
"                                                                                                                                ",
"                                            .                                                                                   ",
"                                                                                                                                ",
"                                                                                                                                ",
"                                                                                                                                ",
"                                                                                                                                ",
"                                                                                                                                ",
"                                                                                                                                ",
"                                                                                                                                ",
"                                                                                                                                ",
"                                                                                                                                ",
"                                                                                                                                ",
"                                                                                                                                ",
"                                                                                                                                ",
"                                                                                                                                "};
