/* XPM */
static char *flaque[] = {
/* columns rows colors chars-per-pixel */
"64 64 2 1 ",
"  c black",
". c #7E7E7E",
/* pixels */
"................................................................",
"................................................................",
"................................................................",
"................................................................",
"................................................................",
"................................................................",
"................................................................",
"................................................................",
"................................................................",
"................................................................",
"................................................................",
"................................................................",
"................................................................",
"................................................................",
"................................................................",
"................................................................",
"................................................................",
"................................................................",
"................................................................",
"....   ..........                                      .........",
"..      .......                                         ........",
"..      .......          ......    .                    ........",
"...     ........         .......  ..                    ........",
"..................                                   ...........",
".....................                             ..............",
"......................                           ...............",
"......................                           ...............",
"......................                           ...............",
"......................                            ..............",
"....................                               .............",
"...                                                          ...",
"..                                                            ..",
"..                                                            ..",
"...                                                          ...",
"......................                    ......................",
"........................                ........................",
"........................                ........................",
"........................               .........................",
"........................                ........................",
".......................                  .......................",
"....................                        ....................",
"...       ........                            ........       ...",
"..         ......                              ......         ..",
"..        .......                              .......        ..",
"....     ..........                          ..........     ....",
"................................................................",
"................................................................",
"................................................................",
"................................................................",
"................................................................",
"................................................................",
"................................................................",
"................................................................",
"................................................................",
"................................................................",
"................................................................",
"................................................................",
"................................................................",
"................................................................",
"................................................................",
"................................................................",
"................................................................",
"................................................................",
"................................................................"
};
